<svg width="1920" height="2581" viewBox="0 0 1920 2581" fill="none" xmlns="http://www.w3.org/2000/svg">
<g opacity="0.430001">
<mask id="mask0_2404_2930" style="mask-type:alpha" maskUnits="userSpaceOnUse" x="1159" y="1031" width="911" height="805">
<rect x="1893.46" y="1031.19" width="609.472" height="766.322" transform="rotate(73.2361 1893.46 1031.19)" fill="url(#paint0_linear_2404_2930)"/>
</mask>
<g mask="url(#mask0_2404_2930)">
<path d="M1574.26 1678.06C1455.38 1713.87 1329.97 1646.52 1294.16 1527.64C1258.34 1408.75 1325.69 1283.34 1444.58 1247.53C1563.46 1211.72 1528.67 1327.32 1564.49 1446.2C1600.3 1565.09 1693.15 1642.24 1574.26 1678.06Z" fill="#3AA06B"/>
<g filter="url(#filter0_f_2404_2930)">
<path d="M1569.97 1679.35C1477.94 1707.07 1374.31 1633.17 1338.5 1514.28C1302.68 1395.39 1348.26 1276.54 1440.28 1248.82C1532.31 1221.1 1635.95 1295 1671.76 1413.89C1707.57 1532.78 1662 1651.63 1569.97 1679.35Z" fill="#3AA06B"/>
</g>
<g filter="url(#filter1_f_2404_2930)">
<ellipse cx="1513.71" cy="1461.5" rx="224.818" ry="174.028" transform="rotate(73.2361 1513.71 1461.5)" fill="#3AA06B"/>
</g>
<g filter="url(#filter2_f_2404_2930)">
<ellipse cx="1537.31" cy="1454.39" rx="224.818" ry="174.775" transform="rotate(73.2361 1537.31 1454.39)" fill="#3AA06B"/>
</g>
<g filter="url(#filter3_f_2404_2930)">
<ellipse cx="1608.11" cy="1433.06" rx="224.818" ry="174.028" transform="rotate(73.2361 1608.11 1433.06)" fill="#3AA06B"/>
</g>
<g filter="url(#filter4_f_2404_2930)">
<ellipse cx="1703.94" cy="1404.2" rx="188.966" ry="174.028" transform="rotate(73.2361 1703.94 1404.2)" fill="#3AA06B"/>
</g>
</g>
</g>
<g opacity="0.430001">
<mask id="mask1_2404_2930" style="mask-type:alpha" maskUnits="userSpaceOnUse" x="-226" y="124" width="2643" height="2399">
<path d="M2416.58 1082.66C2131.17 1473.65 1520.22 2640.01 1408.25 2513.04L-225.57 1563.32L678.804 124.397L2416.58 1082.66Z" fill="url(#paint1_linear_2404_2930)"/>
</mask>
<g mask="url(#mask1_2404_2930)">
<path d="M872.146 1900.04C732.407 1798.33 716.942 1572.65 808.408 1446.98C899.874 1321.31 1076.47 1197.56 1226.4 1306.69C1300.7 1360.76 1452.05 1342.41 1494.77 1469.24C1538.26 1598.35 1393.08 1754.87 1346.94 1818.26C1255.47 1943.93 1011.88 2001.74 872.146 1900.04Z" fill="#52B081"/>
<g filter="url(#filter5_f_2404_2930)">
<path d="M881.657 1890.49C731.791 1781.41 712.232 1582.86 790.853 1474.84C869.474 1366.82 1029.19 1266.22 1179.06 1375.29C1253.33 1429.35 1398.1 1419.96 1447.18 1537.97C1497.15 1658.11 1369.49 1790.57 1329.83 1845.06C1251.21 1953.08 1031.52 1999.57 881.657 1890.49Z" fill="#52B081"/>
</g>
<g filter="url(#filter6_f_2404_2930)">
<path d="M877.117 1887.19C709.146 1764.93 697.052 1528.89 793.982 1395.71C890.912 1262.54 1081.49 1133.89 1249.46 1256.15C1332.7 1316.73 1510.11 1285.4 1560.73 1423.7C1612.27 1564.48 1448.98 1740.72 1400.08 1807.9C1303.15 1941.07 1045.09 2009.44 877.117 1887.19Z" fill="#52B081"/>
</g>
<g filter="url(#filter7_f_2404_2930)">
<path d="M869.213 1857.31C685.606 1673.7 639.543 1375.94 752.987 1220.08C866.431 1064.21 1094.33 972.324 1295.78 1118.95C1395.6 1191.6 1647.57 1115.13 1709.68 1279.07C1772.91 1445.96 1590.73 1638.56 1533.51 1717.18C1420.06 1873.05 1081.91 2070.01 869.213 1857.31Z" fill="#52B081"/>
</g>
<g filter="url(#filter8_f_2404_2930)">
<path d="M845.253 1743.37C628.347 1585.5 587.776 1248.77 698.691 1096.38C809.606 943.99 1042.85 861.738 1259.75 1019.61C1367.24 1097.84 1540.08 1134.68 1612.55 1303.51C1686.32 1475.38 1505.49 1661.71 1449.54 1738.58C1338.62 1890.97 1062.16 1901.24 845.253 1743.37Z" fill="#52B081"/>
</g>
<g filter="url(#filter9_f_2404_2930)">
<path d="M805.102 1621.09C580.95 1457.95 537.473 1112.1 650.917 956.237C764.361 800.372 1004.12 717.12 1228.27 880.267C1339.35 961.114 1517.52 999.793 1593 1173.46C1669.83 1350.25 1484.56 1540.6 1427.33 1619.23C1313.89 1775.09 1029.25 1784.24 805.102 1621.09Z" fill="#52B081"/>
</g>
<g filter="url(#filter10_f_2404_2930)">
<path d="M955.657 1768.59C759.523 1625.83 740.168 1297.54 853.612 1141.68C967.056 985.813 1192.18 891.905 1388.31 1034.66C1485.5 1105.4 1633.69 1149.83 1692.67 1311.5C1752.71 1476.06 1571.26 1669.19 1514.04 1747.81C1400.59 1903.68 1151.79 1911.34 955.657 1768.59Z" fill="#52B081"/>
</g>
</g>
</g>
<g opacity="0.1">
<mask id="mask2_2404_2930" style="mask-type:alpha" maskUnits="userSpaceOnUse" x="383" y="1087" width="589" height="726">
<path d="M957.48 1405.21C843.594 1340.11 479.08 1105.13 456.534 1087.78L383.618 1416.94L491.028 1554.63L767.213 1676.66L843.771 1812.01L971.608 1555.89L957.48 1405.21Z" fill="url(#paint2_linear_2404_2930)"/>
</mask>
<g mask="url(#mask2_2404_2930)">
<path d="M894.772 1564.4C898.201 1477.52 840.063 1457.17 771.094 1423.36C761.233 1427.42 726.213 1464.29 665.022 1579.31C588.534 1723.09 651.494 1886.34 673.822 1861.03C696.15 1835.72 891.343 1651.27 894.772 1564.4Z" fill="black"/>
<g filter="url(#filter11_f_2404_2930)">
<path d="M886.528 1569.19C889.119 1475.48 804.203 1440.14 727.789 1402.71C647.26 1372.61 672.963 1495.26 607.144 1618.55C524.87 1772.67 631.776 1902.74 656.02 1875.73C680.263 1848.72 883.937 1662.9 886.528 1569.19Z" fill="black"/>
</g>
<g filter="url(#filter12_f_2404_2930)">
<path d="M875.071 1592.48C877.969 1494.76 819.125 1434.33 739.79 1395.47C728.552 1399.92 680.973 1477.83 612.299 1606.55C526.457 1767.45 600.445 1951.91 625.7 1923.69C650.955 1895.47 872.174 1690.21 875.071 1592.48Z" fill="black"/>
</g>
<g filter="url(#filter13_f_2404_2930)">
<path d="M878.907 1577.61C880.701 1468.53 804.091 1441.16 712.91 1396.53C700.148 1401.33 659.554 1356.56 583.142 1499.23C487.626 1677.56 570.926 1974.7 599.323 1943.58C627.72 1912.46 877.113 1686.69 878.907 1577.61Z" fill="black"/>
</g>
<g filter="url(#filter14_f_2404_2930)">
<path d="M855.596 1594.84C859.327 1468.03 767.612 1424.86 664.615 1374.4C650.029 1380.17 590.688 1450.01 501.581 1617.01C390.197 1825.77 486.296 2065.15 519.071 2028.54C551.846 1991.93 851.864 1721.66 855.596 1594.84Z" fill="black"/>
</g>
<g filter="url(#filter15_f_2404_2930)">
<path d="M850.281 1543.65C854.351 1405.83 656.325 1320.49 544.421 1265.67C528.572 1271.94 552.836 1432.44 455.998 1613.94C334.951 1840.82 439.339 2100.95 474.954 2061.16C510.57 2021.37 846.211 1681.46 850.281 1543.65Z" fill="black"/>
</g>
</g>
</g>
<g opacity="0.1">
<mask id="mask3_2404_2930" style="mask-type:alpha" maskUnits="userSpaceOnUse" x="1286" y="972" width="555" height="643">
<path d="M1708.38 1550.82C1731.76 1421.74 1831.69 999.719 1840.53 972.676L1505.9 1013.74L1411.92 1160.93L1389.01 1462L1286.96 1579.33L1571.05 1614.4L1708.38 1550.82Z" fill="url(#paint3_linear_2404_2930)"/>
</mask>
<g mask="url(#mask3_2404_2930)">
<path d="M1537.4 1544.81C1620.44 1519.06 1620.23 1457.46 1629.1 1381.16C1621.98 1373.22 1575.54 1352.51 1446.7 1333.19C1285.64 1309.04 1152.74 1422.86 1184.05 1435.46C1215.36 1448.07 1454.35 1570.55 1537.4 1544.81Z" fill="black"/>
<g filter="url(#filter16_f_2404_2930)">
<path d="M1530.13 1538.63C1619.33 1509.82 1624.33 1417.97 1634.12 1333.45C1635.64 1247.49 1528.59 1312.64 1390.4 1291.72C1217.66 1265.57 1130.71 1409.74 1164.26 1423.58C1197.81 1437.43 1440.92 1567.45 1530.13 1538.63Z" fill="black"/>
</g>
<g filter="url(#filter17_f_2404_2930)">
<path d="M1504.35 1535.6C1597.45 1505.73 1634.78 1430.1 1644.95 1342.35C1637.01 1333.24 1547.69 1314.38 1403.43 1292.57C1223.12 1265.32 1073.9 1396.61 1108.93 1411C1143.96 1425.39 1411.25 1565.47 1504.35 1535.6Z" fill="black"/>
</g>
<g filter="url(#filter18_f_2404_2930)">
<path d="M1519.65 1534.26C1623.08 1499.56 1623.33 1418.21 1634.98 1317.36C1626.2 1306.93 1654.86 1253.73 1494.88 1229.29C1294.9 1198.73 1042.57 1376.38 1081.38 1392.77C1120.19 1409.16 1416.22 1568.95 1519.65 1534.26Z" fill="black"/>
</g>
<g filter="url(#filter19_f_2404_2930)">
<path d="M1495.63 1518.03C1616.42 1479.24 1626.53 1378.38 1639.73 1264.45C1629.43 1252.63 1543.8 1219.98 1356.63 1191.69C1122.68 1156.32 929.063 1326.77 974.51 1345.46C1019.96 1364.14 1374.83 1556.81 1495.63 1518.03Z" fill="black"/>
</g>
<g filter="url(#filter20_f_2404_2930)">
<path d="M1542.12 1495.94C1673.39 1453.8 1687.79 1238.65 1702.14 1114.87C1690.94 1102.02 1547.73 1178.44 1344.32 1147.69C1090.06 1109.26 879.652 1294.45 929.044 1314.75C978.436 1335.05 1410.84 1538.08 1542.12 1495.94Z" fill="black"/>
</g>
</g>
</g>
<g opacity="0.76">
<path d="M555.354 1705.16C540.381 1688.72 532.924 1668.47 540.277 1637.59C565.217 1533.37 638.293 1444.15 628.641 1331.6C623.634 1273.81 593.755 1224.23 549.838 1187.21C342.072 1012.64 136.387 1099.87 73.1416 1156.37C8.32205 1214.25 37.5886 1319.98 67.7663 1388.01C104.917 1471.84 152.916 1554.93 155.059 1648.93C157.311 1748.17 179.286 1973.45 216.817 2070.07C243.296 2138.24 312.035 2231.92 384.726 2240.23C457.417 2248.54 532.122 2174.8 589.181 2129.06C646.24 2083.33 869.502 2275.95 898.164 2208.56C936.703 2117.94 863.531 2011.01 810.715 1942.81C757.156 1873.67 694.36 1812.25 625.62 1758.23C600.138 1738.32 572.711 1724.28 555.354 1705.16Z" stroke="url(#paint4_linear_2404_2930)" stroke-opacity="0.2" stroke-width="3"/>
<path d="M64.4572 1140.65C-4.61606 1202.29 26.6793 1315.05 58.7541 1387.54C98.2495 1476.88 149.587 1565.46 151.727 1665.68C154.081 1771.45 164.179 1989.14 204.238 2092.14C232.458 2164.9 305.775 2255.7 383.358 2264.57C452.694 2272.5 523.597 2207.24 579.429 2166.04C636.96 2123.62 839.613 2288.4 871.542 2224.64C915.621 2136.35 860.422 2030.77 819.272 1958.37C778.015 1885.68 724.616 1820.1 662.882 1761.78C640.001 1740.18 614.942 1724.01 598.304 1703.56C584.001 1686.2 576.157 1665.62 580.571 1635.68C587.286 1590.56 599.928 1548.1 610.828 1506.02C620.17 1470.12 628.083 1434.35 629.118 1396.8C629.641 1378.59 627.96 1359.84 624.138 1340.01C613.587 1286.12 581.963 1238.18 536.496 1199.84C468.914 1143.12 401.759 1108.68 338.59 1091.4C220.233 1058.9 113.352 1096.95 64.4572 1140.65Z" stroke="url(#paint5_linear_2404_2930)" stroke-opacity="0.2" stroke-width="3"/>
<path d="M55.6346 1124.91C-17.6922 1190.31 15.4922 1310.09 49.6039 1387.06C91.5835 1481.93 145.98 1575.95 148.395 1682.44C150.854 1794.74 149.058 2004.97 191.504 2114.34C221.482 2191.55 299.5 2279.63 381.696 2289.02C447.817 2296.58 514.933 2239.67 569.384 2203.13C627.525 2164.03 809.694 2301.12 844.486 2240.8C894.245 2154.87 856.723 2050.74 827.38 1974.17C798.129 1898.03 754.563 1828.19 699.834 1765.58C679.677 1742.45 656.987 1724.14 640.944 1702.2C627.328 1683.79 618.973 1662.72 620.432 1633.86C622.685 1589.37 628.021 1547.63 631.289 1506.66C634.117 1472 635.592 1438.04 631.462 1402.3C629.434 1385.36 625.232 1367.6 619.186 1348.64C603.494 1298.84 569.581 1252.34 522.844 1212.73C457.247 1157.22 392.066 1117.91 329.121 1093.72C219.805 1051.48 111.308 1075.2 55.6346 1124.91Z" stroke="url(#paint6_linear_2404_2930)" stroke-opacity="0.2" stroke-width="3"/>
<path d="M46.8133 1109.18C-30.7832 1178.48 4.30629 1305.13 40.2991 1386.71C84.7629 1487.1 142.343 1586.72 144.77 1699.3C147.472 1818.14 133.658 2020.77 178.493 2136.5C210.228 2218.16 292.807 2303.5 379.896 2313.46C442.662 2320.63 506.255 2272.24 559.34 2240.22C618.076 2204.59 779.792 2313.71 817.572 2256.99C873.15 2173.41 853.149 2070.86 835.645 1989.84C818.539 1910.28 784.667 1836.17 736.96 1769.11C719.387 1744.44 699.205 1724.01 683.741 1700.72C670.812 1681.25 661.93 1659.85 660.572 1632.08C658.364 1588.21 656.396 1547.19 652.047 1507.19C648.345 1473.91 643.537 1441.64 634.103 1407.7C629.678 1391.9 622.925 1375.41 614.685 1357.05C593.993 1311.35 557.792 1266.29 509.645 1225.38C445.861 1171.36 382.761 1127.46 319.964 1095.79C219.235 1045.33 109.264 1053.44 46.8133 1109.18Z" stroke="url(#paint7_linear_2404_2930)" stroke-opacity="0.2" stroke-width="3"/>
<path d="M37.9905 1093.44C-43.8597 1166.5 -6.8812 1300.17 31.1485 1386.23C77.9407 1492.26 138.736 1597.21 141.438 1716.05C144.244 1841.42 118.536 2036.6 165.915 2158.57C199.391 2244.82 286.687 2327.3 378.513 2337.94C437.924 2344.73 498.118 2305.02 549.589 2277.2C609.045 2245.19 750.291 2326.48 790.967 2272.92C852.644 2191.75 849.73 2090.87 844.203 2005.41C838.932 1922.67 814.909 1844.16 774.208 1772.8C759.358 1746.61 741.545 1724.03 726.66 1699.39C714.403 1679.01 705.009 1657.12 700.712 1630.29C693.779 1586.87 684.893 1546.91 672.788 1507.86C662.851 1475.85 651.481 1445.24 636.571 1413.37C629.75 1398.71 620.46 1383.34 609.856 1365.85C584.459 1324.14 545.534 1280.61 496.117 1238.42C434.163 1185.74 373.063 1137.97 310.461 1098.38C218.428 1040 107.375 1031.55 37.9905 1093.44Z" stroke="url(#paint8_linear_2404_2930)" stroke-opacity="0.2" stroke-width="3"/>
<path d="M29.1677 1077.7C-56.9361 1154.53 -18.0685 1295.21 21.998 1385.75C71.2744 1497.31 135.269 1607.72 137.983 1732.65C140.893 1864.55 103.166 2052.13 153.058 2180.61C188.292 2271.31 280.149 2351.05 376.867 2362.25C432.923 2368.66 489.718 2337.62 539.56 2314.15C599.874 2285.78 720.667 2339.1 763.927 2288.95C831.826 2210.33 845.595 2110.93 852.326 2021.06C858.75 1935.13 844.716 1852.24 811.052 1776.31C798.771 1748.7 783.482 1723.87 769.332 1697.75C757.745 1676.46 747.701 1654.07 740.728 1628.35C729.054 1585.52 713.438 1546.21 693.404 1508.37C677.217 1477.78 659.564 1448.85 639.071 1418.75C629.993 1405.25 618.323 1390.89 605.215 1374.24C575.408 1336.42 533.588 1294.68 482.637 1251.04C422.512 1199.7 362.93 1148.57 300.884 1100.4C217.106 1035.46 105.33 1009.79 29.1677 1077.7Z" stroke="url(#paint9_linear_2404_2930)" stroke-opacity="0.2" stroke-width="3"/>
<path d="M20.4686 1062.12C-69.889 1142.71 -29.1163 1290.26 12.8473 1385.27C64.6079 1502.35 131.662 1618.21 134.651 1749.41C137.804 1887.84 88.0605 2067.82 140.34 2202.66C177.331 2297.81 273.873 2374.98 375.221 2386.56C428.061 2392.6 481.302 2370.36 529.53 2351.09C590.686 2326.5 691.167 2351.87 737.027 2304.99C811.273 2229.08 841.617 2130.87 860.605 2036.6C878.6 1947.31 874.695 1860.05 848.176 1779.84C838.479 1750.69 825.559 1723.72 812.127 1696.27C801.228 1673.93 790.516 1651.18 780.867 1626.57C764.313 1584.31 742.23 1545.82 714.161 1508.91C691.739 1479.58 667.68 1452.19 641.711 1424.15C630.236 1411.79 616.186 1398.43 600.557 1382.77C566.513 1348.57 521.501 1308.73 469.296 1263.68C411 1213.68 352.469 1159.55 291.569 1102.6C215.177 1031.27 103.285 988.034 20.4686 1062.12Z" stroke="url(#paint10_linear_2404_2930)" stroke-opacity="0.2" stroke-width="3"/>
<path d="M11.6459 1046.39C-82.9813 1130.88 -40.1798 1285.46 3.8207 1384.94C58.0655 1507.55 128.318 1628.88 131.304 1766.3C134.561 1911.26 72.9228 2083.79 127.731 2225.01C166.323 2324.73 267.582 2399.04 373.822 2411.19C423.308 2416.84 473.241 2403.71 519.888 2388.37C581.995 2367.85 662.039 2365.11 710.514 2321.37C791.075 2248.44 837.886 2151.12 869.116 2052.58C898.542 1959.93 904.75 1868.44 885.392 1783.81C878.279 1753.12 867.727 1724.01 855.015 1695.23C844.647 1671.95 833.284 1648.7 820.975 1625.06C799.508 1583.66 770.883 1545.41 734.87 1509.86C706.369 1481.67 675.887 1455.96 644.287 1430.11C630.556 1418.91 614.14 1406.41 595.852 1391.72C557.586 1361 509.367 1323.2 455.892 1276.87C399.457 1227.94 341.369 1171.17 282.223 1105.07C212.796 1027.32 101.241 966.275 11.6459 1046.39Z" stroke="url(#paint11_linear_2404_2930)" stroke-opacity="0.2" stroke-width="3"/>
<path d="M646.943 1435.37C565.766 1383.61 415.045 1296 272.893 1107.4C209.701 1023.42 99.3361 944.531 2.82375 1030.65C-96.0571 1118.9 -51.3665 1280.5 -5.46894 1384.45C51.1203 1512.57 124.572 1639.35 127.833 1783.04C131.334 1934.55 57.6779 2099.47 114.874 2247.05C155.224 2351.22 261.184 2422.81 372.177 2435.5C483.17 2448.18 596.353 2407.02 683.491 2337.25C770.645 2267.34 833.52 2170.73 877.272 2067.96C965.982 1859.3 939.221 1653.59 755.519 1510.09C720.939 1483.06 684.035 1459.01 646.943 1435.37Z" stroke="url(#paint12_linear_2404_2930)" stroke-opacity="0.2" stroke-width="3"/>
</g>
<defs>
<filter id="filter0_f_2404_2930" x="1322.28" y="1239" width="365.705" height="450.175" filterUnits="userSpaceOnUse" color-interpolation-filters="sRGB">
<feFlood flood-opacity="0" result="BackgroundImageFix"/>
<feBlend mode="normal" in="SourceGraphic" in2="BackgroundImageFix" result="shape"/>
<feGaussianBlur stdDeviation="2" result="effect1_foregroundBlur_2404_2930"/>
</filter>
<filter id="filter1_f_2404_2930" x="1320.85" y="1226.41" width="385.705" height="470.175" filterUnits="userSpaceOnUse" color-interpolation-filters="sRGB">
<feFlood flood-opacity="0" result="BackgroundImageFix"/>
<feBlend mode="normal" in="SourceGraphic" in2="BackgroundImageFix" result="shape"/>
<feGaussianBlur stdDeviation="7" result="effect1_foregroundBlur_2404_2930"/>
</filter>
<filter id="filter2_f_2404_2930" x="1323.79" y="1199.25" width="427.039" height="510.273" filterUnits="userSpaceOnUse" color-interpolation-filters="sRGB">
<feFlood flood-opacity="0" result="BackgroundImageFix"/>
<feBlend mode="normal" in="SourceGraphic" in2="BackgroundImageFix" result="shape"/>
<feGaussianBlur stdDeviation="17" result="effect1_foregroundBlur_2404_2930"/>
</filter>
<filter id="filter3_f_2404_2930" x="1355.26" y="1137.98" width="505.705" height="590.175" filterUnits="userSpaceOnUse" color-interpolation-filters="sRGB">
<feFlood flood-opacity="0" result="BackgroundImageFix"/>
<feBlend mode="normal" in="SourceGraphic" in2="BackgroundImageFix" result="shape"/>
<feGaussianBlur stdDeviation="37" result="effect1_foregroundBlur_2404_2930"/>
</filter>
<filter id="filter4_f_2404_2930" x="1398.58" y="1086.38" width="610.734" height="635.633" filterUnits="userSpaceOnUse" color-interpolation-filters="sRGB">
<feFlood flood-opacity="0" result="BackgroundImageFix"/>
<feBlend mode="normal" in="SourceGraphic" in2="BackgroundImageFix" result="shape"/>
<feGaussianBlur stdDeviation="65" result="effect1_foregroundBlur_2404_2930"/>
</filter>
<filter id="filter5_f_2404_2930" x="741.517" y="1324.27" width="721.095" height="632.464" filterUnits="userSpaceOnUse" color-interpolation-filters="sRGB">
<feFlood flood-opacity="0" result="BackgroundImageFix"/>
<feBlend mode="normal" in="SourceGraphic" in2="BackgroundImageFix" result="shape"/>
<feGaussianBlur stdDeviation="2" result="effect1_foregroundBlur_2404_2930"/>
</filter>
<filter id="filter6_f_2404_2930" x="718.967" y="1193.05" width="865.703" height="771.932" filterUnits="userSpaceOnUse" color-interpolation-filters="sRGB">
<feFlood flood-opacity="0" result="BackgroundImageFix"/>
<feBlend mode="normal" in="SourceGraphic" in2="BackgroundImageFix" result="shape"/>
<feGaussianBlur stdDeviation="7" result="effect1_foregroundBlur_2404_2930"/>
</filter>
<filter id="filter7_f_2404_2930" x="671.448" y="1025.16" width="1071.39" height="945.294" filterUnits="userSpaceOnUse" color-interpolation-filters="sRGB">
<feFlood flood-opacity="0" result="BackgroundImageFix"/>
<feBlend mode="normal" in="SourceGraphic" in2="BackgroundImageFix" result="shape"/>
<feGaussianBlur stdDeviation="10" result="effect1_foregroundBlur_2404_2930"/>
</filter>
<filter id="filter8_f_2404_2930" x="584.951" y="880.33" width="1099.03" height="1031.06" filterUnits="userSpaceOnUse" color-interpolation-filters="sRGB">
<feFlood flood-opacity="0" result="BackgroundImageFix"/>
<feBlend mode="normal" in="SourceGraphic" in2="BackgroundImageFix" result="shape"/>
<feGaussianBlur stdDeviation="27" result="effect1_foregroundBlur_2404_2930"/>
</filter>
<filter id="filter9_f_2404_2930" x="456.485" y="657.479" width="1288.89" height="1216.35" filterUnits="userSpaceOnUse" color-interpolation-filters="sRGB">
<feFlood flood-opacity="0" result="BackgroundImageFix"/>
<feBlend mode="normal" in="SourceGraphic" in2="BackgroundImageFix" result="shape"/>
<feGaussianBlur stdDeviation="67" result="effect1_foregroundBlur_2404_2930"/>
</filter>
<filter id="filter10_f_2404_2930" x="722.038" y="902.24" width="1044.66" height="1030.2" filterUnits="userSpaceOnUse" color-interpolation-filters="sRGB">
<feFlood flood-opacity="0" result="BackgroundImageFix"/>
<feBlend mode="normal" in="SourceGraphic" in2="BackgroundImageFix" result="shape"/>
<feGaussianBlur stdDeviation="31" result="effect1_foregroundBlur_2404_2930"/>
</filter>
<filter id="filter11_f_2404_2930" x="568.987" y="1390.56" width="325.137" height="496.274" filterUnits="userSpaceOnUse" color-interpolation-filters="sRGB">
<feFlood flood-opacity="0" result="BackgroundImageFix"/>
<feBlend mode="normal" in="SourceGraphic" in2="BackgroundImageFix" result="shape"/>
<feGaussianBlur stdDeviation="3.7691" result="effect1_foregroundBlur_2404_2930"/>
</filter>
<filter id="filter12_f_2404_2930" x="564.305" y="1387.82" width="318.522" height="546.406" filterUnits="userSpaceOnUse" color-interpolation-filters="sRGB">
<feFlood flood-opacity="0" result="BackgroundImageFix"/>
<feBlend mode="normal" in="SourceGraphic" in2="BackgroundImageFix" result="shape"/>
<feGaussianBlur stdDeviation="3.82675" result="effect1_foregroundBlur_2404_2930"/>
</filter>
<filter id="filter13_f_2404_2930" x="519.949" y="1374.91" width="377.576" height="589.518" filterUnits="userSpaceOnUse" color-interpolation-filters="sRGB">
<feFlood flood-opacity="0" result="BackgroundImageFix"/>
<feBlend mode="normal" in="SourceGraphic" in2="BackgroundImageFix" result="shape"/>
<feGaussianBlur stdDeviation="9.29354" result="effect1_foregroundBlur_2404_2930"/>
</filter>
<filter id="filter14_f_2404_2930" x="408.809" y="1333.95" width="487.351" height="738.787" filterUnits="userSpaceOnUse" color-interpolation-filters="sRGB">
<feFlood flood-opacity="0" result="BackgroundImageFix"/>
<feBlend mode="normal" in="SourceGraphic" in2="BackgroundImageFix" result="shape"/>
<feGaussianBlur stdDeviation="20.2271" result="effect1_foregroundBlur_2404_2930"/>
</filter>
<filter id="filter15_f_2404_2930" x="354.816" y="1221.36" width="539.84" height="888.179" filterUnits="userSpaceOnUse" color-interpolation-filters="sRGB">
<feFlood flood-opacity="0" result="BackgroundImageFix"/>
<feBlend mode="normal" in="SourceGraphic" in2="BackgroundImageFix" result="shape"/>
<feGaussianBlur stdDeviation="22.1564" result="effect1_foregroundBlur_2404_2930"/>
</filter>
<filter id="filter16_f_2404_2930" x="1149.62" y="1279.99" width="492.059" height="270.34" filterUnits="userSpaceOnUse" color-interpolation-filters="sRGB">
<feFlood flood-opacity="0" result="BackgroundImageFix"/>
<feBlend mode="normal" in="SourceGraphic" in2="BackgroundImageFix" result="shape"/>
<feGaussianBlur stdDeviation="3.7691" result="effect1_foregroundBlur_2404_2930"/>
</filter>
<filter id="filter17_f_2404_2930" x="1096.14" y="1281.21" width="556.462" height="266.212" filterUnits="userSpaceOnUse" color-interpolation-filters="sRGB">
<feFlood flood-opacity="0" result="BackgroundImageFix"/>
<feBlend mode="normal" in="SourceGraphic" in2="BackgroundImageFix" result="shape"/>
<feGaussianBlur stdDeviation="3.82675" result="effect1_foregroundBlur_2404_2930"/>
</filter>
<filter id="filter18_f_2404_2930" x="1058.8" y="1207.17" width="594.765" height="350.586" filterUnits="userSpaceOnUse" color-interpolation-filters="sRGB">
<feFlood flood-opacity="0" result="BackgroundImageFix"/>
<feBlend mode="normal" in="SourceGraphic" in2="BackgroundImageFix" result="shape"/>
<feGaussianBlur stdDeviation="9.29354" result="effect1_foregroundBlur_2404_2930"/>
</filter>
<filter id="filter19_f_2404_2930" x="927.394" y="1146.42" width="752.794" height="417.207" filterUnits="userSpaceOnUse" color-interpolation-filters="sRGB">
<feFlood flood-opacity="0" result="BackgroundImageFix"/>
<feBlend mode="normal" in="SourceGraphic" in2="BackgroundImageFix" result="shape"/>
<feGaussianBlur stdDeviation="20.2271" result="effect1_foregroundBlur_2404_2930"/>
</filter>
<filter id="filter20_f_2404_2930" x="877.491" y="1069.09" width="868.965" height="476.904" filterUnits="userSpaceOnUse" color-interpolation-filters="sRGB">
<feFlood flood-opacity="0" result="BackgroundImageFix"/>
<feBlend mode="normal" in="SourceGraphic" in2="BackgroundImageFix" result="shape"/>
<feGaussianBlur stdDeviation="22.1564" result="effect1_foregroundBlur_2404_2930"/>
</filter>
<linearGradient id="paint0_linear_2404_2930" x1="2340.86" y1="1641.41" x2="2340.86" y2="1031.19" gradientUnits="userSpaceOnUse">
<stop stop-color="white"/>
<stop offset="1" stop-color="white" stop-opacity="0"/>
</linearGradient>
<linearGradient id="paint1_linear_2404_2930" x1="889.211" y1="1882.2" x2="1334.38" y2="1220.38" gradientUnits="userSpaceOnUse">
<stop stop-color="#C4C4C4"/>
<stop offset="1" stop-color="#C4C4C4" stop-opacity="0"/>
</linearGradient>
<linearGradient id="paint2_linear_2404_2930" x1="883.213" y1="1562.04" x2="748.987" y2="1664.06" gradientUnits="userSpaceOnUse">
<stop stop-color="#C4C4C4"/>
<stop offset="1" stop-color="#C4C4C4" stop-opacity="0"/>
</linearGradient>
<linearGradient id="paint3_linear_2404_2930" x1="1535.76" y1="1533.12" x2="1394.81" y2="1440.62" gradientUnits="userSpaceOnUse">
<stop stop-color="#C4C4C4"/>
<stop offset="1" stop-color="#C4C4C4" stop-opacity="0"/>
</linearGradient>
<linearGradient id="paint4_linear_2404_2930" x1="539.335" y1="1110.39" x2="409.866" y2="2243.1" gradientUnits="userSpaceOnUse">
<stop stop-color="#B1EFD7"/>
<stop offset="1" stop-color="#11562F"/>
</linearGradient>
<linearGradient id="paint5_linear_2404_2930" x1="522.838" y1="1108.36" x2="390.588" y2="2265.4" gradientUnits="userSpaceOnUse">
<stop stop-color="#B1EFD7"/>
<stop offset="1" stop-color="#11562F"/>
</linearGradient>
<linearGradient id="paint6_linear_2404_2930" x1="507.323" y1="1103.41" x2="371.934" y2="2287.91" gradientUnits="userSpaceOnUse">
<stop stop-color="#B1EFD7"/>
<stop offset="1" stop-color="#11562F"/>
</linearGradient>
<linearGradient id="paint7_linear_2404_2930" x1="493.655" y1="1095.91" x2="354.816" y2="2310.59" gradientUnits="userSpaceOnUse">
<stop stop-color="#B1EFD7"/>
<stop offset="1" stop-color="#11562F"/>
</linearGradient>
<linearGradient id="paint8_linear_2404_2930" x1="482.827" y1="1086.31" x2="340.265" y2="2333.57" gradientUnits="userSpaceOnUse">
<stop stop-color="#B1EFD7"/>
<stop offset="1" stop-color="#11562F"/>
</linearGradient>
<linearGradient id="paint9_linear_2404_2930" x1="476.244" y1="1075.12" x2="329.74" y2="2356.86" gradientUnits="userSpaceOnUse">
<stop stop-color="#B1EFD7"/>
<stop offset="1" stop-color="#11562F"/>
</linearGradient>
<linearGradient id="paint10_linear_2404_2930" x1="476.961" y1="1063.24" x2="326.343" y2="2380.98" gradientUnits="userSpaceOnUse">
<stop stop-color="#B1EFD7"/>
<stop offset="1" stop-color="#11562F"/>
</linearGradient>
<linearGradient id="paint11_linear_2404_2930" x1="481.971" y1="1050.75" x2="327.083" y2="2405.84" gradientUnits="userSpaceOnUse">
<stop stop-color="#B1EFD7"/>
<stop offset="1" stop-color="#11562F"/>
</linearGradient>
<linearGradient id="paint12_linear_2404_2930" x1="489.773" y1="1037.79" x2="330.557" y2="2430.74" gradientUnits="userSpaceOnUse">
<stop stop-color="#B1EFD7"/>
<stop offset="1" stop-color="#11562F"/>
</linearGradient>
</defs>
</svg>
