<svg width="1031" height="1516" viewBox="0 0 1031 1516" fill="none" xmlns="http://www.w3.org/2000/svg">
<g opacity="0.76">
<path d="M555.354 728.161C540.381 711.721 532.924 691.467 540.278 660.586C565.218 556.375 638.294 467.154 628.642 354.598C623.634 296.813 593.756 247.231 549.838 210.206C342.073 35.6369 136.388 122.871 73.1421 179.369C8.32254 237.245 37.5891 342.979 67.7668 411.006C104.918 494.84 152.917 577.932 155.06 671.927C157.311 771.174 179.287 996.448 216.817 1093.07C243.296 1161.24 312.036 1254.92 384.727 1263.23C457.417 1271.54 532.122 1197.8 589.181 1152.06C646.24 1106.33 869.502 1298.95 898.164 1231.56C936.704 1140.94 863.531 1034.01 810.716 965.808C757.157 896.667 694.36 835.25 625.62 781.226C600.139 761.32 572.712 747.28 555.354 728.161Z" stroke="url(#paint0_linear_215_801)" stroke-opacity="0.2" stroke-width="3"/>
<path d="M64.4576 163.648C-4.61557 225.287 26.6798 338.05 58.7546 410.542C98.25 499.884 149.588 588.456 151.727 688.682C154.082 794.455 164.18 1012.14 204.238 1115.14C232.459 1187.9 305.775 1278.7 383.359 1287.57C452.694 1295.5 523.597 1230.24 579.43 1189.04C636.96 1146.62 839.614 1311.4 871.543 1247.64C915.622 1159.35 860.422 1053.77 819.273 981.372C778.016 908.681 724.617 843.098 662.882 784.777C640.001 763.185 614.943 747.009 598.304 726.555C584.002 709.201 576.158 688.62 580.572 658.677C587.286 613.561 599.928 571.105 610.828 529.016C620.171 493.122 628.083 457.348 629.118 419.796C629.642 401.588 627.961 382.844 624.139 363.005C613.587 309.118 581.964 261.178 536.496 222.842C468.915 166.119 401.76 131.677 338.591 114.402C220.233 81.8974 113.353 119.955 64.4576 163.648Z" stroke="url(#paint1_linear_215_801)" stroke-opacity="0.2" stroke-width="3"/>
<path d="M55.6351 147.912C-17.6918 213.313 15.4927 333.089 49.6044 410.062C91.584 504.929 145.981 598.948 148.396 705.437C150.854 817.736 149.058 1027.97 191.505 1137.34C221.483 1214.55 299.5 1302.63 381.697 1312.02C447.817 1319.58 514.934 1262.67 569.384 1226.13C627.526 1187.03 809.694 1324.12 844.487 1263.8C894.245 1177.87 856.723 1073.74 827.381 997.168C798.13 921.034 754.564 851.195 699.835 788.576C679.678 765.454 656.988 747.141 640.944 725.198C627.329 706.789 618.974 685.725 620.432 656.86C622.685 612.367 628.022 570.634 631.29 529.655C634.118 494.999 635.592 461.038 631.463 425.304C629.434 408.361 625.233 390.604 619.186 371.644C603.494 321.843 569.582 275.34 522.845 235.727C457.248 180.221 392.066 140.907 329.121 116.719C219.806 74.4846 111.308 98.1955 55.6351 147.912Z" stroke="url(#paint2_linear_215_801)" stroke-opacity="0.2" stroke-width="3"/>
<path d="M46.8138 132.176C-30.7827 201.478 4.30678 328.129 40.2996 409.707C84.7634 510.097 142.343 609.72 144.77 722.299C147.472 841.141 133.658 1043.77 178.493 1159.5C210.228 1241.16 292.807 1326.5 379.896 1336.46C442.662 1343.63 506.255 1295.24 559.34 1263.22C618.076 1227.59 779.792 1336.71 817.572 1279.99C873.15 1196.41 853.15 1093.86 835.645 1012.84C818.54 933.28 784.668 859.167 736.96 792.111C719.387 767.444 699.206 747.01 683.741 723.717C670.813 704.254 661.931 682.846 660.573 655.076C658.365 611.205 656.397 570.195 652.048 530.187C648.346 496.909 643.537 464.637 634.104 430.704C629.679 414.904 622.925 398.412 614.686 380.052C593.994 334.352 557.793 289.287 509.645 248.38C445.862 194.356 382.761 150.465 319.964 118.788C219.236 68.3299 109.265 76.4361 46.8138 132.176Z" stroke="url(#paint3_linear_215_801)" stroke-opacity="0.2" stroke-width="3"/>
<path d="M37.991 116.439C-43.8593 189.504 -6.88071 323.168 31.149 409.227C77.9412 515.265 138.736 620.212 141.439 739.054C144.245 864.422 118.536 1059.6 165.915 1181.57C199.392 1267.82 286.688 1350.3 378.514 1360.94C437.924 1367.73 498.119 1328.02 549.59 1300.2C609.045 1268.19 750.292 1349.48 790.968 1295.92C852.644 1214.75 849.73 1113.87 844.204 1028.41C838.933 945.666 814.91 867.156 774.208 795.802C759.359 769.605 741.546 747.035 726.661 722.392C714.403 702.014 705.01 680.123 700.713 653.291C693.78 609.872 684.893 569.912 672.788 530.858C662.851 498.85 651.481 468.236 636.572 436.368C629.75 421.709 620.461 406.344 609.857 388.846C584.459 347.141 545.534 303.605 496.117 261.42C434.163 208.738 373.063 160.969 310.462 121.384C218.429 62.9978 107.376 54.5529 37.991 116.439Z" stroke="url(#paint4_linear_215_801)" stroke-opacity="0.2" stroke-width="3"/>
<path d="M29.1682 100.703C-56.9357 177.53 -18.068 318.207 21.9985 408.748C71.2749 520.309 135.269 630.721 137.983 755.653C140.893 887.547 103.167 1075.13 153.058 1203.61C188.292 1294.31 280.149 1374.05 376.868 1385.25C432.923 1391.66 489.719 1360.62 539.56 1337.15C599.874 1308.78 720.668 1362.1 763.928 1311.95C831.827 1233.33 845.596 1133.93 852.327 1044.06C858.751 958.128 844.717 875.236 811.053 799.305C798.771 771.703 783.483 746.872 769.332 720.755C757.746 699.462 747.701 677.072 740.728 651.35C729.054 608.522 713.438 569.209 693.405 531.374C677.218 500.775 659.565 471.851 639.072 441.751C629.994 428.252 618.323 413.889 605.215 397.238C575.409 359.418 533.588 317.676 482.637 274.041C422.512 222.701 362.93 171.565 300.884 123.404C217.107 58.4567 105.331 32.7936 29.1682 100.703Z" stroke="url(#paint5_linear_215_801)" stroke-opacity="0.2" stroke-width="3"/>
<path d="M20.4691 85.1218C-69.8885 165.712 -29.1158 313.263 12.8478 408.269C64.6084 525.354 131.662 641.213 134.652 772.408C137.805 910.844 88.061 1090.82 140.341 1225.66C177.332 1320.81 273.874 1397.98 375.221 1409.56C428.062 1415.6 481.302 1393.36 529.53 1374.09C590.687 1349.5 691.168 1374.87 737.027 1327.99C811.273 1252.08 841.617 1153.87 860.606 1059.6C878.6 970.31 874.695 883.053 848.176 802.841C838.479 773.692 825.559 746.724 812.128 719.273C801.228 696.927 790.517 674.177 780.868 649.566C764.313 607.313 742.231 568.818 714.161 531.905C691.74 502.577 667.68 475.186 641.711 447.151C630.237 434.794 616.186 421.434 600.558 405.769C566.513 371.572 521.501 331.731 469.297 286.678C411.001 236.68 352.469 182.548 291.57 125.597C215.177 54.2709 103.286 11.0342 20.4691 85.1218Z" stroke="url(#paint6_linear_215_801)" stroke-opacity="0.2" stroke-width="3"/>
<path d="M11.6464 69.3852C-82.9808 153.877 -40.1793 308.458 3.82119 407.945C58.066 530.554 128.319 651.877 131.304 789.303C134.561 934.265 72.9233 1106.79 127.731 1248.01C166.324 1347.73 267.583 1422.04 373.823 1434.19C423.309 1439.84 473.242 1426.71 519.888 1411.37C581.995 1390.85 662.039 1388.11 710.515 1344.37C791.075 1271.44 837.886 1174.12 869.117 1075.58C898.542 982.927 904.75 891.444 885.392 806.811C878.279 776.117 867.728 747.013 855.015 718.228C844.647 694.95 833.284 671.701 820.975 648.06C799.508 606.662 770.884 568.411 734.87 532.856C706.369 504.674 675.888 478.956 644.287 453.111C630.556 441.911 614.141 429.414 595.853 414.719C557.586 384.005 509.367 346.205 455.892 299.874C399.458 250.938 341.37 194.167 282.223 128.069C212.797 50.3168 101.241 -10.7252 11.6464 69.3852Z" stroke="url(#paint7_linear_215_801)" stroke-opacity="0.2" stroke-width="3"/>
<path d="M646.944 458.371C565.766 406.607 415.046 318.997 272.894 130.402C209.702 46.4227 99.3366 -32.4685 2.82424 53.6488C-96.0566 141.903 -51.3661 303.497 -5.46845 407.45C51.1207 535.566 124.573 662.353 127.834 806.041C131.334 957.546 57.6784 1122.47 114.874 1270.05C155.224 1374.22 261.184 1445.81 372.177 1458.5C483.171 1471.18 596.353 1430.02 683.492 1360.25C770.646 1290.34 833.521 1193.73 877.273 1090.96C965.983 882.299 939.222 676.587 755.52 533.092C720.94 506.056 684.036 482.012 646.944 458.371Z" stroke="url(#paint8_linear_215_801)" stroke-opacity="0.2" stroke-width="3"/>
</g>
<defs>
<linearGradient id="paint0_linear_215_801" x1="539.336" y1="133.387" x2="409.866" y2="1266.1" gradientUnits="userSpaceOnUse">
<stop stop-color="#B1EFD7"/>
<stop offset="1" stop-color="#11562F"/>
</linearGradient>
<linearGradient id="paint1_linear_215_801" x1="522.839" y1="131.359" x2="390.589" y2="1288.4" gradientUnits="userSpaceOnUse">
<stop stop-color="#B1EFD7"/>
<stop offset="1" stop-color="#11562F"/>
</linearGradient>
<linearGradient id="paint2_linear_215_801" x1="507.323" y1="126.412" x2="371.935" y2="1310.91" gradientUnits="userSpaceOnUse">
<stop stop-color="#B1EFD7"/>
<stop offset="1" stop-color="#11562F"/>
</linearGradient>
<linearGradient id="paint3_linear_215_801" x1="493.656" y1="118.907" x2="354.817" y2="1333.59" gradientUnits="userSpaceOnUse">
<stop stop-color="#B1EFD7"/>
<stop offset="1" stop-color="#11562F"/>
</linearGradient>
<linearGradient id="paint4_linear_215_801" x1="482.828" y1="109.311" x2="340.266" y2="1356.57" gradientUnits="userSpaceOnUse">
<stop stop-color="#B1EFD7"/>
<stop offset="1" stop-color="#11562F"/>
</linearGradient>
<linearGradient id="paint5_linear_215_801" x1="476.245" y1="98.1165" x2="329.74" y2="1379.86" gradientUnits="userSpaceOnUse">
<stop stop-color="#B1EFD7"/>
<stop offset="1" stop-color="#11562F"/>
</linearGradient>
<linearGradient id="paint6_linear_215_801" x1="476.961" y1="86.2394" x2="326.343" y2="1403.98" gradientUnits="userSpaceOnUse">
<stop stop-color="#B1EFD7"/>
<stop offset="1" stop-color="#11562F"/>
</linearGradient>
<linearGradient id="paint7_linear_215_801" x1="481.972" y1="73.748" x2="327.084" y2="1428.84" gradientUnits="userSpaceOnUse">
<stop stop-color="#B1EFD7"/>
<stop offset="1" stop-color="#11562F"/>
</linearGradient>
<linearGradient id="paint8_linear_215_801" x1="489.773" y1="60.7871" x2="330.558" y2="1453.74" gradientUnits="userSpaceOnUse">
<stop stop-color="#B1EFD7"/>
<stop offset="1" stop-color="#11562F"/>
</linearGradient>
</defs>
</svg>
