<svg width="244" height="78" viewBox="0 0 244 78" fill="none" xmlns="http://www.w3.org/2000/svg">
<g filter="url(#filter0_dddd_144_2893)">
<path fill-rule="evenodd" clip-rule="evenodd" d="M20 4H200H212H224V46L218 52L212 58H20V4Z" fill="#11562F"/>
</g>
<path d="M53.1643 37.192C52.2683 37.192 51.4096 37.0747 50.5883 36.84C49.7669 36.5947 49.1056 36.28 48.6043 35.896L49.4843 33.944C49.9643 34.2853 50.5296 34.568 51.1803 34.792C51.8416 35.0053 52.5083 35.112 53.1803 35.112C53.6923 35.112 54.1029 35.064 54.4123 34.968C54.7323 34.8613 54.9669 34.7173 55.1163 34.536C55.2656 34.3547 55.3403 34.1467 55.3403 33.912C55.3403 33.6133 55.2229 33.3787 54.9883 33.208C54.7536 33.0267 54.4443 32.8827 54.0603 32.776C53.6763 32.6587 53.2496 32.552 52.7803 32.456C52.3216 32.3493 51.8576 32.2213 51.3883 32.072C50.9296 31.9227 50.5083 31.7307 50.1243 31.496C49.7403 31.2613 49.4256 30.952 49.1803 30.568C48.9456 30.184 48.8283 29.6933 48.8283 29.096C48.8283 28.456 48.9989 27.8747 49.3403 27.352C49.6923 26.8187 50.2149 26.3973 50.9083 26.088C51.6123 25.768 52.4923 25.608 53.5483 25.608C54.2523 25.608 54.9456 25.6933 55.6283 25.864C56.3109 26.024 56.9136 26.2693 57.4363 26.6L56.6363 28.568C56.1136 28.2693 55.5909 28.0507 55.0683 27.912C54.5456 27.7627 54.0336 27.688 53.5323 27.688C53.0309 27.688 52.6203 27.7467 52.3003 27.864C51.9803 27.9813 51.7509 28.136 51.6123 28.328C51.4736 28.5093 51.4043 28.7227 51.4043 28.968C51.4043 29.256 51.5216 29.4907 51.7563 29.672C51.9909 29.8427 52.3003 29.9813 52.6843 30.088C53.0683 30.1947 53.4896 30.3013 53.9483 30.408C54.4176 30.5147 54.8816 30.6373 55.3403 30.776C55.8096 30.9147 56.2363 31.1013 56.6203 31.336C57.0043 31.5707 57.3136 31.88 57.5483 32.264C57.7936 32.648 57.9163 33.1333 57.9163 33.72C57.9163 34.3493 57.7403 34.9253 57.3883 35.448C57.0363 35.9707 56.5083 36.392 55.8043 36.712C55.1109 37.032 54.2309 37.192 53.1643 37.192ZM63.0314 37.128C62.018 37.128 61.2287 36.872 60.6634 36.36C60.098 35.8373 59.8154 35.064 59.8154 34.04V26.488H62.3114V34.008C62.3114 34.3707 62.4074 34.6533 62.5994 34.856C62.7914 35.048 63.0527 35.144 63.3834 35.144C63.778 35.144 64.114 35.0373 64.3914 34.824L65.0634 36.584C64.8074 36.7653 64.498 36.904 64.1354 37C63.7834 37.0853 63.4154 37.128 63.0314 37.128ZM58.4874 30.504V28.584H64.4554V30.504H58.4874ZM71.7445 37V35.32L71.5845 34.952V31.944C71.5845 31.4107 71.4192 30.9947 71.0885 30.696C70.7685 30.3973 70.2725 30.248 69.6005 30.248C69.1418 30.248 68.6885 30.3227 68.2405 30.472C67.8032 30.6107 67.4298 30.8027 67.1205 31.048L66.2245 29.304C66.6938 28.9733 67.2592 28.7173 67.9205 28.536C68.5818 28.3547 69.2538 28.264 69.9365 28.264C71.2485 28.264 72.2672 28.5733 72.9925 29.192C73.7178 29.8107 74.0805 30.776 74.0805 32.088V37H71.7445ZM69.1205 37.128C68.4485 37.128 67.8725 37.016 67.3925 36.792C66.9125 36.5573 66.5445 36.2427 66.2885 35.848C66.0325 35.4533 65.9045 35.0107 65.9045 34.52C65.9045 34.008 66.0272 33.56 66.2725 33.176C66.5285 32.792 66.9285 32.4933 67.4725 32.28C68.0165 32.056 68.7258 31.944 69.6005 31.944H71.8885V33.4H69.8725C69.2858 33.4 68.8805 33.496 68.6565 33.688C68.4432 33.88 68.3365 34.12 68.3365 34.408C68.3365 34.728 68.4592 34.984 68.7045 35.176C68.9605 35.3573 69.3072 35.448 69.7445 35.448C70.1605 35.448 70.5338 35.352 70.8645 35.16C71.1952 34.9573 71.4352 34.664 71.5845 34.28L71.9685 35.432C71.7872 35.9867 71.4565 36.408 70.9765 36.696C70.4965 36.984 69.8778 37.128 69.1205 37.128ZM76.3395 37V28.392H78.7235V30.824L78.3875 30.12C78.6435 29.512 79.0542 29.0533 79.6195 28.744C80.1848 28.424 80.8728 28.264 81.6835 28.264V30.568C81.5768 30.5573 81.4808 30.552 81.3955 30.552C81.3102 30.5413 81.2195 30.536 81.1235 30.536C80.4408 30.536 79.8862 30.7333 79.4595 31.128C79.0435 31.512 78.8355 32.1147 78.8355 32.936V37H76.3395ZM86.9845 37.128C85.9712 37.128 85.1818 36.872 84.6165 36.36C84.0512 35.8373 83.7685 35.064 83.7685 34.04V26.488H86.2645V34.008C86.2645 34.3707 86.3605 34.6533 86.5525 34.856C86.7445 35.048 87.0058 35.144 87.3365 35.144C87.7312 35.144 88.0672 35.0373 88.3445 34.824L89.0165 36.584C88.7605 36.7653 88.4512 36.904 88.0885 37C87.7365 37.0853 87.3685 37.128 86.9845 37.128ZM82.4405 30.504V28.584H88.4085V30.504H82.4405ZM96.0369 40.232C95.5889 40.232 95.1462 40.1627 94.7089 40.024C94.2715 39.8853 93.9142 39.6933 93.6369 39.448L94.5489 37.672C94.7409 37.8427 94.9595 37.976 95.2049 38.072C95.4609 38.168 95.7115 38.216 95.9569 38.216C96.3089 38.216 96.5862 38.1307 96.7889 37.96C97.0022 37.8 97.1942 37.528 97.3649 37.144L97.8129 36.088L98.0049 35.816L101.093 28.392H103.493L99.6049 37.528C99.3275 38.2213 99.0075 38.7653 98.6449 39.16C98.2929 39.5547 97.8982 39.832 97.4609 39.992C97.0342 40.152 96.5595 40.232 96.0369 40.232ZM97.5089 37.336L93.6689 28.392H96.2449L99.2209 35.592L97.5089 37.336ZM108.373 37.128C107.456 37.128 106.64 36.936 105.925 36.552C105.221 36.168 104.661 35.6453 104.245 34.984C103.84 34.312 103.637 33.5493 103.637 32.696C103.637 31.832 103.84 31.0693 104.245 30.408C104.661 29.736 105.221 29.2133 105.925 28.84C106.64 28.456 107.456 28.264 108.373 28.264C109.28 28.264 110.09 28.456 110.805 28.84C111.52 29.2133 112.08 29.7307 112.485 30.392C112.89 31.0533 113.093 31.8213 113.093 32.696C113.093 33.5493 112.89 34.312 112.485 34.984C112.08 35.6453 111.52 36.168 110.805 36.552C110.09 36.936 109.28 37.128 108.373 37.128ZM108.373 35.08C108.789 35.08 109.162 34.984 109.493 34.792C109.824 34.6 110.085 34.328 110.277 33.976C110.469 33.6133 110.565 33.1867 110.565 32.696C110.565 32.1947 110.469 31.768 110.277 31.416C110.085 31.064 109.824 30.792 109.493 30.6C109.162 30.408 108.789 30.312 108.373 30.312C107.957 30.312 107.584 30.408 107.253 30.6C106.922 30.792 106.656 31.064 106.453 31.416C106.261 31.768 106.165 32.1947 106.165 32.696C106.165 33.1867 106.261 33.6133 106.453 33.976C106.656 34.328 106.922 34.6 107.253 34.792C107.584 34.984 107.957 35.08 108.373 35.08ZM118.393 37.128C117.679 37.128 117.039 36.9893 116.473 36.712C115.919 36.4347 115.487 36.0133 115.177 35.448C114.868 34.872 114.713 34.1413 114.713 33.256V28.392H117.209V32.888C117.209 33.6027 117.359 34.1307 117.657 34.472C117.967 34.8027 118.399 34.968 118.953 34.968C119.337 34.968 119.679 34.888 119.977 34.728C120.276 34.5573 120.511 34.3013 120.681 33.96C120.852 33.608 120.937 33.1707 120.937 32.648V28.392H123.433V37H121.065V34.632L121.497 35.32C121.209 35.9173 120.783 36.3707 120.217 36.68C119.663 36.9787 119.055 37.128 118.393 37.128ZM125.746 37V28.392H128.13V30.824L127.794 30.12C128.05 29.512 128.46 29.0533 129.026 28.744C129.591 28.424 130.279 28.264 131.09 28.264V30.568C130.983 30.5573 130.887 30.552 130.802 30.552C130.716 30.5413 130.626 30.536 130.53 30.536C129.847 30.536 129.292 30.7333 128.866 31.128C128.45 31.512 128.242 32.1147 128.242 32.936V37H125.746ZM142.256 37.128C141.53 37.128 140.896 36.968 140.352 36.648C139.808 36.328 139.381 35.8427 139.072 35.192C138.773 34.5307 138.624 33.6987 138.624 32.696C138.624 31.6827 138.768 30.8507 139.056 30.2C139.344 29.5493 139.76 29.064 140.304 28.744C140.848 28.424 141.498 28.264 142.256 28.264C143.066 28.264 143.792 28.4507 144.432 28.824C145.082 29.1867 145.594 29.6987 145.968 30.36C146.352 31.0213 146.544 31.8 146.544 32.696C146.544 33.6027 146.352 34.3867 145.968 35.048C145.594 35.7093 145.082 36.2213 144.432 36.584C143.792 36.9467 143.066 37.128 142.256 37.128ZM137.168 40.104V28.392H139.552V30.152L139.504 32.712L139.664 35.256V40.104H137.168ZM141.824 35.08C142.24 35.08 142.608 34.984 142.928 34.792C143.258 34.6 143.52 34.328 143.712 33.976C143.914 33.6133 144.016 33.1867 144.016 32.696C144.016 32.1947 143.914 31.768 143.712 31.416C143.52 31.064 143.258 30.792 142.928 30.6C142.608 30.408 142.24 30.312 141.824 30.312C141.408 30.312 141.034 30.408 140.704 30.6C140.373 30.792 140.112 31.064 139.92 31.416C139.728 31.768 139.632 32.1947 139.632 32.696C139.632 33.1867 139.728 33.6133 139.92 33.976C140.112 34.328 140.373 34.6 140.704 34.792C141.034 34.984 141.408 35.08 141.824 35.08ZM148.215 37V28.392H150.599V30.824L150.263 30.12C150.519 29.512 150.929 29.0533 151.495 28.744C152.06 28.424 152.748 28.264 153.559 28.264V30.568C153.452 30.5573 153.356 30.552 153.271 30.552C153.185 30.5413 153.095 30.536 152.999 30.536C152.316 30.536 151.761 30.7333 151.335 31.128C150.919 31.512 150.711 32.1147 150.711 32.936V37H148.215ZM159.076 37.128C158.159 37.128 157.343 36.936 156.628 36.552C155.924 36.168 155.364 35.6453 154.948 34.984C154.543 34.312 154.34 33.5493 154.34 32.696C154.34 31.832 154.543 31.0693 154.948 30.408C155.364 29.736 155.924 29.2133 156.628 28.84C157.343 28.456 158.159 28.264 159.076 28.264C159.983 28.264 160.793 28.456 161.508 28.84C162.223 29.2133 162.783 29.7307 163.188 30.392C163.593 31.0533 163.796 31.8213 163.796 32.696C163.796 33.5493 163.593 34.312 163.188 34.984C162.783 35.6453 162.223 36.168 161.508 36.552C160.793 36.936 159.983 37.128 159.076 37.128ZM159.076 35.08C159.492 35.08 159.865 34.984 160.196 34.792C160.527 34.6 160.788 34.328 160.98 33.976C161.172 33.6133 161.268 33.1867 161.268 32.696C161.268 32.1947 161.172 31.768 160.98 31.416C160.788 31.064 160.527 30.792 160.196 30.6C159.865 30.408 159.492 30.312 159.076 30.312C158.66 30.312 158.287 30.408 157.956 30.6C157.625 30.792 157.359 31.064 157.156 31.416C156.964 31.768 156.868 32.1947 156.868 32.696C156.868 33.1867 156.964 33.6133 157.156 33.976C157.359 34.328 157.625 34.6 157.956 34.792C158.287 34.984 158.66 35.08 159.076 35.08ZM164.825 40.232C164.441 40.232 164.072 40.1893 163.72 40.104C163.368 40.0293 163.07 39.912 162.824 39.752L163.496 37.944C163.784 38.1467 164.137 38.248 164.553 38.248C164.862 38.248 165.107 38.1413 165.289 37.928C165.481 37.7253 165.577 37.416 165.577 37V28.392H168.073V36.984C168.073 37.976 167.79 38.7653 167.225 39.352C166.659 39.9387 165.859 40.232 164.825 40.232ZM166.825 27.192C166.366 27.192 165.993 27.0587 165.705 26.792C165.417 26.5253 165.273 26.1947 165.273 25.8C165.273 25.4053 165.417 25.0747 165.705 24.808C165.993 24.5413 166.366 24.408 166.825 24.408C167.283 24.408 167.657 24.536 167.945 24.792C168.233 25.0373 168.377 25.3573 168.377 25.752C168.377 26.168 168.233 26.5147 167.945 26.792C167.667 27.0587 167.294 27.192 166.825 27.192ZM174.643 37.128C173.661 37.128 172.797 36.936 172.051 36.552C171.315 36.168 170.744 35.6453 170.339 34.984C169.933 34.312 169.731 33.5493 169.731 32.696C169.731 31.832 169.928 31.0693 170.323 30.408C170.728 29.736 171.277 29.2133 171.971 28.84C172.664 28.456 173.448 28.264 174.323 28.264C175.165 28.264 175.923 28.4453 176.595 28.808C177.277 29.16 177.816 29.672 178.211 30.344C178.605 31.0053 178.803 31.8 178.803 32.728C178.803 32.824 178.797 32.936 178.787 33.064C178.776 33.1813 178.765 33.2933 178.755 33.4H171.763V31.944H177.443L176.483 32.376C176.483 31.928 176.392 31.5387 176.211 31.208C176.029 30.8773 175.779 30.6213 175.459 30.44C175.139 30.248 174.765 30.152 174.339 30.152C173.912 30.152 173.533 30.248 173.203 30.44C172.883 30.6213 172.632 30.8827 172.451 31.224C172.269 31.5547 172.179 31.9493 172.179 32.408V32.792C172.179 33.2613 172.28 33.6773 172.483 34.04C172.696 34.392 172.989 34.664 173.363 34.856C173.747 35.0373 174.195 35.128 174.707 35.128C175.165 35.128 175.565 35.0587 175.907 34.92C176.259 34.7813 176.579 34.5733 176.867 34.296L178.195 35.736C177.8 36.184 177.304 36.5307 176.707 36.776C176.109 37.0107 175.421 37.128 174.643 37.128ZM184.625 37.128C183.697 37.128 182.87 36.9413 182.145 36.568C181.419 36.184 180.849 35.656 180.433 34.984C180.027 34.312 179.825 33.5493 179.825 32.696C179.825 31.832 180.027 31.0693 180.433 30.408C180.849 29.736 181.419 29.2133 182.145 28.84C182.87 28.456 183.697 28.264 184.625 28.264C185.531 28.264 186.321 28.456 186.993 28.84C187.665 29.2133 188.161 29.752 188.481 30.456L186.545 31.496C186.321 31.0907 186.038 30.792 185.697 30.6C185.366 30.408 185.003 30.312 184.609 30.312C184.182 30.312 183.798 30.408 183.457 30.6C183.115 30.792 182.843 31.064 182.641 31.416C182.449 31.768 182.353 32.1947 182.353 32.696C182.353 33.1973 182.449 33.624 182.641 33.976C182.843 34.328 183.115 34.6 183.457 34.792C183.798 34.984 184.182 35.08 184.609 35.08C185.003 35.08 185.366 34.9893 185.697 34.808C186.038 34.616 186.321 34.312 186.545 33.896L188.481 34.952C188.161 35.6453 187.665 36.184 186.993 36.568C186.321 36.9413 185.531 37.128 184.625 37.128ZM193.563 37.128C192.549 37.128 191.76 36.872 191.195 36.36C190.629 35.8373 190.347 35.064 190.347 34.04V26.488H192.843V34.008C192.843 34.3707 192.939 34.6533 193.131 34.856C193.323 35.048 193.584 35.144 193.915 35.144C194.309 35.144 194.645 35.0373 194.923 34.824L195.595 36.584C195.339 36.7653 195.029 36.904 194.667 37C194.315 37.0853 193.947 37.128 193.563 37.128ZM189.019 30.504V28.584H194.987V30.504H189.019Z" fill="white"/>
<defs>
<filter id="filter0_dddd_144_2893" x="0" y="0" width="244" height="128" filterUnits="userSpaceOnUse" color-interpolation-filters="sRGB">
<feFlood flood-opacity="0" result="BackgroundImageFix"/>
<feColorMatrix in="SourceAlpha" type="matrix" values="0 0 0 0 0 0 0 0 0 0 0 0 0 0 0 0 0 0 127 0" result="hardAlpha"/>
<feOffset dy="3"/>
<feGaussianBlur stdDeviation="3.5"/>
<feColorMatrix type="matrix" values="0 0 0 0 0 0 0 0 0 0 0 0 0 0 0 0 0 0 0.1 0"/>
<feBlend mode="normal" in2="BackgroundImageFix" result="effect1_dropShadow_144_2893"/>
<feColorMatrix in="SourceAlpha" type="matrix" values="0 0 0 0 0 0 0 0 0 0 0 0 0 0 0 0 0 0 127 0" result="hardAlpha"/>
<feOffset dy="13"/>
<feGaussianBlur stdDeviation="6.5"/>
<feColorMatrix type="matrix" values="0 0 0 0 0 0 0 0 0 0 0 0 0 0 0 0 0 0 0.09 0"/>
<feBlend mode="normal" in2="effect1_dropShadow_144_2893" result="effect2_dropShadow_144_2893"/>
<feColorMatrix in="SourceAlpha" type="matrix" values="0 0 0 0 0 0 0 0 0 0 0 0 0 0 0 0 0 0 127 0" result="hardAlpha"/>
<feOffset dy="28"/>
<feGaussianBlur stdDeviation="8.5"/>
<feColorMatrix type="matrix" values="0 0 0 0 0 0 0 0 0 0 0 0 0 0 0 0 0 0 0.05 0"/>
<feBlend mode="normal" in2="effect2_dropShadow_144_2893" result="effect3_dropShadow_144_2893"/>
<feColorMatrix in="SourceAlpha" type="matrix" values="0 0 0 0 0 0 0 0 0 0 0 0 0 0 0 0 0 0 127 0" result="hardAlpha"/>
<feOffset dy="50"/>
<feGaussianBlur stdDeviation="10"/>
<feColorMatrix type="matrix" values="0 0 0 0 0 0 0 0 0 0 0 0 0 0 0 0 0 0 0.01 0"/>
<feBlend mode="normal" in2="effect3_dropShadow_144_2893" result="effect4_dropShadow_144_2893"/>
<feBlend mode="normal" in="SourceGraphic" in2="effect4_dropShadow_144_2893" result="shape"/>
</filter>
</defs>
</svg>
