<svg width="90" height="46" viewBox="0 0 90 46" fill="none" xmlns="http://www.w3.org/2000/svg">
<path d="M59.7214 1.85003L56.8928 2.81432V19.3357V35.8572H60.1071H63.3214V18.3393C63.3214 4.51789 63.225 0.821461 62.9357 0.853603C62.7107 0.853603 61.2643 1.3036 59.7214 1.85003Z" fill="white"/>
<path d="M43.7143 4.83951L40.6608 5.86808L40.5643 14.1931C40.4358 26.0217 40.9822 28.5609 44.3251 32.0967C46.2215 34.0895 48.2786 35.3109 50.9465 36.0181C54.1286 36.8217 54.0001 36.9502 54.0001 33.2859C54.0001 30.1681 53.9679 30.0717 53.2929 30.0717C52.1358 30.0395 50.0786 28.9788 48.9536 27.7895C47.3143 26.0538 46.9286 24.7359 46.9286 20.9109V17.5359H50.4643H54.0001V14.6431V11.7502H50.4643H46.9608L46.8643 7.79665L46.7679 3.84308L43.7143 4.83951Z" fill="white"/>
<path d="M32.1429 11.8786L29.0893 12.9393L29.025 24.3822L28.9286 35.8572H32.1429H35.3572V23.3215C35.3572 16.4107 35.325 10.7858 35.2929 10.8179C35.2286 10.8179 33.8143 11.3 32.1429 11.8786Z" fill="white"/>
<path d="M8.51787 12.0716C5.91429 12.9394 3.76072 14.6108 2.25001 16.893C-0.964278 21.9073 -0.128564 28.4323 4.21072 32.4501C6.75001 34.7966 8.93572 35.6323 12.5357 35.6644C14.4322 35.6644 15.6536 35.5037 16.5214 35.118C17.2286 34.7966 17.8714 34.6358 17.9679 34.7323C18.3214 35.118 16.8429 37.2716 15.6536 38.043C13.8857 39.2323 11.7964 39.3287 9.86786 38.3323L8.32501 37.5287L6.23572 39.843L4.14644 42.1251L4.88572 42.7358C6.20358 43.7966 8.51787 44.793 10.5107 45.1787C12.0857 45.4358 12.9536 45.4358 14.7857 45.0501C17.6786 44.4394 19.3822 43.443 21.4714 41.1608C23.9786 38.4287 24.4607 36.7894 24.6536 30.393C24.9429 21.393 24.0107 17.6966 20.6679 14.6108C17.5179 11.718 12.6322 10.6894 8.51787 12.0716ZM15.2357 18.4358C20.6679 21.618 18.2572 29.8787 12.0214 29.3644C8.29286 29.043 5.78572 25.6037 6.71787 22.1001C7.16787 20.4608 9.16072 18.3394 10.6714 17.8894C12.0214 17.4716 14.0143 17.7287 15.2357 18.4358Z" fill="white"/>
<path d="M64.7035 12.1358C64.7678 12.3608 66.9857 17.3429 69.5571 23.1929L74.25 33.8L72.3535 38.4608C69.5893 45.2429 69.4928 44.4715 73.2535 44.6C75.2143 44.6643 76.5321 44.5679 76.6285 44.375C76.6928 44.1822 79.3928 37.4643 82.6071 29.4286C85.8535 21.3929 88.7785 14.1286 89.1 13.2608L89.6785 11.75H86.3678H83.0571L80.3571 18.5322C78.8785 22.2608 77.5607 25.3465 77.4643 25.4108C77.3357 25.475 75.9535 22.4858 74.3785 18.725L71.4857 11.9108L68.0143 11.8143C65.2821 11.75 64.575 11.8143 64.7035 12.1358Z" fill="white"/>
</svg>
