<svg width="76" height="76" viewBox="0 0 76 76" fill="none" xmlns="http://www.w3.org/2000/svg">
<rect x="1" y="1" width="74" height="74" rx="9" fill="#040605" stroke="url(#paint0_diamond_149_4773)" stroke-width="2"/>
<path opacity="0.2" d="M29.25 43L33 46.75C33 46.75 31.75 51.75 24.25 51.75C24.25 44.25 29.25 43 29.25 43ZM39.25 29.25H29.6172C29.2861 29.2502 28.9686 29.3816 28.7344 29.6156L23.3672 34.9828C23.2034 35.147 23.0884 35.3536 23.0353 35.5795C22.9822 35.8053 22.9929 36.0415 23.0664 36.2615C23.1399 36.4816 23.2731 36.6769 23.4513 36.8255C23.6294 36.9741 23.8454 37.0703 24.075 37.1031L30.5 38L39.25 29.25ZM38 45.5L38.8969 51.925C38.9298 52.1547 39.0259 52.3706 39.1745 52.5488C39.3232 52.7269 39.5184 52.8602 39.7385 52.9336C39.9586 53.0071 40.1947 53.0179 40.4206 52.9647C40.6464 52.9116 40.853 52.7967 41.0172 52.6328L46.3844 47.2656C46.6184 47.0314 46.7499 46.7139 46.75 46.3828V36.75L38 45.5Z" fill="white"/>
<path d="M34.214 47.0531C34.1531 47.2953 32.6297 53 24.25 53C23.9185 53 23.6005 52.8683 23.3661 52.6339C23.1317 52.3995 23 52.0815 23 51.75C23 43.3703 28.7047 41.8469 28.9469 41.7859C29.2686 41.7055 29.6092 41.7563 29.8936 41.9269C30.1779 42.0976 30.3829 42.3743 30.4633 42.6961C30.5437 43.0179 30.4929 43.3584 30.3222 43.6428C30.1516 43.9272 29.8749 44.1321 29.5531 44.2125C29.4125 44.2516 26.05 45.2344 25.5594 50.4406C30.7656 49.95 31.75 46.5937 31.7906 46.4375C31.8735 46.1161 32.0806 45.8408 32.3665 45.6722C32.6523 45.5036 32.9935 45.4554 33.3148 45.5383C33.6362 45.6212 33.9115 45.8283 34.0801 46.1141C34.2487 46.4 34.2969 46.7411 34.214 47.0625V47.0531ZM48.7453 36.5219L48 37.2672V46.3812C48.0018 46.7108 47.9381 47.0375 47.8126 47.3422C47.6871 47.6469 47.5022 47.9236 47.2687 48.1562L41.9062 53.5156C41.675 53.7485 41.3999 53.9333 41.0969 54.0594C40.7938 54.1854 40.4688 54.2502 40.1406 54.25C39.8697 54.2499 39.6006 54.2061 39.3437 54.1203C38.9026 53.9744 38.5111 53.708 38.2135 53.3513C37.9158 52.9945 37.7239 52.5617 37.6594 52.1016L36.8203 46.0875L29.9125 39.1797L23.9015 38.3406C23.4408 38.276 23.0073 38.0841 22.6497 37.7865C22.2921 37.489 22.0246 37.0975 21.8773 36.6562C21.7301 36.2149 21.7089 35.7413 21.8161 35.2886C21.9233 34.8359 22.1548 34.4221 22.4844 34.0937L27.8437 28.7312C28.0764 28.4978 28.3531 28.3129 28.6578 28.1874C28.9625 28.0618 29.2892 27.9981 29.6187 28H38.7328L39.4781 27.2547C43.6469 23.0875 48.6703 22.9078 50.6359 23.025C51.2454 23.062 51.8203 23.3209 52.252 23.7526C52.6838 24.1844 52.9426 24.7593 52.9797 25.3687C53.0937 27.3297 52.914 32.3531 48.7469 36.5219H48.7453ZM24.25 35.8656L30.0547 36.675L36.2328 30.5H29.6187L24.25 35.8656ZM32.2687 38L38 43.7312L46.9765 34.7547C48.1863 33.5531 49.1248 32.1065 49.729 30.5121C50.3333 28.9177 50.5892 27.2125 50.4797 25.5109C48.779 25.4054 47.0754 25.664 45.4827 26.2694C43.89 26.8749 42.4448 27.8132 41.2437 29.0219L32.2687 38ZM45.5 39.7672L39.3234 45.9437L40.1359 51.75L45.5 46.3812V39.7672Z" fill="white"/>
<defs>
<radialGradient id="paint0_diamond_149_4773" cx="0" cy="0" r="1" gradientUnits="userSpaceOnUse" gradientTransform="translate(14.0544 14) rotate(45) scale(95.4594 140.239)">
<stop stop-color="#C9FFEC"/>
<stop offset="1" stop-color="#11562F"/>
</radialGradient>
</defs>
</svg>
