<svg width="72" height="72" viewBox="0 0 72 72" fill="none" xmlns="http://www.w3.org/2000/svg">
<rect width="72" height="72" rx="8" fill="#121C16"/>
<path opacity="0.2" d="M47.25 24.75H24.75C23.7554 24.75 22.8016 25.1451 22.0983 25.8483C21.3951 26.5516 21 27.5054 21 28.5V46C21 46.9946 21.3951 47.9484 22.0983 48.6517C22.8016 49.3549 23.7554 49.75 24.75 49.75H47.25C48.2446 49.75 49.1984 49.3549 49.9017 48.6517C50.6049 47.9484 51 46.9946 51 46V28.5C51 27.5054 50.6049 26.5516 49.9017 25.8483C49.1984 25.1451 48.2446 24.75 47.25 24.75ZM41.625 44.75H30.375C29.5462 44.75 28.7513 44.4208 28.1653 43.8347C27.5792 43.2487 27.25 42.4538 27.25 41.625C27.25 40.7962 27.5792 40.0013 28.1653 39.4153C28.7513 38.8292 29.5462 38.5 30.375 38.5H41.625C42.4538 38.5 43.2487 38.8292 43.8347 39.4153C44.4208 40.0013 44.75 40.7962 44.75 41.625C44.75 42.4538 44.4208 43.2487 43.8347 43.8347C43.2487 44.4208 42.4538 44.75 41.625 44.75Z" fill="white"/>
<path d="M47.25 23.5H37.25V18.5C37.25 18.1685 37.1183 17.8505 36.8839 17.6161C36.6495 17.3817 36.3315 17.25 36 17.25C35.6685 17.25 35.3505 17.3817 35.1161 17.6161C34.8817 17.8505 34.75 18.1685 34.75 18.5V23.5H24.75C23.4239 23.5 22.1521 24.0268 21.2145 24.9645C20.2768 25.9021 19.75 27.1739 19.75 28.5V46C19.75 47.3261 20.2768 48.5979 21.2145 49.5355C22.1521 50.4732 23.4239 51 24.75 51H47.25C48.5761 51 49.8479 50.4732 50.7855 49.5355C51.7232 48.5979 52.25 47.3261 52.25 46V28.5C52.25 27.1739 51.7232 25.9021 50.7855 24.9645C49.8479 24.0268 48.5761 23.5 47.25 23.5ZM49.75 46C49.75 46.663 49.4866 47.2989 49.0178 47.7678C48.5489 48.2366 47.913 48.5 47.25 48.5H24.75C24.087 48.5 23.4511 48.2366 22.9822 47.7678C22.5134 47.2989 22.25 46.663 22.25 46V28.5C22.25 27.837 22.5134 27.2011 22.9822 26.7322C23.4511 26.2634 24.087 26 24.75 26H47.25C47.913 26 48.5489 26.2634 49.0178 26.7322C49.4866 27.2011 49.75 27.837 49.75 28.5V46ZM41.625 37.25H30.375C29.2147 37.25 28.1019 37.7109 27.2814 38.5314C26.4609 39.3519 26 40.4647 26 41.625C26 42.7853 26.4609 43.8981 27.2814 44.7186C28.1019 45.5391 29.2147 46 30.375 46H41.625C42.7853 46 43.8981 45.5391 44.7186 44.7186C45.5391 43.8981 46 42.7853 46 41.625C46 40.4647 45.5391 39.3519 44.7186 38.5314C43.8981 37.7109 42.7853 37.25 41.625 37.25ZM37.25 39.75V43.5H34.75V39.75H37.25ZM28.5 41.625C28.5 41.1277 28.6975 40.6508 29.0492 40.2992C29.4008 39.9475 29.8777 39.75 30.375 39.75H32.25V43.5H30.375C29.8777 43.5 29.4008 43.3025 29.0492 42.9508C28.6975 42.5992 28.5 42.1223 28.5 41.625ZM41.625 43.5H39.75V39.75H41.625C42.1223 39.75 42.5992 39.9475 42.9508 40.2992C43.3025 40.6508 43.5 41.1277 43.5 41.625C43.5 42.1223 43.3025 42.5992 42.9508 42.9508C42.5992 43.3025 42.1223 43.5 41.625 43.5ZM27.25 32.875C27.25 32.5042 27.36 32.1416 27.566 31.8333C27.772 31.525 28.0649 31.2846 28.4075 31.1427C28.7501 31.0008 29.1271 30.9637 29.4908 31.036C29.8545 31.1084 30.1886 31.287 30.4508 31.5492C30.713 31.8114 30.8916 32.1455 30.964 32.5092C31.0363 32.8729 30.9992 33.2499 30.8573 33.5925C30.7154 33.9351 30.475 34.228 30.1667 34.434C29.8584 34.64 29.4958 34.75 29.125 34.75C28.6277 34.75 28.1508 34.5525 27.7992 34.2008C27.4475 33.8492 27.25 33.3723 27.25 32.875ZM41 32.875C41 32.5042 41.11 32.1416 41.316 31.8333C41.522 31.525 41.8149 31.2846 42.1575 31.1427C42.5001 31.0008 42.8771 30.9637 43.2408 31.036C43.6045 31.1084 43.9386 31.287 44.2008 31.5492C44.463 31.8114 44.6416 32.1455 44.714 32.5092C44.7863 32.8729 44.7492 33.2499 44.6073 33.5925C44.4654 33.9351 44.225 34.228 43.9167 34.434C43.6084 34.64 43.2458 34.75 42.875 34.75C42.3777 34.75 41.9008 34.5525 41.5492 34.2008C41.1975 33.8492 41 33.3723 41 32.875Z" fill="white"/>
</svg>
