<svg width="76" height="76" viewBox="0 0 76 76" fill="none" xmlns="http://www.w3.org/2000/svg">
<rect x="1" y="1" width="74" height="74" rx="9" fill="#040605" stroke="url(#paint0_diamond_149_4729)" stroke-width="2"/>
<path opacity="0.2" d="M33 47.375C33 48.2403 32.7434 49.0862 32.2627 49.8056C31.782 50.5251 31.0987 51.0858 30.2992 51.417C29.4998 51.7481 28.6201 51.8347 27.7715 51.6659C26.9228 51.4971 26.1433 51.0804 25.5314 50.4686C24.9196 49.8567 24.5029 49.0772 24.3341 48.2285C24.1653 47.3799 24.2519 46.5002 24.583 45.7008C24.9142 44.9013 25.4749 44.2181 26.1944 43.7373C26.9138 43.2566 27.7597 43 28.625 43C29.7853 43 30.8981 43.4609 31.7186 44.2814C32.5391 45.1019 33 46.2147 33 47.375Z" fill="white"/>
<path d="M28.625 41.75C27.5124 41.75 26.4249 42.0799 25.4999 42.698C24.5749 43.3161 23.8539 44.1946 23.4281 45.2224C23.0024 46.2502 22.891 47.3812 23.108 48.4724C23.3251 49.5635 23.8608 50.5658 24.6475 51.3525C25.4342 52.1391 26.4364 52.6749 27.5276 52.8919C28.6187 53.109 29.7497 52.9976 30.7776 52.5718C31.8054 52.1461 32.6839 51.4251 33.302 50.5001C33.9201 49.5751 34.25 48.4875 34.25 47.375C34.25 45.8832 33.6573 44.4524 32.6024 43.3975C31.5475 42.3426 30.1168 41.75 28.625 41.75ZM28.625 50.5C28.0069 50.5 27.4027 50.3167 26.8888 49.9733C26.3749 49.63 25.9744 49.1419 25.7378 48.5709C25.5013 47.9999 25.4394 47.3715 25.56 46.7653C25.6806 46.1592 25.9782 45.6023 26.4153 45.1653C26.8523 44.7283 27.4091 44.4306 28.0153 44.31C28.6215 44.1895 29.2498 44.2514 29.8208 44.4879C30.3919 44.7244 30.8799 45.1249 31.2233 45.6388C31.5667 46.1527 31.75 46.7569 31.75 47.375C31.75 48.2038 31.4207 48.9987 30.8347 49.5847C30.2486 50.1708 29.4538 50.5 28.625 50.5ZM23.3656 34.6156L25.6078 32.375L23.3656 30.1344C23.131 29.8998 22.9993 29.5817 22.9993 29.25C22.9993 28.9183 23.131 28.6002 23.3656 28.3656C23.6001 28.1311 23.9183 27.9993 24.25 27.9993C24.5817 27.9993 24.8998 28.1311 25.1343 28.3656L27.375 30.6078L29.6156 28.3656C29.8501 28.1311 30.1683 27.9993 30.5 27.9993C30.8317 27.9993 31.1498 28.1311 31.3843 28.3656C31.6189 28.6002 31.7507 28.9183 31.7507 29.25C31.7507 29.5817 31.6189 29.8998 31.3843 30.1344L29.1421 32.375L31.3843 34.6156C31.6189 34.8502 31.7507 35.1683 31.7507 35.5C31.7507 35.8317 31.6189 36.1498 31.3843 36.3844C31.1498 36.6189 30.8317 36.7507 30.5 36.7507C30.1683 36.7507 29.8501 36.6189 29.6156 36.3844L27.375 34.1422L25.1343 36.3844C24.8998 36.6189 24.5817 36.7507 24.25 36.7507C23.9183 36.7507 23.6001 36.6189 23.3656 36.3844C23.131 36.1498 22.9993 35.8317 22.9993 35.5C22.9993 35.1683 23.131 34.8502 23.3656 34.6156ZM52.6343 49.6156C52.7505 49.7318 52.8426 49.8696 52.9055 50.0214C52.9683 50.1731 53.0007 50.3358 53.0007 50.5C53.0007 50.6642 52.9683 50.8269 52.9055 50.9786C52.8426 51.1304 52.7505 51.2682 52.6343 51.3844C52.5182 51.5005 52.3803 51.5926 52.2286 51.6555C52.0768 51.7183 51.9142 51.7507 51.75 51.7507C51.5857 51.7507 51.4231 51.7183 51.2713 51.6555C51.1196 51.5926 50.9817 51.5005 50.8656 51.3844L48.625 49.1422L46.3843 51.3844C46.1498 51.6189 45.8317 51.7507 45.5 51.7507C45.1683 51.7507 44.8501 51.6189 44.6156 51.3844C44.381 51.1498 44.2493 50.8317 44.2493 50.5C44.2493 50.1683 44.381 49.8502 44.6156 49.6156L46.8578 47.375L44.6156 45.1344C44.381 44.8998 44.2493 44.5817 44.2493 44.25C44.2493 43.9183 44.381 43.6002 44.6156 43.3656C44.8501 43.1311 45.1683 42.9993 45.5 42.9993C45.8317 42.9993 46.1498 43.1311 46.3843 43.3656L48.625 45.6078L50.8656 43.3656C51.1001 43.1311 51.4183 42.9993 51.75 42.9993C52.0817 42.9993 52.3998 43.1311 52.6343 43.3656C52.8689 43.6002 53.0007 43.9183 53.0007 44.25C53.0007 44.5817 52.8689 44.8998 52.6343 45.1344L50.3922 47.375L52.6343 49.6156ZM45.5734 35.6297C44.6078 39.1187 41.6171 42.1344 38.3031 42.9625C38.2009 42.9879 38.0959 43.0005 37.9906 43C37.6858 42.9994 37.3917 42.8875 37.1636 42.6853C36.9355 42.4831 36.7892 42.2045 36.7522 41.9019C36.7151 41.5994 36.7899 41.2937 36.9624 41.0425C37.135 40.7912 37.3934 40.6116 37.689 40.5375C40.1312 39.9266 42.4312 37.5828 43.1578 34.9625C43.6562 33.1656 43.6609 30.4313 40.8593 27.6344L40.5 27.2672V30.5C40.5 30.8315 40.3683 31.1495 40.1338 31.3839C39.8994 31.6183 39.5815 31.75 39.25 31.75C38.9184 31.75 38.6005 31.6183 38.3661 31.3839C38.1317 31.1495 38 30.8315 38 30.5V24.25C38 23.9185 38.1317 23.6005 38.3661 23.3661C38.6005 23.1317 38.9184 23 39.25 23H45.5C45.8315 23 46.1494 23.1317 46.3838 23.3661C46.6183 23.6005 46.75 23.9185 46.75 24.25C46.75 24.5815 46.6183 24.8995 46.3838 25.1339C46.1494 25.3683 45.8315 25.5 45.5 25.5H42.2671L42.6343 25.8656C45.4843 28.7172 46.5281 32.1844 45.5734 35.6297Z" fill="white"/>
<defs>
<radialGradient id="paint0_diamond_149_4729" cx="0" cy="0" r="1" gradientUnits="userSpaceOnUse" gradientTransform="translate(14.0544 14) rotate(45) scale(95.4594 140.239)">
<stop stop-color="#C9FFEC"/>
<stop offset="1" stop-color="#11562F"/>
</radialGradient>
</defs>
</svg>
