<svg width="76" height="76" viewBox="0 0 76 76" fill="none" xmlns="http://www.w3.org/2000/svg">
<rect x="1" y="1" width="74" height="74" rx="9" fill="#040605" stroke="url(#paint0_diamond_149_4685)" stroke-width="2"/>
<path opacity="0.2" d="M51 26.75V49.25C51 49.5815 50.8683 49.8995 50.6339 50.1339C50.3995 50.3683 50.0815 50.5 49.75 50.5H22.25C21.9185 50.5 21.6005 50.3683 21.3661 50.1339C21.1317 49.8995 21 49.5815 21 49.25V26.75C21 26.4185 21.1317 26.1005 21.3661 25.8661C21.6005 25.6317 21.9185 25.5 22.25 25.5H49.75C50.0815 25.5 50.3995 25.6317 50.6339 25.8661C50.8683 26.1005 51 26.4185 51 26.75Z" fill="white"/>
<path d="M36 38C36.0001 38.1875 35.958 38.3726 35.8769 38.5417C35.7958 38.7107 35.6776 38.8594 35.5312 38.9766L29.2812 43.9766C29.153 44.0792 29.0058 44.1555 28.8481 44.2012C28.6903 44.2469 28.5251 44.2611 28.3619 44.243C28.1987 44.2248 28.0406 44.1747 27.8967 44.0955C27.7529 44.0163 27.626 43.9095 27.5234 43.7812C27.4208 43.653 27.3445 43.5058 27.2988 43.3481C27.2531 43.1903 27.2389 43.0251 27.257 42.8619C27.2752 42.6987 27.3253 42.5406 27.4045 42.3967C27.4837 42.2529 27.5905 42.126 27.7188 42.0234L32.7484 38L27.7188 33.9766C27.5905 33.874 27.4837 33.7471 27.4045 33.6033C27.3253 33.4594 27.2752 33.3013 27.257 33.1381C27.2389 32.9749 27.2531 32.8097 27.2988 32.6519C27.3445 32.4942 27.4208 32.347 27.5234 32.2188C27.626 32.0905 27.7529 31.9837 27.8967 31.9045C28.0406 31.8253 28.1987 31.7752 28.3619 31.757C28.5251 31.7389 28.6903 31.7531 28.8481 31.7988C29.0058 31.8445 29.153 31.9208 29.2812 32.0234L35.5312 37.0234C35.6776 37.1406 35.7958 37.2893 35.8769 37.4583C35.958 37.6274 36.0001 37.8125 36 38ZM43.5 41.75H37.25C36.9185 41.75 36.6005 41.8817 36.3661 42.1161C36.1317 42.3505 36 42.6685 36 43C36 43.3315 36.1317 43.6495 36.3661 43.8839C36.6005 44.1183 36.9185 44.25 37.25 44.25H43.5C43.8315 44.25 44.1495 44.1183 44.3839 43.8839C44.6183 43.6495 44.75 43.3315 44.75 43C44.75 42.6685 44.6183 42.3505 44.3839 42.1161C44.1495 41.8817 43.8315 41.75 43.5 41.75ZM52.25 26.75V49.25C52.25 49.913 51.9866 50.5489 51.5178 51.0178C51.0489 51.4866 50.413 51.75 49.75 51.75H22.25C21.587 51.75 20.9511 51.4866 20.4822 51.0178C20.0134 50.5489 19.75 49.913 19.75 49.25V26.75C19.75 26.087 20.0134 25.4511 20.4822 24.9822C20.9511 24.5134 21.587 24.25 22.25 24.25H49.75C50.413 24.25 51.0489 24.5134 51.5178 24.9822C51.9866 25.4511 52.25 26.087 52.25 26.75ZM49.75 49.25V26.75H22.25V49.25H49.75Z" fill="white"/>
<defs>
<radialGradient id="paint0_diamond_149_4685" cx="0" cy="0" r="1" gradientUnits="userSpaceOnUse" gradientTransform="translate(14.0544 14) rotate(45) scale(95.4594 140.239)">
<stop stop-color="#C9FFEC"/>
<stop offset="1" stop-color="#11562F"/>
</radialGradient>
</defs>
</svg>
