<svg width="72" height="72" viewBox="0 0 72 72" fill="none" xmlns="http://www.w3.org/2000/svg">
<rect width="72" height="72" rx="8" fill="#121C16"/>
<path opacity="0.2" d="M27.2499 41L30.9999 44.75C30.9999 44.75 29.7499 49.75 22.2499 49.75C22.2499 42.25 27.2499 41 27.2499 41ZM37.2499 27.25H27.6171C27.286 27.2502 26.9685 27.3816 26.7343 27.6156L21.3671 32.9828C21.2032 33.147 21.0883 33.3536 21.0352 33.5795C20.982 33.8053 20.9928 34.0415 21.0663 34.2615C21.1397 34.4816 21.273 34.6769 21.4511 34.8255C21.6293 34.9741 21.8453 35.0703 22.0749 35.1031L28.4999 36L37.2499 27.25ZM35.9999 43.5L36.8968 49.925C36.9296 50.1547 37.0258 50.3706 37.1744 50.5488C37.323 50.7269 37.5183 50.8602 37.7384 50.9336C37.9584 51.0071 38.1946 51.0179 38.4204 50.9647C38.6463 50.9116 38.8529 50.7967 39.0171 50.6328L44.3843 45.2656C44.6183 45.0314 44.7498 44.7139 44.7499 44.3828V34.75L35.9999 43.5Z" fill="white"/>
<path d="M32.2143 45.0531C32.1534 45.2953 30.6299 51 22.2502 51C21.9187 51 21.6008 50.8683 21.3663 50.6339C21.1319 50.3995 21.0002 50.0815 21.0002 49.75C21.0002 41.3703 26.7049 39.8469 26.9471 39.7859C27.2689 39.7055 27.6094 39.7563 27.8938 39.9269C28.1782 40.0976 28.3831 40.3743 28.4635 40.6961C28.5439 41.0179 28.4932 41.3584 28.3225 41.6428C28.1518 41.9272 27.8751 42.1321 27.5534 42.2125C27.4127 42.2516 24.0502 43.2344 23.5596 48.4406C28.7659 47.95 29.7502 44.5937 29.7909 44.4375C29.8737 44.1161 30.0809 43.8408 30.3667 43.6722C30.6526 43.5036 30.9937 43.4554 31.3151 43.5383C31.6364 43.6212 31.9117 43.8283 32.0804 44.1141C32.249 44.4 32.2972 44.7411 32.2143 45.0625V45.0531ZM46.7455 34.5219L46.0002 35.2672V44.3812C46.0021 44.7108 45.9384 45.0375 45.8129 45.3422C45.6873 45.6469 45.5024 45.9236 45.269 46.1562L39.9065 51.5156C39.6752 51.7485 39.4001 51.9333 39.0971 52.0594C38.7941 52.1854 38.4691 52.2502 38.1409 52.25C37.87 52.2499 37.6009 52.2061 37.344 52.1203C36.9029 51.9744 36.5114 51.708 36.2137 51.3513C35.9161 50.9945 35.7241 50.5617 35.6596 50.1016L34.8205 44.0875L27.9127 37.1797L21.9018 36.3406C21.4411 36.276 21.0075 36.0841 20.6499 35.7865C20.2923 35.489 20.0248 35.0975 19.8776 34.6562C19.7303 34.2149 19.7091 33.7413 19.8163 33.2886C19.9236 32.8359 20.155 32.4221 20.4846 32.0937L25.844 26.7312C26.0766 26.4978 26.3533 26.3129 26.658 26.1874C26.9628 26.0618 27.2894 25.9981 27.619 26H36.733L37.4784 25.2547C41.6471 21.0875 46.6705 20.9078 48.6362 21.025C49.2457 21.062 49.8205 21.3209 50.2523 21.7526C50.6841 22.1844 50.9429 22.7593 50.9799 23.3687C51.094 25.3297 50.9143 30.3531 46.7471 34.5219H46.7455ZM22.2502 33.8656L28.0549 34.675L34.233 28.5H27.619L22.2502 33.8656ZM30.269 36L36.0002 41.7312L44.9768 32.7547C46.1865 31.5531 47.125 30.1065 47.7293 28.5121C48.3335 26.9177 48.5894 25.2125 48.4799 23.5109C46.7793 23.4054 45.0757 23.664 43.4829 24.2694C41.8902 24.8749 40.4451 25.8132 39.244 27.0219L30.269 36ZM43.5002 37.7672L37.3237 43.9437L38.1362 49.75L43.5002 44.3812V37.7672Z" fill="white"/>
</svg>
