<svg width="76" height="76" viewBox="0 0 76 76" fill="none" xmlns="http://www.w3.org/2000/svg">
<rect x="1" y="1" width="74" height="74" rx="9" fill="#040605" stroke="url(#paint0_diamond_149_4640)" stroke-width="2"/>
<path opacity="0.2" d="M53 38C52.9994 35.3671 52.3058 32.7807 50.9889 30.5008C49.672 28.2209 47.7782 26.3278 45.4978 25.0117C43.2174 23.6956 40.6308 23.003 37.9979 23.0034C35.365 23.0037 32.7786 23.6971 30.4985 25.0138C28.2185 26.3305 26.3252 28.2242 25.009 30.5045C23.6927 32.7847 22.9999 35.3713 23 38.0042C23.0001 40.6371 23.6933 43.2236 25.0098 45.5037C26.3263 47.7839 28.2198 49.6773 30.5 50.9937V45.5L38 29.25L45.5 45.5V50.9937C47.7808 49.6769 49.6747 47.7828 50.9912 45.5019C52.3078 43.221 53.0006 40.6336 53 38Z" fill="white"/>
<path d="M49.4906 26.5094C46.4431 23.4619 42.3098 21.7498 38 21.7498C33.6901 21.7498 29.5568 23.4619 26.5093 26.5094C23.4618 29.5569 21.7498 33.6902 21.7498 38C21.7498 42.3098 23.4618 46.4431 26.5093 49.4906C29.5568 52.5381 33.6901 54.2502 38 54.2502C42.3098 54.2502 46.4431 52.5381 49.4906 49.4906C52.5381 46.4431 54.2502 42.3098 54.2502 38C54.2502 33.6902 52.5381 29.5569 49.4906 26.5094ZM31.75 48C31.75 47.337 32.0133 46.7011 32.4822 46.2322C32.951 45.7634 33.5869 45.5 34.25 45.5C34.913 45.5 35.5489 45.7634 36.0177 46.2322C36.4866 46.7011 36.75 47.337 36.75 48V51.686C35.0068 51.5284 33.3097 51.0394 31.75 50.2453V48ZM39.25 48C39.25 47.337 39.5133 46.7011 39.9822 46.2322C40.451 45.7634 41.0869 45.5 41.75 45.5C42.413 45.5 43.0489 45.7634 43.5177 46.2322C43.9866 46.7011 44.25 47.337 44.25 48V50.2453C42.6902 51.0394 40.9931 51.5284 39.25 51.686V48ZM34.7609 39.25H41.239L43.0484 43.1719C42.1483 42.9293 41.1983 42.9437 40.306 43.2135C39.4137 43.4833 38.6148 43.9978 38 44.6985C37.3851 43.9978 36.5863 43.4833 35.6939 43.2135C34.8016 42.9437 33.8516 42.9293 32.9515 43.1719L34.7609 39.25ZM35.9156 36.75L38 32.2328L40.0843 36.75H35.9156ZM47.7218 47.7235C47.4093 48.036 47.0843 48.3281 46.75 48.6047V45.5C46.7502 45.3192 46.7107 45.1405 46.6343 44.9766L39.1343 28.7266C39.0341 28.5101 38.8741 28.3268 38.6731 28.1984C38.4721 28.0699 38.2385 28.0016 38 28.0016C37.7614 28.0016 37.5278 28.0699 37.3268 28.1984C37.1258 28.3268 36.9658 28.5101 36.8656 28.7266L29.3656 44.9766C29.2892 45.1405 29.2497 45.3192 29.25 45.5V48.6047C28.9156 48.3281 28.5906 48.036 28.2781 47.7235C26.3549 45.8006 25.0451 43.3506 24.5143 40.6833C23.9836 38.016 24.2557 35.2512 25.2964 32.7385C26.337 30.2259 28.0994 28.0783 30.3606 26.5673C32.6218 25.0564 35.2804 24.2499 38 24.2499C40.7195 24.2499 43.3781 25.0564 45.6393 26.5673C47.9005 28.0783 49.6629 30.2259 50.7035 32.7385C51.7442 35.2512 52.0163 38.016 51.4856 40.6833C50.9548 43.3506 49.645 45.8006 47.7218 47.7235Z" fill="white"/>
<defs>
<radialGradient id="paint0_diamond_149_4640" cx="0" cy="0" r="1" gradientUnits="userSpaceOnUse" gradientTransform="translate(14.0544 14) rotate(45) scale(95.4594 140.239)">
<stop stop-color="#C9FFEC"/>
<stop offset="1" stop-color="#11562F"/>
</radialGradient>
</defs>
</svg>
