<svg width="76" height="76" viewBox="0 0 76 76" fill="none" xmlns="http://www.w3.org/2000/svg">
<rect x="1" y="1" width="74" height="74" rx="9" fill="#040605" stroke="url(#paint0_diamond_2499_1049)" stroke-width="2"/>
<path opacity="0.2" d="M49.25 26.75H26.75C25.7554 26.75 24.8016 27.1451 24.0983 27.8483C23.3951 28.5516 23 29.5054 23 30.5V48C23 48.9946 23.3951 49.9484 24.0983 50.6517C24.8016 51.3549 25.7554 51.75 26.75 51.75H49.25C50.2446 51.75 51.1984 51.3549 51.9017 50.6517C52.6049 49.9484 53 48.9946 53 48V30.5C53 29.5054 52.6049 28.5516 51.9017 27.8483C51.1984 27.1451 50.2446 26.75 49.25 26.75ZM43.625 46.75H32.375C31.5462 46.75 30.7513 46.4208 30.1653 45.8347C29.5792 45.2487 29.25 44.4538 29.25 43.625C29.25 42.7962 29.5792 42.0013 30.1653 41.4153C30.7513 40.8292 31.5462 40.5 32.375 40.5H43.625C44.4538 40.5 45.2487 40.8292 45.8347 41.4153C46.4208 42.0013 46.75 42.7962 46.75 43.625C46.75 44.4538 46.4208 45.2487 45.8347 45.8347C45.2487 46.4208 44.4538 46.75 43.625 46.75Z" fill="white"/>
<path d="M49.25 25.5H39.25V20.5C39.25 20.1685 39.1183 19.8505 38.8839 19.6161C38.6495 19.3817 38.3315 19.25 38 19.25C37.6685 19.25 37.3505 19.3817 37.1161 19.6161C36.8817 19.8505 36.75 20.1685 36.75 20.5V25.5H26.75C25.4239 25.5 24.1521 26.0268 23.2145 26.9645C22.2768 27.9021 21.75 29.1739 21.75 30.5V48C21.75 49.3261 22.2768 50.5979 23.2145 51.5355C24.1521 52.4732 25.4239 53 26.75 53H49.25C50.5761 53 51.8479 52.4732 52.7855 51.5355C53.7232 50.5979 54.25 49.3261 54.25 48V30.5C54.25 29.1739 53.7232 27.9021 52.7855 26.9645C51.8479 26.0268 50.5761 25.5 49.25 25.5ZM51.75 48C51.75 48.663 51.4866 49.2989 51.0178 49.7678C50.5489 50.2366 49.913 50.5 49.25 50.5H26.75C26.087 50.5 25.4511 50.2366 24.9822 49.7678C24.5134 49.2989 24.25 48.663 24.25 48V30.5C24.25 29.837 24.5134 29.2011 24.9822 28.7322C25.4511 28.2634 26.087 28 26.75 28H49.25C49.913 28 50.5489 28.2634 51.0178 28.7322C51.4866 29.2011 51.75 29.837 51.75 30.5V48ZM43.625 39.25H32.375C31.2147 39.25 30.1019 39.7109 29.2814 40.5314C28.4609 41.3519 28 42.4647 28 43.625C28 44.7853 28.4609 45.8981 29.2814 46.7186C30.1019 47.5391 31.2147 48 32.375 48H43.625C44.7853 48 45.8981 47.5391 46.7186 46.7186C47.5391 45.8981 48 44.7853 48 43.625C48 42.4647 47.5391 41.3519 46.7186 40.5314C45.8981 39.7109 44.7853 39.25 43.625 39.25ZM39.25 41.75V45.5H36.75V41.75H39.25ZM30.5 43.625C30.5 43.1277 30.6975 42.6508 31.0492 42.2992C31.4008 41.9475 31.8777 41.75 32.375 41.75H34.25V45.5H32.375C31.8777 45.5 31.4008 45.3025 31.0492 44.9508C30.6975 44.5992 30.5 44.1223 30.5 43.625ZM43.625 45.5H41.75V41.75H43.625C44.1223 41.75 44.5992 41.9475 44.9508 42.2992C45.3025 42.6508 45.5 43.1277 45.5 43.625C45.5 44.1223 45.3025 44.5992 44.9508 44.9508C44.5992 45.3025 44.1223 45.5 43.625 45.5ZM29.25 34.875C29.25 34.5042 29.36 34.1416 29.566 33.8333C29.772 33.525 30.0649 33.2846 30.4075 33.1427C30.7501 33.0008 31.1271 32.9637 31.4908 33.036C31.8545 33.1084 32.1886 33.287 32.4508 33.5492C32.713 33.8114 32.8916 34.1455 32.964 34.5092C33.0363 34.8729 32.9992 35.2499 32.8573 35.5925C32.7154 35.9351 32.475 36.228 32.1667 36.434C31.8584 36.64 31.4958 36.75 31.125 36.75C30.6277 36.75 30.1508 36.5525 29.7992 36.2008C29.4475 35.8492 29.25 35.3723 29.25 34.875ZM43 34.875C43 34.5042 43.11 34.1416 43.316 33.8333C43.522 33.525 43.8149 33.2846 44.1575 33.1427C44.5001 33.0008 44.8771 32.9637 45.2408 33.036C45.6045 33.1084 45.9386 33.287 46.2008 33.5492C46.463 33.8114 46.6416 34.1455 46.714 34.5092C46.7863 34.8729 46.7492 35.2499 46.6073 35.5925C46.4654 35.9351 46.225 36.228 45.9167 36.434C45.6084 36.64 45.2458 36.75 44.875 36.75C44.3777 36.75 43.9008 36.5525 43.5492 36.2008C43.1975 35.8492 43 35.3723 43 34.875Z" fill="white"/>
<defs>
<radialGradient id="paint0_diamond_2499_1049" cx="0" cy="0" r="1" gradientUnits="userSpaceOnUse" gradientTransform="translate(14.0544 14) rotate(45) scale(95.4594 140.239)">
<stop stop-color="#C9FFEC"/>
<stop offset="1" stop-color="#11562F"/>
</radialGradient>
</defs>
</svg>
