<svg width="72" height="72" viewBox="0 0 72 72" fill="none" xmlns="http://www.w3.org/2000/svg">
<rect width="72" height="72" rx="8" fill="#121C16"/>
<path opacity="0.2" d="M51 36.0001C50.9994 33.3671 50.3058 30.7808 48.9889 28.5009C47.672 26.221 45.7782 24.3278 43.4978 23.0118C41.2174 21.6957 38.6308 21.003 35.9979 21.0034C33.365 21.0038 30.7786 21.6972 28.4985 23.0139C26.2185 24.3306 24.3252 26.2242 23.009 28.5045C21.6927 30.7848 20.9999 33.3714 21 36.0043C21.0001 38.6372 21.6933 41.2237 23.0098 43.5038C24.3263 45.7839 26.2198 47.6773 28.5 48.9938V43.5001L36 27.25L43.5 43.5001V48.9938C45.7808 47.677 47.6747 45.7829 48.9912 43.502C50.3078 41.221 51.0006 38.6337 51 36.0001Z" fill="white"/>
<path d="M47.4908 24.5093C44.4433 21.4618 40.31 19.7498 36.0002 19.7498C31.6904 19.7498 27.5571 21.4618 24.5096 24.5093C21.4621 27.5568 19.75 31.6901 19.75 36C19.75 40.3098 21.4621 44.4431 24.5096 47.4906C27.5571 50.5381 31.6904 52.2502 36.0002 52.2502C40.31 52.2502 44.4433 50.5381 47.4908 47.4906C50.5383 44.4431 52.2504 40.3098 52.2504 36C52.2504 31.6901 50.5383 27.5568 47.4908 24.5093ZM29.7502 46C29.7502 45.3369 30.0136 44.701 30.4824 44.2322C30.9513 43.7633 31.5872 43.5 32.2502 43.5C32.9132 43.5 33.5491 43.7633 34.018 44.2322C34.4868 44.701 34.7502 45.3369 34.7502 46V49.6859C33.007 49.5283 31.31 49.0393 29.7502 48.2453V46ZM37.2502 46C37.2502 45.3369 37.5136 44.701 37.9824 44.2322C38.4513 43.7633 39.0872 43.5 39.7502 43.5C40.4132 43.5 41.0491 43.7633 41.518 44.2322C41.9868 44.701 42.2502 45.3369 42.2502 46V48.2453C40.6904 49.0393 38.9934 49.5283 37.2502 49.6859V46ZM32.7611 37.25H39.2393L41.0486 41.1718C40.1486 40.9292 39.1985 40.9436 38.3062 41.2135C37.4139 41.4833 36.615 41.9977 36.0002 42.6984C35.3854 41.9977 34.5865 41.4833 33.6942 41.2135C32.8019 40.9436 31.8518 40.9292 30.9518 41.1718L32.7611 37.25ZM33.9158 34.75L36.0002 30.2328L38.0846 34.75H33.9158ZM45.7221 45.7234C45.4096 46.0359 45.0846 46.3281 44.7502 46.6046V43.5C44.7504 43.3191 44.7109 43.1404 44.6346 42.9765L37.1346 26.7265C37.0344 26.51 36.8743 26.3267 36.6733 26.1983C36.4723 26.0698 36.2387 26.0016 36.0002 26.0016C35.7617 26.0016 35.5281 26.0698 35.3271 26.1983C35.1261 26.3267 34.966 26.51 34.8658 26.7265L27.3658 42.9765C27.2895 43.1404 27.25 43.3191 27.2502 43.5V46.6046C26.9158 46.3281 26.5908 46.0359 26.2783 45.7234C24.3551 43.8005 23.0453 41.3505 22.5146 38.6832C21.9838 36.0159 22.256 33.2511 23.2966 30.7385C24.3373 28.2259 26.0996 26.0783 28.3609 24.5673C30.6221 23.0563 33.2806 22.2498 36.0002 22.2498C38.7198 22.2498 41.3783 23.0563 43.6395 24.5673C45.9008 26.0783 47.6631 28.2259 48.7038 30.7385C49.7444 33.2511 50.0166 36.0159 49.4858 38.6832C48.9551 41.3505 47.6453 43.8005 45.7221 45.7234Z" fill="white"/>
</svg>
