<svg width="72" height="72" viewBox="0 0 72 72" fill="none" xmlns="http://www.w3.org/2000/svg">
<rect width="72" height="72" rx="8" fill="#121C16"/>
<path opacity="0.2" d="M49 24.75V47.25C49 47.5815 48.8683 47.8995 48.6339 48.1339C48.3995 48.3683 48.0815 48.5 47.75 48.5H20.25C19.9185 48.5 19.6005 48.3683 19.3661 48.1339C19.1317 47.8995 19 47.5815 19 47.25V24.75C19 24.4185 19.1317 24.1005 19.3661 23.8661C19.6005 23.6317 19.9185 23.5 20.25 23.5H47.75C48.0815 23.5 48.3995 23.6317 48.6339 23.8661C48.8683 24.1005 49 24.4185 49 24.75Z" fill="white"/>
<path d="M34 36C34.0001 36.1875 33.958 36.3726 33.8769 36.5417C33.7958 36.7107 33.6776 36.8594 33.5312 36.9766L27.2812 41.9766C27.153 42.0792 27.0058 42.1555 26.8481 42.2012C26.6903 42.2469 26.5251 42.2611 26.3619 42.243C26.1987 42.2248 26.0406 42.1747 25.8967 42.0955C25.7529 42.0163 25.626 41.9095 25.5234 41.7812C25.4208 41.653 25.3445 41.5058 25.2988 41.3481C25.2531 41.1903 25.2389 41.0251 25.257 40.8619C25.2752 40.6987 25.3253 40.5406 25.4045 40.3967C25.4837 40.2529 25.5905 40.126 25.7188 40.0234L30.7484 36L25.7188 31.9766C25.5905 31.874 25.4837 31.7471 25.4045 31.6033C25.3253 31.4594 25.2752 31.3013 25.257 31.1381C25.2389 30.9749 25.2531 30.8097 25.2988 30.6519C25.3445 30.4942 25.4208 30.347 25.5234 30.2188C25.626 30.0905 25.7529 29.9837 25.8967 29.9045C26.0406 29.8253 26.1987 29.7752 26.3619 29.757C26.5251 29.7389 26.6903 29.7531 26.8481 29.7988C27.0058 29.8445 27.153 29.9208 27.2812 30.0234L33.5312 35.0234C33.6776 35.1406 33.7958 35.2893 33.8769 35.4583C33.958 35.6274 34.0001 35.8125 34 36ZM41.5 39.75H35.25C34.9185 39.75 34.6005 39.8817 34.3661 40.1161C34.1317 40.3505 34 40.6685 34 41C34 41.3315 34.1317 41.6495 34.3661 41.8839C34.6005 42.1183 34.9185 42.25 35.25 42.25H41.5C41.8315 42.25 42.1495 42.1183 42.3839 41.8839C42.6183 41.6495 42.75 41.3315 42.75 41C42.75 40.6685 42.6183 40.3505 42.3839 40.1161C42.1495 39.8817 41.8315 39.75 41.5 39.75ZM50.25 24.75V47.25C50.25 47.913 49.9866 48.5489 49.5178 49.0178C49.0489 49.4866 48.413 49.75 47.75 49.75H20.25C19.587 49.75 18.9511 49.4866 18.4822 49.0178C18.0134 48.5489 17.75 47.913 17.75 47.25V24.75C17.75 24.087 18.0134 23.4511 18.4822 22.9822C18.9511 22.5134 19.587 22.25 20.25 22.25H47.75C48.413 22.25 49.0489 22.5134 49.5178 22.9822C49.9866 23.4511 50.25 24.087 50.25 24.75ZM47.75 47.25V24.75H20.25V47.25H47.75Z" fill="white"/>
</svg>
