<svg width="72" height="72" viewBox="0 0 72 72" fill="none" xmlns="http://www.w3.org/2000/svg">
<rect width="72" height="72" rx="8" fill="#121C16"/>
<path opacity="0.2" d="M31 45.375C31 46.2403 30.7434 47.0862 30.2627 47.8056C29.782 48.5251 29.0987 49.0858 28.2992 49.417C27.4998 49.7481 26.6201 49.8347 25.7715 49.6659C24.9228 49.4971 24.1433 49.0804 23.5314 48.4686C22.9196 47.8567 22.5029 47.0772 22.3341 46.2285C22.1653 45.3799 22.2519 44.5002 22.583 43.7008C22.9142 42.9013 23.4749 42.2181 24.1944 41.7373C24.9138 41.2566 25.7597 41 26.625 41C27.7853 41 28.8981 41.4609 29.7186 42.2814C30.5391 43.1019 31 44.2147 31 45.375Z" fill="white"/>
<path d="M26.6252 39.75C25.5127 39.75 24.4252 40.0799 23.5001 40.698C22.5751 41.3161 21.8541 42.1946 21.4284 43.2224C21.0026 44.2502 20.8912 45.3812 21.1083 46.4724C21.3253 47.5635 21.8611 48.5658 22.6477 49.3525C23.4344 50.1391 24.4367 50.6749 25.5278 50.8919C26.619 51.109 27.75 50.9976 28.7778 50.5718C29.8056 50.1461 30.6841 49.4251 31.3022 48.5001C31.9203 47.5751 32.2502 46.4875 32.2502 45.375C32.2502 43.8832 31.6576 42.4524 30.6027 41.3975C29.5478 40.3426 28.117 39.75 26.6252 39.75ZM26.6252 48.5C26.0071 48.5 25.403 48.3167 24.889 47.9733C24.3751 47.63 23.9746 47.1419 23.7381 46.5709C23.5016 45.9999 23.4397 45.3715 23.5603 44.7653C23.6808 44.1592 23.9785 43.6023 24.4155 43.1653C24.8525 42.7283 25.4094 42.4306 26.0155 42.31C26.6217 42.1895 27.2501 42.2514 27.8211 42.4879C28.3921 42.7244 28.8802 43.1249 29.2235 43.6388C29.5669 44.1527 29.7502 44.7569 29.7502 45.375C29.7502 46.2038 29.421 46.9987 28.8349 47.5847C28.2489 48.1708 27.454 48.5 26.6252 48.5ZM21.3658 32.6156L23.608 30.375L21.3658 28.1344C21.1313 27.8998 20.9995 27.5817 20.9995 27.25C20.9995 26.9183 21.1313 26.6002 21.3658 26.3656C21.6004 26.1311 21.9185 25.9993 22.2502 25.9993C22.5819 25.9993 22.9 26.1311 23.1346 26.3656L25.3752 28.6078L27.6158 26.3656C27.8504 26.1311 28.1685 25.9993 28.5002 25.9993C28.8319 25.9993 29.15 26.1311 29.3846 26.3656C29.6191 26.6002 29.7509 26.9183 29.7509 27.25C29.7509 27.5817 29.6191 27.8998 29.3846 28.1344L27.1424 30.375L29.3846 32.6156C29.6191 32.8502 29.7509 33.1683 29.7509 33.5C29.7509 33.8317 29.6191 34.1498 29.3846 34.3844C29.15 34.6189 28.8319 34.7507 28.5002 34.7507C28.1685 34.7507 27.8504 34.6189 27.6158 34.3844L25.3752 32.1422L23.1346 34.3844C22.9 34.6189 22.5819 34.7507 22.2502 34.7507C21.9185 34.7507 21.6004 34.6189 21.3658 34.3844C21.1313 34.1498 20.9995 33.8317 20.9995 33.5C20.9995 33.1683 21.1313 32.8502 21.3658 32.6156ZM50.6346 47.6156C50.7507 47.7318 50.8428 47.8696 50.9057 48.0214C50.9686 48.1731 51.0009 48.3358 51.0009 48.5C51.0009 48.6642 50.9686 48.8269 50.9057 48.9786C50.8428 49.1304 50.7507 49.2682 50.6346 49.3844C50.5184 49.5005 50.3806 49.5926 50.2288 49.6555C50.0771 49.7183 49.9145 49.7507 49.7502 49.7507C49.586 49.7507 49.4233 49.7183 49.2716 49.6555C49.1198 49.5926 48.982 49.5005 48.8658 49.3844L46.6252 47.1422L44.3846 49.3844C44.15 49.6189 43.8319 49.7507 43.5002 49.7507C43.1685 49.7507 42.8504 49.6189 42.6158 49.3844C42.3813 49.1498 42.2495 48.8317 42.2495 48.5C42.2495 48.1683 42.3813 47.8502 42.6158 47.6156L44.858 45.375L42.6158 43.1344C42.3813 42.8998 42.2495 42.5817 42.2495 42.25C42.2495 41.9183 42.3813 41.6002 42.6158 41.3656C42.8504 41.1311 43.1685 40.9993 43.5002 40.9993C43.8319 40.9993 44.15 41.1311 44.3846 41.3656L46.6252 43.6078L48.8658 41.3656C49.1004 41.1311 49.4185 40.9993 49.7502 40.9993C50.0819 40.9993 50.4 41.1311 50.6346 41.3656C50.8691 41.6002 51.0009 41.9183 51.0009 42.25C51.0009 42.5817 50.8691 42.8998 50.6346 43.1344L48.3924 45.375L50.6346 47.6156ZM43.5736 33.6297C42.608 37.1188 39.6174 40.1344 36.3033 40.9625C36.2011 40.9879 36.0962 41.0005 35.9908 41C35.686 40.9994 35.3919 40.8875 35.1639 40.6853C34.9358 40.4831 34.7895 40.2045 34.7524 39.9019C34.7154 39.5994 34.7901 39.2937 34.9627 39.0425C35.1352 38.7912 35.3936 38.6116 35.6893 38.5375C38.1315 37.9266 40.4315 35.5828 41.158 32.9625C41.6565 31.1656 41.6611 28.4312 38.8596 25.6344L38.5002 25.2672V28.5C38.5002 28.8315 38.3685 29.1495 38.1341 29.3839C37.8997 29.6183 37.5817 29.75 37.2502 29.75C36.9187 29.75 36.6007 29.6183 36.3663 29.3839C36.1319 29.1495 36.0002 28.8315 36.0002 28.5V22.25C36.0002 21.9185 36.1319 21.6005 36.3663 21.3661C36.6007 21.1317 36.9187 21 37.2502 21H43.5002C43.8317 21 44.1497 21.1317 44.3841 21.3661C44.6185 21.6005 44.7502 21.9185 44.7502 22.25C44.7502 22.5815 44.6185 22.8995 44.3841 23.1339C44.1497 23.3683 43.8317 23.5 43.5002 23.5H40.2674L40.6346 23.8656C43.4846 26.7172 44.5283 30.1844 43.5736 33.6297Z" fill="white"/>
</svg>
