<svg width="90" height="46" viewBox="0 0 90 46" fill="none" xmlns="http://www.w3.org/2000/svg">
<g clip-path="url(#clip0_357_934)">
<path d="M59.7214 1.85003L56.8928 2.81432V19.3357V35.8572H60.1071H63.3214V18.3393C63.3214 4.51789 63.225 0.821461 62.9357 0.853603C62.7107 0.853603 61.2643 1.3036 59.7214 1.85003Z" fill="white"/>
<path d="M43.7142 4.83951L40.6606 5.86808L40.5642 14.1931C40.4356 26.0217 40.9821 28.5609 44.3249 32.0967C46.2214 34.0895 48.2785 35.3109 50.9464 36.0181C54.1285 36.8217 53.9999 36.9502 53.9999 33.2859C53.9999 30.1681 53.9678 30.0717 53.2928 30.0717C52.1356 30.0395 50.0785 28.9788 48.9535 27.7895C47.3142 26.0538 46.9285 24.7359 46.9285 20.9109V17.5359H50.4642H53.9999V14.6431V11.7502H50.4642H46.9606L46.8642 7.79665L46.7678 3.84308L43.7142 4.83951Z" fill="white"/>
<path d="M32.1428 11.8786L29.0892 12.9393L29.0249 24.3822L28.9285 35.8572H32.1428H35.357V23.3215C35.357 16.4107 35.3249 10.7858 35.2928 10.8179C35.2285 10.8179 33.8142 11.3 32.1428 11.8786Z" fill="white"/>
<path d="M8.51774 12.0716C5.91417 12.9394 3.7606 14.6108 2.24989 16.893C-0.9644 21.9073 -0.128686 28.4323 4.2106 32.4501C6.74989 34.7966 8.9356 35.6323 12.5356 35.6644C14.432 35.6644 15.6535 35.5037 16.5213 35.118C17.2285 34.7966 17.8713 34.6358 17.9677 34.7323C18.3213 35.118 16.8427 37.2716 15.6535 38.043C13.8856 39.2323 11.7963 39.3287 9.86774 38.3323L8.32489 37.5287L6.2356 39.843L4.14631 42.1251L4.8856 42.7358C6.20346 43.7966 8.51774 44.793 10.5106 45.1787C12.0856 45.4358 12.9535 45.4358 14.7856 45.0501C17.6785 44.4394 19.382 43.443 21.4713 41.1608C23.9785 38.4287 24.4606 36.7894 24.6535 30.393C24.9427 21.393 24.0106 17.6966 20.6677 14.6108C17.5177 11.718 12.632 10.6894 8.51774 12.0716ZM15.2356 18.4358C20.6677 21.618 18.257 29.8787 12.0213 29.3644C8.29274 29.043 5.7856 25.6037 6.71774 22.1001C7.16774 20.4608 9.1606 18.3394 10.6713 17.8894C12.0213 17.4716 14.0142 17.7287 15.2356 18.4358Z" fill="white"/>
<path d="M64.7035 12.1358C64.7678 12.3608 66.9857 17.3429 69.5571 23.1929L74.25 33.8L72.3535 38.4608C69.5893 45.2429 69.4928 44.4715 73.2535 44.6C75.2143 44.6643 76.5321 44.5679 76.6285 44.375C76.6928 44.1822 79.3928 37.4643 82.6071 29.4286C85.8535 21.3929 88.7785 14.1286 89.1 13.2608L89.6785 11.75H86.3678H83.0571L80.3571 18.5322C78.8785 22.2608 77.5607 25.3465 77.4643 25.4108C77.3357 25.475 75.9535 22.4858 74.3785 18.725L71.4857 11.9108L68.0143 11.8143C65.2821 11.75 64.575 11.8143 64.7035 12.1358Z" fill="white"/>
</g>
<defs>
<clipPath id="clip0_357_934">
<rect width="90" height="45" fill="white" transform="translate(0 0.5)"/>
</clipPath>
</defs>
</svg>
