<svg width="92" height="106" viewBox="0 0 92 106" fill="none" xmlns="http://www.w3.org/2000/svg">
<g clip-path="url(#clip0_357_680)">
<path d="M47.8104 29H44.6518C37.1436 29 31 35.1511 31 42.6685V64.3315C31 71.8489 37.1436 78 44.6518 78H47.8104C55.3187 78 61.4622 71.8489 61.4622 64.3315V42.6685C61.4622 35.1511 55.3187 29 47.8104 29Z" fill="#D0CFCE"/>
<path d="M45.8492 35.8303C45.1576 35.8323 44.4949 36.1125 44.0059 36.6097C43.5169 37.1069 43.2412 37.7806 43.2393 38.4837V45.9473C43.2416 46.6502 43.5173 47.3236 44.0063 47.8205C44.4953 48.3174 45.1578 48.5974 45.8492 48.5994C46.5405 48.5974 47.203 48.3174 47.692 47.8205C48.181 47.3236 48.4567 46.6502 48.4591 45.9473V38.4837C48.4571 37.7806 48.1815 37.1069 47.6924 36.6097C47.2034 36.1125 46.5407 35.8323 45.8492 35.8303Z" fill="#3F3F3F"/>
<path d="M44.685 30.7963C48.4942 32.4582 52.1146 34.8429 52.5361 40.8686C53.0244 47.8474 50.4849 60.9145 49.667 67.5518C49.0969 72.1919 46.8394 74.3412 43.8406 76.7758C42.3306 78.0052 50.4686 77.8556 53.8197 75.8636C56.6963 74.1544 59.4824 71.2209 59.5164 72.1484L59.9229 39.1351C59.9229 39.1351 58.7438 30.2603 49.1435 30.2564C49.1435 30.2564 39.5143 29.7537 44.685 30.7963Z" fill="#9B9B9A"/>
<path d="M49.3373 77.267H42.3695C36.1154 77.267 31 72.0665 31 65.7095V41.2907C31 34.9337 36.1166 29.7332 42.3695 29.7332H49.336C55.5902 29.7332 60.7055 34.9337 60.7055 41.2907V65.7095C60.7055 72.0665 55.5889 77.267 49.336 77.267H49.3373Z" stroke="white" stroke-width="2.55556" stroke-miterlimit="10" stroke-linecap="round" stroke-linejoin="round"/>
<g filter="url(#filter0_f_357_680)">
<circle cx="45.5" cy="33.5" r="2.5" fill="#D9D9D9"/>
</g>
<path d="M45.9578 48.6789H45.7464C45.0694 48.6772 44.4206 48.403 43.9419 47.9164C43.4632 47.4297 43.1936 46.7701 43.1919 46.0818V38.3482C43.1919 36.9205 44.3421 35.7524 45.7464 35.7524H45.9578C47.3622 35.7524 48.5124 36.9205 48.5124 38.3495V46.0844C48.5124 47.5121 47.3622 48.6814 45.9578 48.6814V48.6789Z" stroke="white" stroke-width="2.55556" stroke-miterlimit="10" stroke-linecap="round" stroke-linejoin="round"/>
</g>
<defs>
<filter id="filter0_f_357_680" x="41" y="29" width="9" height="9" filterUnits="userSpaceOnUse" color-interpolation-filters="sRGB">
<feFlood flood-opacity="0" result="BackgroundImageFix"/>
<feBlend mode="normal" in="SourceGraphic" in2="BackgroundImageFix" result="shape"/>
<feGaussianBlur stdDeviation="1" result="effect1_foregroundBlur_357_680"/>
</filter>
<clipPath id="clip0_357_680">
<rect width="92" height="106" fill="white"/>
</clipPath>
</defs>
</svg>
