<svg width="72" height="73" viewBox="0 0 72 73" fill="none" xmlns="http://www.w3.org/2000/svg">
<rect x="0.5" y="0.549927" width="71" height="71" rx="19.5" fill="#343330" stroke="#474951"/>
<path d="M52.25 26.0499H48.5V24.7999C48.5 24.1369 48.2366 23.501 47.7678 23.0322C47.2989 22.5633 46.663 22.2999 46 22.2999H26C25.337 22.2999 24.7011 22.5633 24.2322 23.0322C23.7634 23.501 23.5 24.1369 23.5 24.7999V26.0499H19.75C19.087 26.0499 18.4511 26.3133 17.9822 26.7822C17.5134 27.251 17.25 27.8869 17.25 28.5499V31.0499C17.25 32.7075 17.9085 34.2972 19.0806 35.4693C19.6609 36.0497 20.3499 36.5101 21.1082 36.8242C21.8665 37.1383 22.6792 37.2999 23.5 37.2999H24.0703C24.8066 39.6334 26.2106 41.6999 28.1086 43.2442C30.0066 44.7884 32.3155 45.7427 34.75 45.989V49.7999H31C30.6685 49.7999 30.3505 49.9316 30.1161 50.166C29.8817 50.4005 29.75 50.7184 29.75 51.0499C29.75 51.3814 29.8817 51.6994 30.1161 51.9338C30.3505 52.1682 30.6685 52.2999 31 52.2999H41C41.3315 52.2999 41.6495 52.1682 41.8839 51.9338C42.1183 51.6994 42.25 51.3814 42.25 51.0499C42.25 50.7184 42.1183 50.4005 41.8839 50.166C41.6495 49.9316 41.3315 49.7999 41 49.7999H37.25V45.9843C42.2406 45.4796 46.3813 41.9781 47.8875 37.2999H48.5C50.1576 37.2999 51.7473 36.6414 52.9194 35.4693C54.0915 34.2972 54.75 32.7075 54.75 31.0499V28.5499C54.75 27.8869 54.4866 27.251 54.0178 26.7822C53.5489 26.3133 52.913 26.0499 52.25 26.0499ZM23.5 34.7999C22.5054 34.7999 21.5516 34.4048 20.8483 33.7016C20.1451 32.9983 19.75 32.0445 19.75 31.0499V28.5499H23.5V33.5499C23.5 33.9666 23.5203 34.3833 23.5609 34.7999H23.5ZM52.25 31.0499C52.25 32.0445 51.8549 32.9983 51.1516 33.7016C50.4484 34.4048 49.4946 34.7999 48.5 34.7999H48.4219C48.4732 34.3381 48.4993 33.8739 48.5 33.4093V28.5499H52.25V31.0499Z" fill="#52B081"/>
</svg>
