<svg width="99" height="127" viewBox="0 0 99 127" fill="none" xmlns="http://www.w3.org/2000/svg">
<g clip-path="url(#clip0_357_481)">
<path d="M94.062 70.816H91.229C91.0429 70.8161 90.8585 70.7796 90.6865 70.7084C90.5144 70.6373 90.3581 70.5329 90.2264 70.4013C90.0947 70.2697 89.9903 70.1135 89.919 69.9415C89.8477 69.7695 89.811 69.5852 89.811 69.399V66.564C89.811 65.4363 89.3631 64.3548 88.5657 63.5574C87.7683 62.76 86.6867 62.312 85.559 62.312C84.4313 62.312 83.3498 62.76 82.5524 63.5574C81.755 64.3548 81.307 65.4363 81.307 66.564V92.076C81.307 93.2037 81.755 94.2852 82.5524 95.0826C83.3498 95.88 84.4313 96.328 85.559 96.328C86.6867 96.328 87.7683 95.88 88.5657 95.0826C89.3631 94.2852 89.811 93.2037 89.811 92.076V80.737C89.811 79.954 90.446 79.32 91.229 79.32H94.063C95.1907 79.32 96.2723 78.872 97.0697 78.0746C97.8671 77.2772 98.315 76.1957 98.315 75.068C98.315 73.9403 97.8671 72.8588 97.0697 72.0614C96.2723 71.264 95.1897 70.816 94.062 70.816ZM21.779 87.824H16.747C16.6069 87.8239 16.47 87.7822 16.3535 87.7043C16.237 87.6264 16.1463 87.5157 16.0927 87.3862C16.039 87.2568 16.025 87.1143 16.0523 86.9769C16.0796 86.8394 16.147 86.7132 16.246 86.614L24.786 78.074C25.381 77.4795 25.7862 76.7218 25.9504 75.8969C26.1146 75.072 26.0304 74.217 25.7085 73.4399C25.3866 72.6629 24.8414 71.9988 24.1419 71.5317C23.4424 71.0647 22.6201 70.8156 21.779 70.816H4.77104C3.64334 70.816 2.56183 71.264 1.76442 72.0614C0.96702 72.8588 0.519043 73.9403 0.519043 75.068C0.519043 76.1957 0.96702 77.2772 1.76442 78.0746C2.56183 78.872 3.64334 79.32 4.77104 79.32H9.80304C9.9433 79.3199 10.0804 79.3614 10.1971 79.4393C10.3137 79.5172 10.4046 79.628 10.4581 79.7576C10.5117 79.8872 10.5255 80.0299 10.4979 80.1674C10.4703 80.3049 10.4025 80.4311 10.303 80.53L1.76404 89.07C1.16958 89.6647 0.764794 90.4223 0.600864 91.2471C0.436933 92.0718 0.521219 92.9266 0.843065 93.7035C1.16491 94.4803 1.70986 95.1443 2.40903 95.6114C3.10819 96.0786 3.93017 96.328 4.77104 96.328H21.779C22.9067 96.328 23.9883 95.88 24.7857 95.0826C25.5831 94.2852 26.031 93.2037 26.031 92.076C26.031 90.9483 25.5831 89.8668 24.7857 89.0694C23.9883 88.272 22.9067 87.824 21.779 87.824ZM67.133 70.816H58.629C58.0707 70.816 57.5177 70.926 57.0019 71.1397C56.486 71.3534 56.0173 71.6665 55.6224 72.0614C55.2276 72.4562 54.9144 72.925 54.7007 73.4408C54.487 73.9567 54.377 74.5096 54.377 75.068V100.58C54.377 101.708 54.825 102.789 55.6224 103.587C56.4198 104.384 57.5013 104.832 58.629 104.832C59.7567 104.832 60.8383 104.384 61.6357 103.587C62.4331 102.789 62.881 101.708 62.881 100.58V80.737C62.881 79.954 63.516 79.32 64.299 79.32H67.133C69.478 79.32 71.385 81.227 71.385 83.572C71.385 85.917 69.478 87.824 67.134 87.824H65.716C64.933 87.824 64.299 88.458 64.299 89.241V94.911C64.299 95.693 64.933 96.328 65.716 96.328H67.133C74.178 96.328 79.889 90.617 79.889 83.572C79.889 76.527 74.179 70.816 67.133 70.816ZM51.543 87.824H38.787C37.6598 87.8227 36.579 87.3743 35.7819 86.5772C34.9848 85.78 34.5364 84.6993 34.535 83.572C34.5364 82.4447 34.9848 81.364 35.7819 80.5668C36.579 79.7697 37.6598 79.3213 38.787 79.32H41.621C42.404 79.32 43.039 79.954 43.039 80.737V84.989C43.039 85.772 43.673 86.406 44.456 86.406H50.126C50.908 86.406 51.543 85.772 51.543 84.989V75.068C51.543 74.5096 51.4331 73.9567 51.2194 73.4408C51.0057 72.925 50.6925 72.4562 50.2977 72.0614C49.9028 71.6665 49.4341 71.3534 48.9182 71.1397C48.4023 70.926 47.8494 70.816 47.291 70.816H38.787C31.742 70.816 26.031 76.526 26.031 83.572C26.031 90.617 31.741 96.328 38.787 96.328H51.543C52.325 96.328 52.96 95.693 52.96 94.91V89.241C52.96 88.458 52.325 87.824 51.543 87.824ZM73.89 117.208C74.0216 117.34 74.1778 117.444 74.3498 117.515C74.5218 117.587 74.7061 117.623 74.8922 117.623C75.0783 117.623 75.2626 117.587 75.4346 117.516C75.6066 117.444 75.7629 117.34 75.8945 117.209C76.0262 117.077 76.1306 116.921 76.2019 116.749C76.2732 116.577 76.3099 116.392 76.3099 116.206C76.31 116.02 76.2734 115.836 76.2022 115.664C76.131 115.492 76.0266 115.336 75.895 115.204C75.0031 114.312 73.8666 113.705 72.6294 113.459C71.3922 113.212 70.1098 113.339 68.9444 113.822C67.779 114.304 66.7829 115.122 66.0821 116.171C65.3812 117.219 65.0072 118.453 65.0072 119.714C65.0072 120.975 65.3812 122.209 66.0821 123.257C66.7829 124.306 67.779 125.124 68.9444 125.606C70.1098 126.089 71.3922 126.216 72.6294 125.969C73.8666 125.723 75.0031 125.116 75.895 124.224C76.1609 123.958 76.3103 123.598 76.3104 123.222C76.3105 122.846 76.1613 122.485 75.8955 122.22C75.6298 121.954 75.2693 121.804 74.8934 121.804C74.5175 121.804 74.1569 121.953 73.891 122.219C73.2259 122.882 72.3249 123.255 71.3855 123.255C70.4462 123.255 69.5452 122.882 68.88 122.219C67.498 120.838 67.498 118.589 68.88 117.208C70.262 115.827 72.509 115.827 73.89 117.208ZM57.92 113.336C56.16 113.336 54.565 114.049 53.41 115.204C52.255 116.359 51.543 117.952 51.543 119.714C51.543 121.474 52.256 123.069 53.411 124.224C54.0027 124.817 54.7058 125.287 55.4797 125.608C56.2537 125.928 57.0834 126.092 57.921 126.091C58.7588 126.092 59.5885 125.928 60.3625 125.607C61.1364 125.287 61.8394 124.816 62.431 124.223C62.6968 123.957 62.846 123.597 62.8459 123.221C62.8458 122.845 62.6964 122.484 62.4305 122.219C62.1647 121.953 61.8041 121.804 61.4282 121.804C61.0523 121.804 60.6918 121.953 60.426 122.219L60.428 122.214L60.425 122.218C60.0965 122.548 59.7061 122.809 59.2762 122.988C58.8463 123.166 58.3854 123.257 57.92 123.257C57.4547 123.257 56.994 123.165 56.5643 122.987C56.1346 122.808 55.7443 122.547 55.416 122.217C55.106 121.907 54.854 121.539 54.676 121.131H62.881C63.664 121.131 64.299 120.496 64.299 119.713C64.3 118.875 64.1354 118.045 63.8147 117.271C63.4939 116.497 63.0234 115.795 62.43 115.203C61.8384 114.61 61.1353 114.14 60.3613 113.819C59.5874 113.499 58.7577 113.335 57.92 113.336ZM54.675 118.296C54.854 117.889 55.105 117.52 55.416 117.209C55.7444 116.879 56.1347 116.618 56.5644 116.44C56.9941 116.261 57.4548 116.17 57.92 116.17C58.897 116.17 59.783 116.567 60.425 117.21C60.735 117.52 60.987 117.889 61.165 118.296H54.675ZM83.432 113.336C82.121 113.336 80.902 113.732 79.889 114.411V110.501C79.889 110.125 79.7397 109.765 79.4739 109.499C79.208 109.233 78.8475 109.084 78.4715 109.084C78.0956 109.084 77.735 109.233 77.4692 109.499C77.2034 109.765 77.054 110.125 77.054 110.501V124.674C77.054 125.05 77.2034 125.41 77.4692 125.676C77.735 125.942 78.0956 126.092 78.4715 126.092C78.8475 126.092 79.208 125.942 79.4739 125.676C79.7397 125.41 79.889 125.05 79.889 124.674V119.71C79.8912 118.771 80.2652 117.872 80.9293 117.208C81.5934 116.545 82.4933 116.171 83.432 116.17C84.3715 116.171 85.2721 116.545 85.9365 117.209C86.6009 117.873 86.9747 118.774 86.976 119.713V124.674C86.976 125.05 87.1253 125.41 87.3911 125.676C87.6568 125.942 88.0172 126.091 88.393 126.091C88.7689 126.091 89.1293 125.942 89.395 125.676C89.6608 125.41 89.81 125.05 89.81 124.674V119.714C89.81 118.022 89.1381 116.4 87.942 115.204C86.7459 114.008 85.1236 113.336 83.432 113.336ZM52.252 115.462C52.252 114.679 51.617 114.044 50.834 114.044H49.417C49.229 114.044 49.0487 113.969 48.9157 113.836C48.7827 113.703 48.708 113.523 48.708 113.335V110.501C48.708 110.125 48.5587 109.765 48.2929 109.499C48.027 109.233 47.6665 109.084 47.2905 109.084C46.9146 109.084 46.5541 109.233 46.2882 109.499C46.0224 109.765 45.873 110.125 45.873 110.501V113.335C45.8732 113.428 45.855 113.52 45.8195 113.606C45.7839 113.692 45.7318 113.771 45.6661 113.837C45.6003 113.903 45.5223 113.955 45.4363 113.991C45.3503 114.026 45.2582 114.045 45.165 114.045H43.747C43.3804 114.059 43.0334 114.214 42.779 114.478C42.5245 114.743 42.3823 115.095 42.3823 115.462C42.3823 115.829 42.5245 116.181 42.779 116.446C43.0334 116.71 43.3804 116.865 43.747 116.879H45.165C45.556 116.879 45.873 117.196 45.873 117.588V124.674C45.873 125.05 46.0224 125.41 46.2882 125.676C46.5541 125.942 46.9146 126.092 47.2905 126.092C47.6665 126.092 48.027 125.942 48.2929 125.676C48.5587 125.41 48.708 125.05 48.708 124.674V117.588C48.708 117.196 49.025 116.878 49.417 116.878H50.833C51.617 116.878 52.251 116.244 52.251 115.462H52.252ZM67.852 36.85C65.7837 36.8474 63.7862 37.6035 62.238 38.975C60.6848 40.3469 58.6834 41.1035 56.611 41.102H46.399C45.9786 41.1019 45.5677 40.9771 45.2182 40.7435C44.8687 40.5099 44.5963 40.1779 44.4355 39.7895C44.2746 39.4011 44.2325 38.9737 44.3145 38.5614C44.3965 38.1491 44.5988 37.7703 44.896 37.473L62.91 19.459C64.3751 17.9936 66.3249 17.1138 68.393 16.985C70.4576 16.8598 72.4046 15.9817 73.865 14.517C75.0543 13.3277 75.8641 11.8125 76.1922 10.1629C76.5203 8.51337 76.3519 6.80358 75.7083 5.24973C75.0647 3.69589 73.9748 2.36778 72.5764 1.43334C71.178 0.498903 69.5339 0.000101658 67.852 8.28721e-06C65.7838 -0.00288677 63.7864 0.752829 62.238 2.12401C60.6849 3.4963 58.6836 4.25318 56.611 4.25201H42.243C40.1707 4.25234 38.1696 3.49558 36.616 2.12401C35.0677 0.752829 33.0703 -0.00288677 31.002 8.28721e-06C28.7466 8.28721e-06 26.5836 0.895963 24.9888 2.49077C23.394 4.08558 22.498 6.24861 22.498 8.50401C22.498 10.7594 23.394 12.9224 24.9888 14.5172C26.5836 16.1121 28.7466 17.008 31.002 17.008C33.0704 17.0106 35.0678 16.2546 36.616 14.883C38.1692 13.511 40.1706 12.7545 42.243 12.756H52.454C52.8746 12.7559 53.2858 12.8806 53.6355 13.1143C53.9853 13.3479 54.2578 13.6801 54.4187 14.0687C54.5796 14.4573 54.6216 14.8849 54.5395 15.2974C54.4573 15.7099 54.2546 16.0887 53.957 16.386L35.944 34.398C34.4788 35.8637 32.5285 36.7435 30.46 36.872C28.3955 36.9972 26.4485 37.8754 24.988 39.34C23.7988 40.5293 22.989 42.0445 22.6609 43.6941C22.3328 45.3436 22.5012 47.0534 23.1448 48.6073C23.7884 50.1611 24.8783 51.4892 26.2767 52.4237C27.6751 53.3581 29.3192 53.8569 31.001 53.857C33.0696 53.8601 35.0674 53.1043 36.616 51.733C38.1691 50.3606 40.1705 49.6037 42.243 49.605H56.611C58.6834 49.6047 60.6845 50.3614 62.238 51.733C63.7864 53.1042 65.7838 53.8599 67.852 53.857C70.1074 53.857 72.2705 52.9611 73.8653 51.3662C75.4601 49.7714 76.356 47.6084 76.356 45.353C76.356 43.0976 75.4601 40.9346 73.8653 39.3398C72.2705 37.745 70.1074 36.85 67.852 36.85ZM67.852 5.67001C68.6035 5.6708 69.324 5.96961 69.8555 6.50088C70.3869 7.03216 70.686 7.75254 70.687 8.50401C70.6862 9.25565 70.3873 9.97629 69.8558 10.5078C69.3243 11.0393 68.6037 11.3382 67.852 11.339C67.1004 11.3382 66.3798 11.0393 65.8483 10.5078C65.3168 9.97629 65.0178 9.25565 65.017 8.50401C65.0178 7.75236 65.3168 7.03173 65.8483 6.50024C66.3798 5.96874 67.1004 5.6708 67.852 5.67001ZM31.002 11.339C30.2504 11.3382 29.5298 11.0393 28.9983 10.5078C28.4668 9.97629 28.1678 9.25565 28.167 8.50401C28.167 6.94101 29.438 5.67001 31.001 5.67001C32.564 5.67001 33.836 6.94101 33.836 8.50401C33.8353 9.25565 33.5363 9.97629 33.0048 10.5078C32.4733 11.0393 31.7537 11.3382 31.002 11.339ZM31.002 48.189C30.2506 48.1882 29.5301 47.8894 28.9986 47.3581C28.4672 46.8269 28.1681 46.1065 28.167 45.355C28.1678 44.6035 28.4666 43.8831 28.9979 43.3516C29.5292 42.8201 30.2496 42.5211 31.001 42.52C31.7527 42.5208 32.4733 42.8197 33.0048 43.3512C33.5363 43.8827 33.8353 44.6034 33.836 45.355C33.835 46.1065 33.5359 46.8269 33.0045 47.3581C32.473 47.8894 31.7535 48.1882 31.002 48.189ZM67.852 48.189C67.1006 48.1882 66.3801 47.8894 65.8486 47.3581C65.3172 46.8269 65.0181 46.1065 65.017 45.355C65.0178 44.6034 65.3168 43.8827 65.8483 43.3512C66.3798 42.8197 67.1004 42.5208 67.852 42.52C68.6037 42.5208 69.3243 42.8197 69.8558 43.3512C70.3873 43.8827 70.6862 44.6034 70.687 45.355C70.686 46.1065 70.3869 46.8269 69.8555 47.3581C69.324 47.8894 68.6035 48.1882 67.852 48.189Z" fill="white"/>
</g>
<defs>
<clipPath id="clip0_357_481">
<rect width="97.795" height="126.092" fill="white" transform="translate(0.519043)"/>
</clipPath>
</defs>
</svg>
