<svg width="10" height="18" viewBox="0 0 10 18" fill="none" xmlns="http://www.w3.org/2000/svg">
<path d="M8.8568 9.62266L1.3568 17.1227C1.28712 17.1923 1.20439 17.2476 1.11335 17.2853C1.0223 17.323 0.924723 17.3424 0.826177 17.3424C0.727631 17.3424 0.630049 17.323 0.539005 17.2853C0.44796 17.2476 0.365234 17.1923 0.295552 17.1227C0.225869 17.053 0.170594 16.9702 0.132882 16.8792C0.0951697 16.7882 0.0757599 16.6906 0.0757599 16.592C0.0757599 16.4935 0.0951697 16.3959 0.132882 16.3049C0.170594 16.2138 0.225869 16.1311 0.295552 16.0614L7.26586 9.09203L0.295552 2.12266C0.154821 1.98193 0.0757599 1.79105 0.0757599 1.59203C0.0757599 1.39301 0.154821 1.20214 0.295552 1.06141C0.436282 0.920675 0.627154 0.841614 0.826177 0.841614C1.0252 0.841614 1.21607 0.920675 1.3568 1.06141L8.8568 8.56141C8.92653 8.63106 8.98185 8.71378 9.0196 8.80483C9.05734 8.89587 9.07677 8.99347 9.07677 9.09203C9.07677 9.19059 9.05734 9.28819 9.0196 9.37924C8.98185 9.47028 8.92653 9.553 8.8568 9.62266Z" fill="#C9FFEC"/>
</svg>
