<svg width="10" height="18" viewBox="0 0 10 18" fill="none" xmlns="http://www.w3.org/2000/svg">
<path d="M9.70443 16.0614C9.77412 16.1311 9.82939 16.2138 9.8671 16.3049C9.90481 16.3959 9.92423 16.4935 9.92423 16.592C9.92423 16.6906 9.90481 16.7882 9.8671 16.8792C9.82939 16.9702 9.77412 17.053 9.70443 17.1227C9.63475 17.1923 9.55202 17.2476 9.46098 17.2853C9.36994 17.323 9.27235 17.3424 9.17381 17.3424C9.07526 17.3424 8.97768 17.323 8.88664 17.2853C8.79559 17.2476 8.71287 17.1923 8.64318 17.1227L1.14318 9.62266C1.07345 9.553 1.01813 9.47028 0.980388 9.37924C0.942645 9.28819 0.923218 9.19059 0.923218 9.09203C0.923218 8.99347 0.942645 8.89587 0.980388 8.80483C1.01813 8.71378 1.07345 8.63106 1.14318 8.56141L8.64318 1.06141C8.78391 0.920675 8.97478 0.841614 9.17381 0.841614C9.37283 0.841614 9.5637 0.920675 9.70443 1.06141C9.84516 1.20214 9.92423 1.39301 9.92423 1.59203C9.92423 1.79105 9.84516 1.98193 9.70443 2.12266L2.73412 9.09203L9.70443 16.0614Z" fill="#C9FFEC"/>
</svg>
