<svg width="1920" height="1505" viewBox="0 0 1920 1505" fill="none" xmlns="http://www.w3.org/2000/svg">
<g opacity="0.39">
<g opacity="0.6" filter="url(#filter0_f_149_6777)">
<ellipse cx="729.932" cy="593.494" rx="538.364" ry="359.219" fill="#146237"/>
</g>
<g opacity="0.6" filter="url(#filter1_f_149_6777)">
<circle cx="313.479" cy="733.087" r="359.219" fill="#073418"/>
</g>
<g filter="url(#filter2_f_149_6777)">
<path d="M541.799 539.598C366.25 538.177 134.555 612.094 164.405 1042.8C653.856 1071.71 1640.15 1128.95 1669.72 1126.67C1706.67 1123.83 1990.25 743.582 2000.91 732.92C2011.57 722.259 2059.19 625.598 1753.58 376.838C1447.97 128.078 1189.98 319.445 1010.88 445.069C831.774 570.694 717.347 541.02 541.799 539.598Z" fill="#11562F"/>
</g>
<mask id="mask0_149_6777" style="mask-type:alpha" maskUnits="userSpaceOnUse" x="950" y="241" width="795" height="689">
<ellipse cx="1347.22" cy="585.242" rx="450.926" ry="269.676" transform="rotate(-36.2854 1347.22 585.242)" fill="url(#paint0_radial_149_6777)"/>
</mask>
<g mask="url(#mask0_149_6777)">
<path d="M952.337 826.372C896.082 847.963 883.722 870.081 850.447 921.918L1391.92 1123.08C1529.89 913.171 1769.02 511.192 1674.06 473.19C1574.7 433.425 1423.23 449.987 1330.34 495.506C1237.44 541.025 1162.58 692.997 1127.41 747.083C1094.83 797.193 1008.59 804.781 952.337 826.372Z" fill="#1F854E"/>
<g filter="url(#filter3_f_149_6777)">
<path d="M952.337 825.442C896.082 847.033 883.722 869.151 850.447 920.988L1391.92 1122.15C1529.89 912.241 1735.03 449.094 1640.08 411.092C1564.99 381.042 1428.52 453.271 1358.57 494.775C1335.95 508.192 1351.95 523.399 1337.78 524.356C1234.57 531.323 1162.58 692.066 1127.41 746.153C1094.83 796.262 1008.59 803.85 952.337 825.442Z" fill="#1F854E"/>
</g>
<g filter="url(#filter4_f_149_6777)">
<path d="M937.447 818.927C881.192 840.518 868.832 862.636 835.557 914.474L1391.92 1123.08C1529.89 913.171 1649.9 488.857 1554.94 450.855C1465.87 415.209 1414.3 457.531 1342.28 498.892C1333.96 503.671 1347.4 505.682 1337.78 510.396C1244.89 555.915 1147.69 685.552 1112.52 739.639C1079.94 789.748 993.701 797.336 937.447 818.927Z" fill="#1F854E"/>
</g>
<g filter="url(#filter5_f_149_6777)">
<path d="M922.557 811.482C866.303 833.073 853.942 855.191 820.667 907.029L1391.92 1123.08C1529.89 913.171 1791.35 436.742 1696.4 398.74C1616.25 366.666 1474.48 444.589 1386.48 478.94C1365.39 487.176 1352.95 503.454 1334.99 512.257C1242.09 557.776 1132.8 678.107 1097.63 732.193C1065.05 782.303 978.811 789.891 922.557 811.482Z" fill="#1F854E"/>
</g>
<g filter="url(#filter6_f_149_6777)">
<path d="M875.095 791.148C818.841 812.74 806.481 834.857 773.205 886.695L1359.34 1117.64C1497.31 907.727 1617.33 483.414 1522.37 445.412C1448.73 415.939 1392.73 476.581 1357.63 498.385C1345.38 505.998 1380.53 519.044 1353.91 519.044C1251.08 519.044 1270.52 627.284 1101.25 698.654C1046.17 721.876 931.349 769.557 875.095 791.148Z" fill="#1F854E"/>
</g>
</g>
<g opacity="0.6" filter="url(#filter7_f_149_6777)">
<circle cx="1453.95" cy="719.593" r="153.087" fill="#81CFAC"/>
</g>
<g opacity="0.3" filter="url(#filter8_f_149_6777)">
<ellipse cx="777.393" cy="723.316" rx="342.934" ry="153.087" fill="black"/>
</g>
<g opacity="0.6" filter="url(#filter9_f_149_6777)">
<ellipse cx="1097.81" cy="679.186" rx="153.087" ry="45.3374" transform="rotate(-41.2443 1097.81 679.186)" fill="#001D09"/>
</g>
<mask id="mask1_149_6777" style="mask-type:alpha" maskUnits="userSpaceOnUse" x="-391" y="307" width="1370" height="907">
<path d="M-192.144 1213.93C-243.293 918.741 -387.266 474.643 -391 460.149L978.573 307.65L913.405 1020.49L-192.144 1213.93Z" fill="url(#paint1_linear_149_6777)"/>
</mask>
<g mask="url(#mask1_149_6777)">
<path d="M216.754 518.766C341.446 496.949 458.742 549.813 469.911 613.652C481.081 677.49 445.264 770.099 311.481 793.506C245.185 805.106 172.156 861.865 87.8283 843.856C1.98581 825.524 4.98346 735.266 -0.65114 703.062C-11.8209 639.223 92.063 540.583 216.754 518.766Z" fill="#52B081"/>
<g filter="url(#filter10_f_149_6777)">
<path d="M216.218 524.495C349.946 501.097 456.362 545.559 465.963 600.432C475.564 655.306 437.709 736.146 303.98 759.544C237.711 771.139 163.916 823.326 80.402 809.776C-4.61266 795.982 0.516914 717.953 -4.3264 690.272C-13.9276 635.398 82.489 547.893 216.218 524.495Z" fill="#52B081"/>
</g>
<g filter="url(#filter11_f_149_6777)">
<path d="M220.269 523.787C370.152 497.562 490.624 554.255 502.461 621.907C514.298 689.559 473.282 788.236 323.398 814.46C249.123 827.456 168.264 896.521 74.1244 878.272C-21.7059 859.694 -18.4254 758.129 -24.3966 724.001C-36.2337 656.349 70.3851 550.012 220.269 523.787Z" fill="#52B081"/>
</g>
<g filter="url(#filter12_f_149_6777)">
<path d="M238.969 528.772C426.925 512.989 595.561 573.914 609.415 653.093C623.268 732.271 544.321 834.301 364.565 865.752C275.488 881.338 176.076 987.67 63.3455 966.758C-51.4103 945.47 -45.8082 833.194 -52.7967 793.253C-66.6504 714.074 21.2326 547.057 238.969 528.772Z" fill="#52B081"/>
</g>
<g filter="url(#filter13_f_149_6777)">
<path d="M306.923 549.907C500.473 516.042 684.947 588.902 698.492 666.315C712.037 743.728 625.548 845.111 431.998 878.976C336.085 895.758 224.797 945.678 104.099 927.066C-18.7672 908.12 -10.864 797.923 -17.6967 758.871C-31.2416 681.458 113.373 583.772 306.923 549.907Z" fill="#52B081"/>
</g>
<g filter="url(#filter14_f_149_6777)">
<path d="M387.661 567.627C587.677 532.631 778.125 606.843 791.979 686.021C805.833 765.199 716.299 869.081 516.283 904.078C417.166 921.42 302.106 972.695 177.447 953.87C50.5486 934.707 58.9117 821.948 51.9232 782.006C38.0695 702.828 187.646 602.624 387.661 567.627Z" fill="#52B081"/>
</g>
<g filter="url(#filter15_f_149_6777)">
<path d="M235.02 581.358C410.034 550.736 578.958 628.714 592.812 707.892C606.666 787.071 530.196 888.667 355.182 919.289C268.454 934.464 166.835 973.95 56.8965 952.55C-55.0174 930.765 -50.0615 818.602 -57.05 778.661C-70.9038 699.482 60.0063 611.98 235.02 581.358Z" fill="#52B081"/>
</g>
</g>
</g>
<defs>
<filter id="filter0_f_149_6777" x="-220.432" y="-177.725" width="1900.73" height="1542.44" filterUnits="userSpaceOnUse" color-interpolation-filters="sRGB">
<feFlood flood-opacity="0" result="BackgroundImageFix"/>
<feBlend mode="normal" in="SourceGraphic" in2="BackgroundImageFix" result="shape"/>
<feGaussianBlur stdDeviation="206" result="effect1_foregroundBlur_149_6777"/>
</filter>
<filter id="filter1_f_149_6777" x="-457.74" y="-38.1323" width="1542.44" height="1542.44" filterUnits="userSpaceOnUse" color-interpolation-filters="sRGB">
<feFlood flood-opacity="0" result="BackgroundImageFix"/>
<feBlend mode="normal" in="SourceGraphic" in2="BackgroundImageFix" result="shape"/>
<feGaussianBlur stdDeviation="206" result="effect1_foregroundBlur_149_6777"/>
</filter>
<filter id="filter2_f_149_6777" x="5.78796" y="99.6775" width="2160.21" height="1183.06" filterUnits="userSpaceOnUse" color-interpolation-filters="sRGB">
<feFlood flood-opacity="0" result="BackgroundImageFix"/>
<feBlend mode="normal" in="SourceGraphic" in2="BackgroundImageFix" result="shape"/>
<feGaussianBlur stdDeviation="78" result="effect1_foregroundBlur_149_6777"/>
</filter>
<filter id="filter3_f_149_6777" x="830.447" y="383.973" width="853.884" height="758.18" filterUnits="userSpaceOnUse" color-interpolation-filters="sRGB">
<feFlood flood-opacity="0" result="BackgroundImageFix"/>
<feBlend mode="normal" in="SourceGraphic" in2="BackgroundImageFix" result="shape"/>
<feGaussianBlur stdDeviation="10" result="effect1_foregroundBlur_149_6777"/>
</filter>
<filter id="filter4_f_149_6777" x="807.557" y="409.473" width="809.376" height="741.611" filterUnits="userSpaceOnUse" color-interpolation-filters="sRGB">
<feFlood flood-opacity="0" result="BackgroundImageFix"/>
<feBlend mode="normal" in="SourceGraphic" in2="BackgroundImageFix" result="shape"/>
<feGaussianBlur stdDeviation="14" result="effect1_foregroundBlur_149_6777"/>
</filter>
<filter id="filter5_f_149_6777" x="784.667" y="355.157" width="968.026" height="803.926" filterUnits="userSpaceOnUse" color-interpolation-filters="sRGB">
<feFlood flood-opacity="0" result="BackgroundImageFix"/>
<feBlend mode="normal" in="SourceGraphic" in2="BackgroundImageFix" result="shape"/>
<feGaussianBlur stdDeviation="18" result="effect1_foregroundBlur_149_6777"/>
</filter>
<filter id="filter6_f_149_6777" x="721.205" y="385.487" width="887.155" height="784.153" filterUnits="userSpaceOnUse" color-interpolation-filters="sRGB">
<feFlood flood-opacity="0" result="BackgroundImageFix"/>
<feBlend mode="normal" in="SourceGraphic" in2="BackgroundImageFix" result="shape"/>
<feGaussianBlur stdDeviation="26" result="effect1_foregroundBlur_149_6777"/>
</filter>
<filter id="filter7_f_149_6777" x="1088.87" y="354.506" width="730.174" height="730.174" filterUnits="userSpaceOnUse" color-interpolation-filters="sRGB">
<feFlood flood-opacity="0" result="BackgroundImageFix"/>
<feBlend mode="normal" in="SourceGraphic" in2="BackgroundImageFix" result="shape"/>
<feGaussianBlur stdDeviation="106" result="effect1_foregroundBlur_149_6777"/>
</filter>
<filter id="filter8_f_149_6777" x="222.46" y="358.229" width="1109.87" height="730.174" filterUnits="userSpaceOnUse" color-interpolation-filters="sRGB">
<feFlood flood-opacity="0" result="BackgroundImageFix"/>
<feBlend mode="normal" in="SourceGraphic" in2="BackgroundImageFix" result="shape"/>
<feGaussianBlur stdDeviation="106" result="effect1_foregroundBlur_149_6777"/>
</filter>
<filter id="filter9_f_149_6777" x="766.858" y="360.629" width="661.906" height="637.113" filterUnits="userSpaceOnUse" color-interpolation-filters="sRGB">
<feFlood flood-opacity="0" result="BackgroundImageFix"/>
<feBlend mode="normal" in="SourceGraphic" in2="BackgroundImageFix" result="shape"/>
<feGaussianBlur stdDeviation="106" result="effect1_foregroundBlur_149_6777"/>
</filter>
<filter id="filter10_f_149_6777" x="-12.525" y="510.572" width="487.438" height="308.973" filterUnits="userSpaceOnUse" color-interpolation-filters="sRGB">
<feFlood flood-opacity="0" result="BackgroundImageFix"/>
<feBlend mode="normal" in="SourceGraphic" in2="BackgroundImageFix" result="shape"/>
<feGaussianBlur stdDeviation="3.76999" result="effect1_foregroundBlur_149_6777"/>
</filter>
<filter id="filter11_f_149_6777" x="-51.6833" y="490.858" width="582.45" height="416.854" filterUnits="userSpaceOnUse" color-interpolation-filters="sRGB">
<feFlood flood-opacity="0" result="BackgroundImageFix"/>
<feBlend mode="normal" in="SourceGraphic" in2="BackgroundImageFix" result="shape"/>
<feGaussianBlur stdDeviation="13.195" result="effect1_foregroundBlur_149_6777"/>
</filter>
<filter id="filter12_f_149_6777" x="-91.9027" y="488.569" width="740.565" height="518.602" filterUnits="userSpaceOnUse" color-interpolation-filters="sRGB">
<feFlood flood-opacity="0" result="BackgroundImageFix"/>
<feBlend mode="normal" in="SourceGraphic" in2="BackgroundImageFix" result="shape"/>
<feGaussianBlur stdDeviation="18.8499" result="effect1_foregroundBlur_149_6777"/>
</filter>
<filter id="filter13_f_149_6777" x="-120.365" y="439.595" width="922.02" height="593.355" filterUnits="userSpaceOnUse" color-interpolation-filters="sRGB">
<feFlood flood-opacity="0" result="BackgroundImageFix"/>
<feBlend mode="normal" in="SourceGraphic" in2="BackgroundImageFix" result="shape"/>
<feGaussianBlur stdDeviation="50.8948" result="effect1_foregroundBlur_149_6777"/>
</filter>
<filter id="filter14_f_149_6777" x="-201.556" y="306.14" width="1247.51" height="904.41" filterUnits="userSpaceOnUse" color-interpolation-filters="sRGB">
<feFlood flood-opacity="0" result="BackgroundImageFix"/>
<feBlend mode="normal" in="SourceGraphic" in2="BackgroundImageFix" result="shape"/>
<feGaussianBlur stdDeviation="126.295" result="effect1_foregroundBlur_149_6777"/>
</filter>
<filter id="filter15_f_149_6777" x="-174.925" y="457.675" width="886.197" height="617.963" filterUnits="userSpaceOnUse" color-interpolation-filters="sRGB">
<feFlood flood-opacity="0" result="BackgroundImageFix"/>
<feBlend mode="normal" in="SourceGraphic" in2="BackgroundImageFix" result="shape"/>
<feGaussianBlur stdDeviation="58.4348" result="effect1_foregroundBlur_149_6777"/>
</filter>
<radialGradient id="paint0_radial_149_6777" cx="0" cy="0" r="1" gradientUnits="userSpaceOnUse" gradientTransform="translate(1424.5 542.058) rotate(103.875) scale(322.262 518.614)">
<stop offset="0.120131" stop-color="#C4C4C4"/>
<stop offset="0.692585" stop-color="#C4C4C4" stop-opacity="0"/>
</radialGradient>
<linearGradient id="paint1_linear_149_6777" x1="169.041" y1="555.515" x2="269.308" y2="1038.94" gradientUnits="userSpaceOnUse">
<stop stop-color="#C4C4C4"/>
<stop offset="1" stop-color="#C4C4C4" stop-opacity="0"/>
</linearGradient>
</defs>
</svg>
