<svg width="72" height="72" viewBox="0 0 72 72" fill="none" xmlns="http://www.w3.org/2000/svg">
<rect x="0.5" y="0.5" width="71" height="71" rx="19.5" fill="#343330" stroke="#474951"/>
<path d="M51.9891 38.0406C51.5803 37.7256 51.1117 37.4971 50.6118 37.369C50.1119 37.2408 49.5911 37.2158 49.0812 37.2953C52.0156 34.3328 53.5 31.3875 53.5 28.5C53.5 24.3641 50.1734 21 46.0844 21C44.9994 20.9932 43.9261 21.224 42.9397 21.6761C41.9534 22.1282 41.078 22.7908 40.375 23.6172C39.672 22.7908 38.7966 22.1282 37.8103 21.6761C36.8239 21.224 35.7506 20.9932 34.6656 21C30.5766 21 27.25 24.3641 27.25 28.5C27.25 30.2188 27.7562 31.8891 28.8219 33.6563C27.9491 33.8774 27.1526 34.331 26.5172 34.9688L22.9828 38.5H18.5C17.837 38.5 17.2011 38.7634 16.7322 39.2323C16.2634 39.7011 16 40.337 16 41V47.25C16 47.9131 16.2634 48.5489 16.7322 49.0178C17.2011 49.4866 17.837 49.75 18.5 49.75H34.75C34.8522 49.7501 34.954 49.7375 35.0531 49.7125L45.0531 47.2125C45.1169 47.1973 45.1791 47.1764 45.2391 47.15L51.3125 44.5656L51.3812 44.5344C51.965 44.2427 52.4648 43.8073 52.8337 43.269C53.2026 42.7308 53.4284 42.1075 53.4898 41.4579C53.5512 40.8083 53.4463 40.1537 53.1848 39.5558C52.9233 38.958 52.514 38.4366 51.9953 38.0406H51.9891ZM50.2859 42.2828L44.3484 44.811L34.5938 47.25H24.75V40.2672L28.2859 36.7328C28.5172 36.4997 28.7926 36.3148 29.096 36.189C29.3993 36.0632 29.7247 35.999 30.0531 36H37.875C38.3723 36 38.8492 36.1976 39.2008 36.5492C39.5525 36.9008 39.75 37.3777 39.75 37.875C39.75 38.3723 39.5525 38.8492 39.2008 39.2008C38.8492 39.5525 38.3723 39.75 37.875 39.75H33.5C33.1685 39.75 32.8505 39.8817 32.6161 40.1161C32.3817 40.3506 32.25 40.6685 32.25 41C32.25 41.3315 32.3817 41.6495 32.6161 41.8839C32.8505 42.1183 33.1685 42.25 33.5 42.25H38.5C38.5941 42.2498 38.6879 42.2393 38.7797 42.2188L49.2484 39.811L49.2969 39.7985C49.6165 39.7097 49.9576 39.7423 50.2545 39.89C50.5515 40.0376 50.7834 40.2899 50.9056 40.5983C51.0278 40.9066 51.0316 41.2492 50.9163 41.5602C50.8011 41.8712 50.5749 42.1286 50.2812 42.2828H50.2859Z" fill="#52B081"/>
</svg>
