<svg width="132" height="26" viewBox="0 0 132 26" fill="none" xmlns="http://www.w3.org/2000/svg">
<path d="M8.93277 25.4714H4.01184V13.073H0.659607V9.03632H4.01171V6.16395C4.01171 2.76019 5.49435 0.319031 10.402 0.319031C11.4399 0.319031 13.0695 0.530479 13.0695 0.530479V4.27874H11.3579C9.61395 4.27874 8.93303 4.81488 8.93303 6.29713V9.03632H13.0042L12.6417 13.073H8.9329L8.93277 25.4714ZM20.224 8.71374C20.1523 8.71374 20.0785 8.71638 20.0055 8.71823C15.4425 8.71823 13.3548 12.1872 13.3548 17.1115C13.3548 23.3148 16.0628 25.7975 20.0411 25.7975C22.3173 25.7975 23.8127 24.8292 24.7217 23.0223V25.4731H29.4022V9.03804H24.7217V11.5655C23.9795 9.9394 22.4423 8.73301 20.224 8.71374ZM21.4141 12.5973C23.3306 12.5973 24.4808 13.9483 24.4808 16.2464L24.4853 18.5936C24.4853 20.1425 23.5352 21.9546 21.4141 21.9546C18.1531 21.9546 18.2402 18.3959 18.2402 17.2106C18.2402 13.2236 19.9777 12.5973 21.4141 12.5973ZM31.2924 17.2564C31.2924 15.2593 31.1978 8.72443 39.6217 8.72443C43.0032 8.72443 44.4152 9.81111 44.4152 9.81111L43.2803 13.3686C43.2803 13.3686 41.8701 12.5838 40.0327 12.5838C37.6792 12.5838 36.1775 13.9627 36.1775 16.3888L36.1801 18.1285C36.1801 20.4597 37.6291 22.0158 40.0375 22.0158C41.7115 22.0158 43.2543 21.2236 43.2543 21.2236L44.3863 24.7069C44.3863 24.7069 43.0953 25.8004 39.6453 25.8004C31.6245 25.8004 31.2925 19.9374 31.2925 17.2564H31.2924ZM71.8587 8.71823C76.4218 8.71823 78.5424 12.1872 78.5424 17.1115C78.5424 23.3148 75.8343 25.7975 71.856 25.7975C69.5798 25.7975 67.8972 24.8294 66.9883 23.0223V25.4731L62.3667 25.4712V0.818746L67.2737 0.386214V11.3429C67.9819 9.42596 70.3093 8.71823 71.8588 8.71823H71.8587ZM70.483 12.5973C68.5666 12.5973 67.2737 13.9483 67.2737 16.2464L67.2691 18.5936C67.2662 20.1425 68.1645 21.9546 70.483 21.9546C73.744 21.9546 73.6569 18.3959 73.6569 17.2106C73.6569 13.2236 71.9196 12.5973 70.483 12.5973ZM52.9292 8.73182C47.7537 8.73182 45.0214 11.5837 45.0214 16.6519V17.5935C45.0214 24.1715 48.8584 25.8651 53.4329 25.8651C57.8792 25.8651 59.8918 24.6081 59.8918 24.6081L58.9736 21.2609C58.9736 21.2609 56.6062 22.2789 54.0212 22.2789C51.3414 22.2789 50.1889 21.5886 49.8935 18.9857H60.2841V16.3004C60.2841 10.8028 57.2176 8.73169 52.929 8.73169L52.9292 8.73182ZM53.0539 12.0836C54.8454 12.0836 56.0062 13.1939 55.9425 15.7689H49.9025C50.0072 13.0587 51.2591 12.0837 53.0539 12.0837V12.0836ZM88.3267 8.70925C83.0119 8.70925 80.2139 11.7363 80.2139 17.161C80.2139 24.6039 85.037 25.802 88.3356 25.802C93.1644 25.802 96.377 23.1745 96.377 17.2286C96.377 11.0399 92.7648 8.70925 88.3267 8.70925ZM88.2598 12.6108C90.5968 12.6108 91.5228 14.3785 91.5228 16.3907V18.1207C91.5228 20.5583 90.2271 21.9682 88.2509 21.9682C86.4028 21.9682 85.1039 20.6494 85.1039 18.1207V16.3907C85.1039 13.6939 86.6495 12.6108 88.2598 12.6108ZM106.153 8.70925C100.838 8.70925 98.0398 11.7363 98.0398 17.161C98.0398 24.6039 102.863 25.802 106.161 25.802C110.99 25.802 114.203 23.1745 114.203 17.2286C114.203 11.0399 110.591 8.70925 106.153 8.70925ZM106.086 12.6108C108.423 12.6108 109.349 14.3785 109.349 16.3907V18.1207C109.349 20.5583 108.053 21.9682 106.077 21.9682C104.229 21.9682 102.93 20.6494 102.93 18.1207V16.3907C102.93 13.6939 104.475 12.6108 106.086 12.6108ZM116.057 25.4714V0.818746L120.978 0.386214V16.9099L125.861 9.03632H131.058L125.965 17.1911L131.254 25.4714H126.042L120.978 17.4313V25.4714H116.057Z" fill="#BCBACD"/>
</svg>
