<svg width="37" height="37" viewBox="0 0 37 37" fill="none" xmlns="http://www.w3.org/2000/svg">
<rect x="0.5" y="0.0917969" width="36" height="36" rx="8" fill="#11562F"/>
<path fill-rule="evenodd" clip-rule="evenodd" d="M9.5 18.0918C9.5 14.4967 9.5 12.6991 10.3567 11.4043C10.7392 10.8262 11.2344 10.331 11.8126 9.94849C13.1073 9.0918 14.9049 9.0918 18.5 9.0918C22.0951 9.0918 23.8927 9.0918 25.1874 9.94849C25.7656 10.331 26.2608 10.8262 26.6433 11.4043C27.5 12.6991 27.5 14.4967 27.5 18.0918C27.5 21.6869 27.5 23.4845 26.6433 24.7792C26.2608 25.3574 25.7656 25.8526 25.1874 26.2351C23.8927 27.0918 22.0951 27.0918 18.5 27.0918C14.9049 27.0918 13.1073 27.0918 11.8126 26.2351C11.2344 25.8526 10.7392 25.3574 10.3567 24.7792C9.5 23.4845 9.5 21.6869 9.5 18.0918ZM23.1593 18.092C23.1593 20.6653 21.0732 22.7514 18.4998 22.7514C15.9265 22.7514 13.8404 20.6653 13.8404 18.092C13.8404 15.5187 15.9265 13.4326 18.4998 13.4326C21.0732 13.4326 23.1593 15.5187 23.1593 18.092ZM18.4998 21.175C20.2025 21.175 21.5828 19.7947 21.5828 18.092C21.5828 16.3893 20.2025 15.009 18.4998 15.009C16.7971 15.009 15.4168 16.3893 15.4168 18.092C15.4168 19.7947 16.7971 21.175 18.4998 21.175ZM23.3433 14.2933C23.9479 14.2933 24.4381 13.8032 24.4381 13.1985C24.4381 12.5939 23.9479 12.1037 23.3433 12.1037C22.7386 12.1037 22.2485 12.5939 22.2485 13.1985C22.2485 13.8032 22.7386 14.2933 23.3433 14.2933Z" fill="#C9FFEC"/>
</svg>
