<svg width="36" height="37" viewBox="0 0 36 37" fill="none" xmlns="http://www.w3.org/2000/svg">
<rect y="0.327148" width="36" height="36" rx="8" fill="#11562F"/>
<path fill-rule="evenodd" clip-rule="evenodd" d="M9 18.3271C9 14.732 9 12.9344 9.85669 11.6397C10.2392 11.0615 10.7344 10.5664 11.3126 10.1838C12.6073 9.32715 14.4049 9.32715 18 9.32715C21.5951 9.32715 23.3927 9.32715 24.6874 10.1838C25.2656 10.5664 25.7608 11.0615 26.1433 11.6397C27 12.9344 27 14.732 27 18.3271C27 21.9223 27 23.7199 26.1433 25.0146C25.7608 25.5928 25.2656 26.0879 24.6874 26.4705C23.3927 27.3271 21.5951 27.3271 18 27.3271C14.4049 27.3271 12.6073 27.3271 11.3126 26.4705C10.7344 26.0879 10.2392 25.5928 9.85669 25.0146C9 23.7199 9 21.9223 9 18.3271ZM22.6593 18.3274C22.6593 20.9007 20.5732 22.9868 17.9998 22.9868C15.4265 22.9868 13.3404 20.9007 13.3404 18.3274C13.3404 15.7541 15.4265 13.668 17.9998 13.668C20.5732 13.668 22.6593 15.7541 22.6593 18.3274ZM17.9998 21.4104C19.7025 21.4104 21.0828 20.0301 21.0828 18.3274C21.0828 16.6247 19.7025 15.2444 17.9998 15.2444C16.2971 15.2444 14.9168 16.6247 14.9168 18.3274C14.9168 20.0301 16.2971 21.4104 17.9998 21.4104ZM22.8433 14.5287C23.4479 14.5287 23.9381 14.0385 23.9381 13.4339C23.9381 12.8292 23.4479 12.3391 22.8433 12.3391C22.2386 12.3391 21.7485 12.8292 21.7485 13.4339C21.7485 14.0385 22.2386 14.5287 22.8433 14.5287Z" fill="#C9FFEC"/>
</svg>
