<svg width="37" height="37" viewBox="0 0 37 37" fill="none" xmlns="http://www.w3.org/2000/svg">
<rect x="0.5" y="0.0917969" width="36" height="36" rx="8" fill="#11562F"/>
<path d="M9.5 11.5118C9.5 10.9346 9.70271 10.4584 10.1081 10.0833C10.5135 9.70809 11.0405 9.52051 11.6892 9.52051C12.3263 9.52051 12.8417 9.7052 13.2355 10.0746C13.6409 10.4556 13.8436 10.952 13.8436 11.5638C13.8436 12.1179 13.6467 12.5797 13.2529 12.9491C12.8475 13.33 12.3147 13.5205 11.6544 13.5205H11.6371C11 13.5205 10.4846 13.33 10.0907 12.9491C9.69691 12.5681 9.5 12.089 9.5 11.5118ZM9.72587 26.6634V15.0963H13.583V26.6634H9.72587ZM15.7201 26.6634H19.5772V20.2045C19.5772 19.8004 19.6236 19.4887 19.7162 19.2694C19.8784 18.8769 20.1245 18.545 20.4546 18.2738C20.7847 18.0025 21.1988 17.8668 21.6969 17.8668C22.9942 17.8668 23.6429 18.7384 23.6429 20.4815V26.6634H27.5V20.0313C27.5 18.3228 27.0946 17.027 26.2838 16.1439C25.473 15.2608 24.4015 14.8192 23.0695 14.8192C21.5753 14.8192 20.4112 15.4599 19.5772 16.7413V16.7759H19.5598L19.5772 16.7413V15.0963H15.7201C15.7432 15.4657 15.7548 16.6143 15.7548 18.5421C15.7548 20.47 15.7432 23.1771 15.7201 26.6634Z" fill="#C9FFEC"/>
</svg>
