<svg width="72" height="72" viewBox="0 0 72 72" fill="none" xmlns="http://www.w3.org/2000/svg">
<rect x="0.5" y="0.5" width="71" height="71" rx="19.5" fill="#343330" stroke="#474951"/>
<path d="M47.25 38.5H35.2656L38.7672 34.9984C40.0331 35.636 41.428 35.9759 42.8453 35.9922C44.2719 35.996 45.6718 35.6056 46.8906 34.8641C50.5969 32.6203 52.5828 27.4266 52.2031 20.9703C52.1852 20.6645 52.0557 20.3759 51.8391 20.1593C51.6225 19.9427 51.3339 19.8132 51.0281 19.7953C44.5719 19.4156 39.3781 21.4016 37.1328 25.1078C35.6719 27.5219 35.6344 30.4375 36.9984 33.2328L34.75 35.4812L32.8422 33.5734C33.7797 31.5031 33.7125 29.3547 32.625 27.5609C30.9265 24.75 27.0328 23.2516 22.2078 23.5344C21.9025 23.5526 21.6145 23.682 21.3983 23.8983C21.182 24.1145 21.0525 24.4025 21.0344 24.7078C20.75 29.5312 22.25 33.425 25.0625 35.125C26.0034 35.6995 27.085 36.0024 28.1875 36C29.1876 35.9901 30.1742 35.7669 31.0812 35.3453L32.9828 37.25L31.7328 38.5H24.75C24.4185 38.5 24.1005 38.6317 23.8661 38.8661C23.6317 39.1005 23.5 39.4185 23.5 39.75C23.5 40.0815 23.6317 40.3995 23.8661 40.6339C24.1005 40.8683 24.4185 41 24.75 41H26.2484L28.3125 50.2922C28.4329 50.849 28.7412 51.3474 29.1856 51.7039C29.63 52.0604 30.1834 52.2532 30.7531 52.25H41.2484C41.8179 52.2526 42.3711 52.0596 42.8154 51.7032C43.2596 51.3468 43.5681 50.8487 43.689 50.2922L45.7531 41H47.25C47.5815 41 47.8994 40.8683 48.1339 40.6339C48.3683 40.3995 48.5 40.0815 48.5 39.75C48.5 39.4185 48.3683 39.1005 48.1339 38.8661C47.8994 38.6317 47.5815 38.5 47.25 38.5Z" fill="#52B081"/>
</svg>
