<svg width="98" height="35" viewBox="0 0 98 35" fill="none" xmlns="http://www.w3.org/2000/svg">
<g clip-path="url(#clip0_141_23171)">
<g filter="url(#filter0_d_141_23171)">
<path d="M6.05854 0.492056C4.50895 0.832056 2.29526 2.01205 1.7519 2.83206C1.47016 3.23205 1.28903 3.63206 1.34941 3.73205C1.40978 3.81205 1.34941 3.89205 1.22866 3.89205C1.06767 3.89205 1.00729 4.49205 1.06767 5.99205L1.12804 8.07205L1.91289 8.87205C2.77825 9.75205 4.26746 10.4321 6.76289 11.1121C8.77534 11.6321 9.64069 12.0321 9.78157 12.4921C10.3853 14.3521 6.21953 14.6521 3.28136 12.9521C2.79837 12.6721 2.37576 12.4921 2.31538 12.5521C2.13426 12.7321 1.08779 16.5921 1.16829 16.7521C1.45003 17.2321 5.75667 18.2921 7.44713 18.2921C8.97659 18.2921 10.8482 17.8321 12.0959 17.1721C13.2027 16.5721 14.209 15.1521 14.5511 13.6921L14.7926 12.6721L15.1749 13.7321C15.4567 14.4721 15.9397 15.1521 16.805 15.9921C18.3143 17.4521 19.9042 18.0921 22.5002 18.2521C23.909 18.3321 24.3919 18.2521 25.9214 17.7721C27.471 17.2921 27.8332 17.0721 28.9401 16.0321C29.8859 15.1321 30.3085 14.5321 30.7311 13.5321C31.2544 12.2721 31.2946 11.9521 31.3751 8.43205L31.4556 4.69205H35.3799H39.2841L37.9357 6.43205C37.171 7.41205 36.2855 8.51205 35.9635 8.91205C35.6214 9.31205 35.1183 9.93205 34.8365 10.3121C34.5548 10.6721 34.0114 11.3521 33.6291 11.8121C31.355 14.5321 31.4154 14.3921 31.4154 16.2121V17.8921L40.5116 17.8521L49.628 17.7921L50.0305 16.4521L50.433 15.0921H53.8944H57.3558L57.7785 16.2321C57.9998 16.8721 58.2413 17.5121 58.2816 17.6321C58.3419 17.8321 59.4488 17.8921 62.9102 17.8921H67.4382V13.1721V8.43205L68.3036 9.49205C68.7664 10.0721 69.7726 11.2921 70.5172 12.1721C71.282 13.0721 71.9662 13.9321 72.0266 14.0921C72.087 14.2521 72.8114 15.1721 73.6365 16.1321L75.1056 17.8921H77.3193H79.5129L79.533 14.3321C79.5531 11.8121 79.6135 11.0121 79.7343 11.5321C80.2172 13.6321 81.9278 15.9121 83.7793 16.9721C87.5023 19.1121 92.1309 18.5321 95.1295 15.5521C97.3029 13.3921 98.1482 10.0121 97.3231 6.81205C96.5986 4.07205 95.4314 2.61205 93.0969 1.49206C92.2114 1.05206 90.9838 0.612055 90.3801 0.472055C87.5023 -0.147945 83.3567 1.13206 81.6662 3.17206C80.9015 4.09206 79.8148 6.19205 79.6538 7.09205C79.6135 7.37205 79.5531 5.99205 79.533 4.03205L79.5129 0.492056H76.9973H74.4818V5.23205V9.99205L73.7774 9.19205C73.3951 8.75205 72.7712 7.93205 72.3888 7.39205C72.0065 6.83205 71.5235 6.21205 71.3222 5.99205C71.121 5.77205 70.4166 4.91206 69.7525 4.09206C69.0884 3.27205 68.1023 2.11205 67.5388 1.55206L66.5326 0.492056H64.4799H62.4071L62.3668 7.61205L62.3065 14.7521L61.1191 11.5721C59.6299 7.55205 58.1206 3.57205 57.4363 1.83206L56.9131 0.492056H53.9749H51.0368L50.1915 2.63206C49.3463 4.81205 48.6218 6.71205 46.9314 11.2521L46.0056 13.7321L42.0814 13.7121C39.928 13.6921 38.1571 13.6521 38.1168 13.6321C38.0967 13.5921 38.3986 13.1721 38.8212 12.6721C39.2237 12.1721 39.7872 11.4521 40.0689 11.0921C40.3507 10.7321 41.3971 9.39205 42.3832 8.13205C43.3894 6.87205 44.456 5.47205 44.778 5.01205C45.1202 4.57205 45.4623 4.15205 45.5428 4.13206C45.6233 4.09206 45.7038 3.25206 45.7038 2.27205V0.492056H36.0641H26.4044L26.344 5.93205C26.2836 10.9721 26.2434 11.4521 25.8811 12.0721C25.2573 13.1321 24.5328 13.5521 23.2046 13.6521C21.9166 13.7521 21.172 13.4721 20.4274 12.6521C19.6426 11.7921 19.5419 11.0521 19.5419 5.67205V0.492056H17.0264H14.5108V5.63205V10.7721L13.9675 9.95205C13.6656 9.49205 13.3637 9.15205 13.2832 9.21205C13.2027 9.25205 13.1021 9.15205 13.0417 8.99205C12.8807 8.59205 11.2305 7.81205 9.4797 7.31205C7.06476 6.63205 6.58177 6.45205 6.21953 6.13205C5.41455 5.45205 6.03841 4.57205 7.48737 4.37206C8.77534 4.21206 11.4318 4.81205 12.921 5.63205C13.082 5.73205 13.243 5.35205 13.8065 3.41206C14.0681 2.53205 14.2492 1.75205 14.209 1.69205C14.1285 1.55206 13.3033 1.25206 11.6531 0.712055C10.667 0.392056 7.18551 0.252056 6.05854 0.492056ZM90.36 5.17205C91.0845 5.55205 92.1712 6.77205 92.5133 7.61205C92.9963 8.77205 92.795 10.7721 92.1108 11.6721C90.4606 13.7921 88.0457 14.2321 86.0936 12.7521C84.9264 11.8521 84.4635 10.8321 84.4635 9.19205C84.4635 7.23205 85.2685 5.89205 86.8583 5.17205C87.6633 4.81205 89.6556 4.81205 90.36 5.17205ZM55.1623 8.63205L56.1081 11.2921H53.9347H51.7411L52.1637 10.2321C52.4052 9.67205 52.7272 8.73205 52.8882 8.19205C53.3511 6.67205 53.995 5.33206 54.1158 5.69205C54.1762 5.85205 54.639 7.19205 55.1623 8.63205Z" fill="white"/>
<path d="M5.15294 18.9121C4.48883 19.0121 3.70398 19.2721 3.40211 19.4921C3.10024 19.7121 2.75812 19.8921 2.63738 19.8921C2.23489 19.8921 1.24879 21.5321 1.10792 22.4121C0.846299 24.1521 2.17451 25.7721 4.24734 26.2721C4.6297 26.3721 5.81705 26.6521 6.86352 26.8921C9.31871 27.4721 10.3048 27.9321 10.7878 28.7521C11.2909 29.5521 11.2909 30.1921 10.8482 31.1321C10.5262 31.7921 9.49983 32.7721 9.11746 32.8121C9.03696 32.8121 8.45335 32.9321 7.80937 33.0721C6.40066 33.3721 4.83095 33.2121 3.01974 32.5721C1.40978 31.9921 1.51041 31.9921 1.36954 32.4721C1.28904 32.7921 1.71165 33.1721 2.43613 33.3921C2.49651 33.4121 2.67763 33.4721 2.83862 33.5521C3.42223 33.7721 6.72265 34.1121 6.84339 33.9521C6.90377 33.8721 7.46725 33.7721 8.07099 33.7521C8.67472 33.7121 9.35895 33.6521 9.58032 33.5921C10.1438 33.4521 11.3714 32.3121 11.7739 31.5521C12.438 30.2521 11.9953 27.9321 10.9689 27.3921C10.7677 27.2721 10.3451 27.0121 10.0432 26.8121C9.7212 26.6121 9.35895 26.4921 9.19796 26.5521C9.03696 26.6121 8.87597 26.6121 8.83572 26.5321C8.79547 26.4521 7.72887 26.1321 6.46103 25.8121C3.8851 25.1721 3.34173 24.9521 2.69775 24.2521C1.95315 23.4721 1.85252 22.8921 2.23489 21.9721C3.01974 20.1721 5.19319 19.3921 8.27223 19.8521C9.13759 19.9721 10.2444 20.2521 10.7073 20.4721C11.1702 20.7121 11.5726 20.8721 11.5928 20.8321C11.633 20.8121 11.6934 20.5921 11.7739 20.3521C11.8946 19.9921 11.794 19.8921 11.15 19.6721C10.7274 19.5321 10.3451 19.4521 10.3048 19.4721C10.2646 19.5121 10.1639 19.4321 10.1036 19.3321C10.0029 19.1521 7.18551 18.6521 6.6019 18.7121C6.46103 18.7321 5.81705 18.8121 5.15294 18.9121Z" fill="white"/>
<path d="M32.8241 18.8921C32.4417 18.9721 31.9386 19.0921 31.7172 19.1521C30.3085 19.5121 28.0143 21.2321 28.2961 21.7121C28.3766 21.8121 28.276 21.8321 28.115 21.7721C27.9338 21.7121 27.793 21.6721 27.793 21.7121C27.793 21.7521 27.5112 22.4721 27.1691 23.2921C26.6459 24.5521 26.5453 25.0521 26.5453 26.4921C26.5453 27.9921 26.6258 28.3721 27.1691 29.5921C28.2961 32.0721 30.1878 33.5521 32.5222 33.8121C34.2127 34.0121 34.1523 34.0121 35.9434 33.8321C37.1106 33.7121 37.5735 33.5321 38.5193 32.9121C39.1432 32.4921 39.606 32.1121 39.5457 32.0521C39.4853 31.9721 39.6262 31.8721 39.8475 31.7921C40.1293 31.7121 40.572 31.0521 41.1154 29.9321C41.9204 28.2921 41.9606 28.0921 41.9606 26.4921C41.9204 22.1921 39.0627 19.1321 34.7963 18.8121C34.0919 18.7521 33.2065 18.7921 32.8241 18.8921ZM37.3119 20.3521C38.3382 20.8121 40.25 22.6521 40.411 23.3121C41.055 26.0921 41.0953 26.4121 40.8739 27.6921C40.572 29.3721 39.8274 30.7121 38.6803 31.6321C38.1772 32.0521 37.6942 32.4521 37.6338 32.5521C37.5735 32.6521 37.4326 32.7121 37.332 32.7121C37.2314 32.6921 36.8289 32.8121 36.4465 32.9321C35.2793 33.3321 32.6832 33.2321 31.5764 32.7321C30.3488 32.1921 28.9401 31.0121 28.4772 30.1721C28.276 29.7921 28.0345 29.4921 27.9338 29.4921C27.8533 29.4921 27.8131 29.4121 27.8735 29.3121C27.954 29.2121 27.8936 28.8721 27.7729 28.5521C27.3502 27.5121 27.5515 24.3521 28.0747 23.7121C28.1955 23.5521 28.276 23.3721 28.276 23.3121C28.2558 23.2521 28.4168 22.8721 28.6583 22.4921C29.2218 21.5121 30.8318 20.3321 32.0795 19.9921C33.5888 19.5521 35.9233 19.7121 37.3119 20.3521Z" fill="white"/>
<path d="M88.6695 18.8321C88.3475 18.8721 87.9249 18.972 87.7639 19.0321C87.6029 19.092 87.3816 19.172 87.2608 19.172C87.1602 19.192 86.6168 19.392 86.0936 19.632C84.8258 20.212 83.5579 21.512 82.8334 22.9921C82.27 24.1121 82.2297 24.352 82.2297 26.492C82.2297 28.712 82.2498 28.832 82.9139 30.092C84.1617 32.472 85.7314 33.512 88.5488 33.872C89.5953 34.012 90.5009 34.032 90.5612 33.952C90.6216 33.872 91.326 33.772 92.1309 33.732C93.278 33.692 93.8415 33.532 94.9886 32.992L96.4376 32.292L96.3772 29.332L96.3168 26.392L92.8554 26.332L89.3739 26.292V26.792V27.292H92.2919H95.21V29.592V31.892L94.4654 32.252C93.1975 32.872 91.7687 33.192 90.0783 33.192C87.0596 33.192 85.1276 32.032 83.578 29.292C83.1152 28.492 83.0347 25.572 83.4171 24.252C84.6044 20.152 90.3197 18.2921 94.0025 20.812C94.5459 21.192 95.0892 21.4921 95.1899 21.4921C95.4314 21.4921 95.6527 20.9121 95.4917 20.672C95.3106 20.3721 93.3384 19.312 93.1573 19.4121C93.0768 19.472 92.9963 19.432 92.9963 19.3321C92.9963 19.212 92.4328 19.0321 91.7285 18.9121C90.4606 18.692 89.8368 18.672 88.6695 18.8321Z" fill="white"/>
<path d="M12.6996 26.2921C12.6996 33.5521 12.6996 33.6921 13.1021 33.6921C13.4845 33.6921 13.5046 33.5521 13.5046 30.2921V26.8921H19.2401H24.9755V30.2921V33.6921H25.4787H25.9818V26.2921V18.8921H25.4787H24.9755V22.4921V26.0921H19.2401H13.5046V22.4921C13.5046 19.0321 13.4845 18.8921 13.1021 18.8921C12.6996 18.8921 12.6996 19.0321 12.6996 26.2921Z" fill="white"/>
<path d="M42.4838 26.2721V33.6921H42.987H43.4901V31.4921V29.3121L46.6697 29.2321C49.6884 29.1721 50.8959 29.0321 51.1374 28.7321C51.1977 28.6521 51.3587 28.5721 51.4996 28.5321C52.0228 28.4321 53.0291 27.3521 53.4718 26.3921C54.4177 24.4321 53.8944 21.5721 52.3851 20.2521C51.0367 19.0721 50.755 19.0121 46.4685 18.9321L42.4838 18.8521V26.2721ZM50.4531 20.1521C52.365 20.8721 53.2504 22.8121 52.8077 25.3721C52.6668 26.2921 51.077 28.0121 50.1311 28.2721C49.9701 28.3121 48.4004 28.3921 46.6697 28.4521L43.4901 28.5321V24.2121V19.8921L46.6697 19.9121C48.5614 19.9121 50.0708 20.0121 50.4531 20.1521Z" fill="white"/>
<path d="M54.1561 26.2721V33.6921H54.6592H55.1623V31.5121V29.3321L58.5432 29.2521C62.2662 29.1721 62.8096 29.0121 64.178 27.6921C64.7617 27.0921 64.8623 26.9321 64.8019 26.5721C64.8019 26.4921 64.8824 26.3721 65.0031 26.3121C65.1239 26.2321 65.2446 25.9121 65.305 25.5721C65.3453 25.2521 65.4459 24.8321 65.5264 24.6321C65.7075 24.1921 65.3654 22.3321 64.9226 21.4121C64.5403 20.6121 63.9969 20.0921 62.9102 19.4721C62.1656 19.0521 61.8034 19.0121 58.1407 18.9321L54.1561 18.8521V26.2721ZM62.0046 20.1321C63.6146 20.6721 64.4799 22.0921 64.5 24.1921C64.5202 25.4521 64.4598 25.6921 63.8762 26.5121C62.8498 27.9921 61.7832 28.3521 58.1407 28.4521L55.1623 28.5321V24.2121V19.8921H58.2614C60.0726 19.8921 61.6222 19.9921 62.0046 20.1321Z" fill="white"/>
<path d="M65.8282 26.2921C65.8282 33.5521 65.8282 33.6921 66.2307 33.6921C66.6332 33.6921 66.6332 33.5521 66.6332 26.2921C66.6332 19.0321 66.6332 18.8921 66.2307 18.8921C65.8282 18.8921 65.8282 19.0321 65.8282 26.2921Z" fill="white"/>
<path d="M68.4444 26.2921C68.4444 33.5521 68.4444 33.6921 68.8469 33.6921C69.2494 33.6921 69.2494 33.5521 69.2494 27.0721V20.4521L69.9336 21.2721C70.2959 21.7121 70.6581 22.0121 70.7386 21.9521C70.799 21.8721 70.8594 21.9321 70.8594 22.0521C70.8594 22.5321 73.9585 26.3521 74.1598 26.1321C74.2202 26.0721 74.2805 26.1521 74.2805 26.3321C74.2805 26.6921 74.9648 27.5321 75.166 27.3921C75.2264 27.3321 75.2465 27.3521 75.1861 27.4121C75.0453 27.6121 76.2729 29.0921 76.5345 29.0321C76.6552 29.0121 76.776 29.1521 76.7961 29.3321C76.8565 29.6521 79.7343 33.1721 80.2172 33.5321C80.338 33.6121 80.66 33.6921 80.982 33.6921H81.5253V26.2921V18.8921H81.0222H80.5191L80.4789 25.6321L80.4185 32.3521L79.9758 31.8721C79.7343 31.6121 78.9293 30.6721 78.2048 29.7921C77.4803 28.9121 76.4741 27.7321 75.9911 27.1921C75.5081 26.6321 74.8239 25.8321 74.4818 25.3921C74.1195 24.9521 73.6567 24.4321 73.4353 24.2121C73.2139 24.0121 72.7309 23.3721 72.3486 22.7921C71.9863 22.2121 71.443 21.5521 71.1612 21.3321C70.8795 21.1121 70.6581 20.8521 70.6581 20.7721C70.6581 20.4321 69.1085 18.8921 68.7865 18.8921C68.4646 18.8921 68.4444 19.5521 68.4444 26.2921Z" fill="white"/>
</g>
</g>
<defs>
<filter id="filter0_d_141_23171" x="-2.9553" y="0.314941" width="104.589" height="41.6839" filterUnits="userSpaceOnUse" color-interpolation-filters="sRGB">
<feFlood flood-opacity="0" result="BackgroundImageFix"/>
<feColorMatrix in="SourceAlpha" type="matrix" values="0 0 0 0 0 0 0 0 0 0 0 0 0 0 0 0 0 0 127 0" result="hardAlpha"/>
<feOffset dy="4"/>
<feGaussianBlur stdDeviation="2"/>
<feComposite in2="hardAlpha" operator="out"/>
<feColorMatrix type="matrix" values="0 0 0 0 0 0 0 0 0 0 0 0 0 0 0 0 0 0 0.25 0"/>
<feBlend mode="normal" in2="BackgroundImageFix" result="effect1_dropShadow_141_23171"/>
<feBlend mode="normal" in="SourceGraphic" in2="effect1_dropShadow_141_23171" result="shape"/>
</filter>
<clipPath id="clip0_141_23171">
<rect width="97" height="34" fill="white" transform="translate(0.826172 0.092041)"/>
</clipPath>
</defs>
</svg>
