<svg width="72" height="72" viewBox="0 0 72 72" fill="none" xmlns="http://www.w3.org/2000/svg">
<rect x="0.5" y="0.5" width="71" height="71" rx="19.5" fill="#343330" stroke="#474951"/>
<path d="M52.25 26H48.5V24.75C48.5 24.087 48.2366 23.4511 47.7678 22.9822C47.2989 22.5134 46.663 22.25 46 22.25H26C25.337 22.25 24.7011 22.5134 24.2322 22.9822C23.7634 23.4511 23.5 24.087 23.5 24.75V26H19.75C19.087 26 18.4511 26.2634 17.9822 26.7322C17.5134 27.2011 17.25 27.837 17.25 28.5V31C17.25 32.6576 17.9085 34.2473 19.0806 35.4194C19.6609 35.9998 20.3499 36.4602 21.1082 36.7742C21.8665 37.0883 22.6792 37.25 23.5 37.25H24.0703C24.8066 39.5835 26.2106 41.65 28.1086 43.1943C30.0066 44.7385 32.3155 45.6928 34.75 45.9391V49.75H31C30.6685 49.75 30.3505 49.8817 30.1161 50.1161C29.8817 50.3505 29.75 50.6685 29.75 51C29.75 51.3315 29.8817 51.6495 30.1161 51.8839C30.3505 52.1183 30.6685 52.25 31 52.25H41C41.3315 52.25 41.6495 52.1183 41.8839 51.8839C42.1183 51.6495 42.25 51.3315 42.25 51C42.25 50.6685 42.1183 50.3505 41.8839 50.1161C41.6495 49.8817 41.3315 49.75 41 49.75H37.25V45.9344C42.2406 45.4297 46.3813 41.9281 47.8875 37.25H48.5C50.1576 37.25 51.7473 36.5915 52.9194 35.4194C54.0915 34.2473 54.75 32.6576 54.75 31V28.5C54.75 27.837 54.4866 27.2011 54.0178 26.7322C53.5489 26.2634 52.913 26 52.25 26ZM23.5 34.75C22.5054 34.75 21.5516 34.3549 20.8483 33.6517C20.1451 32.9484 19.75 31.9946 19.75 31V28.5H23.5V33.5C23.5 33.9167 23.5203 34.3333 23.5609 34.75H23.5ZM52.25 31C52.25 31.9946 51.8549 32.9484 51.1516 33.6517C50.4484 34.3549 49.4946 34.75 48.5 34.75H48.4219C48.4732 34.2882 48.4993 33.824 48.5 33.3594V28.5H52.25V31Z" fill="#52B081"/>
</svg>
