<svg width="88" height="30" viewBox="0 0 88 30" fill="none" xmlns="http://www.w3.org/2000/svg">
<path d="M83.8225 5.88304H79.9854V0.511108H71.5599L67.6852 5.88304H60.7999L58.4977 8.1853V5.88304H53.1257V0.511108H36.2425V5.88304H12.4909L8.61544 0.511108H0.173828V18.9292L10.9177 29.673H21.6616V26.6034L24.7312 29.673H45.4516V26.6034L48.5212 29.673H58.4977V26.6034L61.5674 29.673H80.7528L87.6596 22.7663V9.72014L83.8225 5.88304ZM13.22 13.5572H7.84802V15.0921H13.22V21.2314H4.77834L1.70867 18.1617V2.04595H7.84802V7.41788H13.22V13.5572ZM36.2425 21.2314H17.8245L14.7548 18.1617V7.41788H20.8941V15.0921H22.429V7.41788H28.5683V15.0921H30.1032V7.41788H36.2425V21.2314ZM43.9167 21.2314H37.7774V7.41788H43.9167V21.2314ZM43.9167 5.88304H37.7774V2.04595H43.9167V5.88304ZM56.9628 13.5572H51.5909V15.0921H56.9628V21.2314H48.5212L45.4516 18.1617V2.04595H51.5909V7.41788H56.9628V13.5572ZM70.7764 13.5572H64.637V15.0921H70.7764V21.2314H61.5674L58.4977 18.1617V10.4876L61.5674 7.41788H70.7764V13.5572ZM86.1248 21.2314H79.9854V13.5572H78.4506V21.2314H72.3112V2.04595H78.4506V7.41788H83.0551L86.1248 10.4876V21.2314Z" fill="#BCBACD"/>
</svg>
