<svg width="133" height="30" viewBox="0 0 133 30" fill="none" xmlns="http://www.w3.org/2000/svg">
<path d="M22.3651 29.8565L13.6775 29.6958C10.8645 29.64 8.04468 29.7517 5.28704 29.172C1.09183 28.3058 0.794637 24.0588 0.483625 20.4964C0.0551192 15.488 0.220992 10.3888 1.02962 5.42233C1.48578 2.63524 3.28273 0.972771 6.06111 0.791156C15.4399 0.134549 24.8808 0.211386 34.2388 0.518734C35.2271 0.546674 36.2224 0.700349 37.1969 0.874978C42.0072 1.72717 42.1247 6.53996 42.4357 10.5914C42.7467 14.6847 42.6154 18.799 42.021 22.8643C41.5442 26.2312 40.6319 29.0532 36.7822 29.3256C31.9581 29.6819 27.2445 29.9683 22.4065 29.8775C22.4065 29.8565 22.3789 29.8565 22.3651 29.8565ZM17.2576 21.3346C20.8929 19.2251 24.4592 17.1505 28.0739 15.0549C24.4316 12.9454 20.8722 10.8708 17.2576 8.77522V21.3346Z" fill="#BCBACD"/>
<path d="M112.119 26.0288C111.953 26.7134 111.808 27.2512 111.663 27.824H108.262V1.315H112.229V11.0944C112.437 10.8289 112.54 10.7172 112.63 10.5984C113.308 9.6554 114.185 9.04069 115.319 8.80319C117.123 8.44695 118.664 9.25025 119.21 11.0035C119.562 12.0932 119.79 13.2598 119.818 14.3984C119.873 17.3252 119.832 20.245 119.728 23.1719C119.687 24.066 119.417 24.981 119.079 25.8193C117.966 28.5854 114.33 29.0045 112.527 26.6086C112.416 26.4619 112.312 26.3013 112.119 26.0288ZM112.312 18.7362V23.584C112.312 24.3733 112.727 24.8553 113.508 25.0369C114.275 25.2185 114.897 24.9182 115.208 24.1987C115.34 23.8983 115.471 23.584 115.478 23.2697C115.554 20.3079 115.623 17.3462 115.644 14.3774C115.644 13.8256 115.512 13.2528 115.346 12.7149C115.035 11.744 114.178 11.4576 113.335 12.0234C112.699 12.4565 112.312 13.0712 112.312 13.8885V18.7362ZM101.531 9.1804H105.684V27.838H102.443C102.325 27.1325 102.208 26.406 102.07 25.5538C101.849 25.8821 101.717 26.0917 101.579 26.3013C100.501 27.8729 98.9734 28.4108 97.1695 28.1244C95.6283 27.8729 94.7022 26.6715 94.4948 24.7016C94.4326 24.1149 94.405 23.5211 94.405 22.9344C94.3911 18.5686 94.405 14.1888 94.405 9.82304V9.16643H98.6071V9.92782C98.6071 14.1469 98.5933 18.359 98.6209 22.5781C98.6209 23.1788 98.6831 23.8005 98.7868 24.4013C98.9043 25.016 99.3466 25.2395 99.941 25.1976C100.902 25.1207 101.565 24.4013 101.565 23.4373V10.0047C101.531 9.73223 101.531 9.48076 101.531 9.1804ZM72.9313 9.16643H77.1058V9.95576C77.1058 14.1539 77.092 18.345 77.1196 22.5292C77.1196 23.1299 77.1749 23.7516 77.2993 24.3384C77.4583 25.0299 77.8591 25.2535 78.5434 25.1627C79.4902 25.0299 80.0639 24.3663 80.0708 23.3954V10.0326V9.19437H84.2245V27.838H80.9969C80.8794 27.1465 80.7619 26.434 80.6099 25.5329C80.4025 25.8472 80.285 26.0288 80.1675 26.2174C79.0894 27.8171 77.5758 28.4038 75.7304 28.1174C74.2514 27.8939 73.346 26.7902 73.0696 24.981C72.9935 24.4152 72.9382 23.8564 72.9382 23.2906C72.9244 18.7572 72.9244 14.2028 72.9244 9.66937L72.9313 9.16643ZM70.7888 19.1274C70.775 19.7561 70.7335 20.3847 70.699 21.0134C70.54 22.8994 70.464 25.5748 68.9573 26.9509C67.9966 27.8171 66.7802 28.1314 65.5223 28.1733C64.9625 28.1873 64.3958 28.1873 63.836 28.1104C61.1889 27.7053 59.9587 26.5248 59.5164 23.584C59.0118 20.1892 58.9704 16.7384 59.5716 13.3436C60.1937 9.83003 62.3362 8.58665 65.6675 8.81716C68.7776 9.04069 70.1668 11.1013 70.5331 14.0351C70.7335 15.7186 70.8303 17.423 70.7888 19.1274ZM66.559 18.4848C66.559 17.2903 66.5867 16.0888 66.5452 14.8943C66.5176 14.2028 66.4277 13.5043 66.2826 12.8197C66.1167 12.0304 65.6191 11.6532 64.9971 11.6671C64.3889 11.6811 63.9604 12.0583 63.7392 12.7918C63.6632 13.0642 63.5802 13.3436 63.5802 13.616C63.5802 15.4881 63.5664 17.3671 63.5526 19.2392C63.5388 20.9855 63.3176 22.8156 63.8636 24.4851C64.0295 24.995 64.458 25.2744 65.0178 25.2744C65.5638 25.2744 65.9232 25.002 66.1236 24.513C66.2826 24.1358 66.4208 23.7237 66.4208 23.3186C66.4692 21.7119 66.559 20.0983 66.559 18.4848ZM53.4205 14.9712C53.7868 13.162 54.1324 11.3947 54.5125 9.62047C54.9894 7.36423 55.5216 5.10799 55.9916 2.84477C56.1091 2.29294 56.3302 2.16022 56.8486 2.17419C57.9613 2.2161 59.0948 2.18816 60.2835 2.18816C59.8965 3.62712 59.5164 4.99623 59.1431 6.34438C57.9613 10.5774 56.7795 14.8245 55.6114 19.0715C55.5216 19.3998 55.4801 19.7561 55.4801 20.1053C55.4663 22.4244 55.4801 24.7366 55.4801 27.0557V27.8101H51.4231C51.4093 27.6005 51.3817 27.391 51.3817 27.1814C51.3817 25.8682 51.278 24.548 51.3955 23.2487C51.6927 20.1263 50.7113 17.2554 49.9165 14.3495C48.8659 10.5076 47.8016 6.65174 46.7511 2.80985C46.6958 2.62823 46.675 2.43264 46.6197 2.20911H50.7596C51.6305 6.44916 52.5082 10.6892 53.4205 14.9712ZM132.798 19.8399H125.803C125.879 21.2579 125.907 22.6061 126.052 23.9402C126.156 24.8693 126.66 25.2674 127.455 25.2744C128.285 25.2884 128.768 24.8693 128.962 23.9472C129.024 23.6469 129.065 23.3465 129.093 23.0391C129.121 22.7667 129.135 22.4733 129.155 22.0822C130.337 22.145 131.491 22.2149 132.632 22.2638C133.295 24.2546 132.1 26.8112 130.088 27.6005C128.506 28.2292 126.882 28.2292 125.264 27.7472C124.069 27.391 123.177 26.6226 122.776 25.4421C122.403 24.3384 122.05 23.1858 121.974 22.0333C121.767 19.1903 121.691 16.3193 122.12 13.4693C122.196 12.9943 122.327 12.5403 122.472 12.0793C123.053 10.1793 124.317 9.01275 126.273 8.81716C127.338 8.71239 128.437 8.7543 129.487 8.93591C131.187 9.23628 132.093 10.4727 132.487 12.0932C132.666 12.8546 132.798 13.637 132.825 14.4124C132.832 16.1936 132.798 17.9609 132.798 19.8399ZM128.824 17.3881C128.824 15.984 128.837 14.6638 128.81 13.3366C128.81 13.0223 128.692 12.694 128.575 12.3936C128.34 11.8069 127.849 11.6462 127.262 11.6462C126.674 11.6462 126.301 11.9466 126.156 12.4844C125.713 14.098 125.859 15.7465 125.872 17.402C126.93 17.3881 127.891 17.3881 128.824 17.3881Z" fill="#BCBACD"/>
<path d="M87.4311 5.61104H83.3189V2.24414H95.5934V5.59008H91.5088V27.8102H87.438L87.4311 5.61104Z" fill="#BCBACD"/>
</svg>
