<svg width="204" height="55" viewBox="0 0 204 55" fill="none" xmlns="http://www.w3.org/2000/svg">
<mask id="path-1-inside-1_357_602" fill="white">
<path fill-rule="evenodd" clip-rule="evenodd" d="M0 0.0917969H192H204V42.0918L198 48.0918L192 54.0918H0V0.0917969Z"/>
</mask>
<path d="M0 0.0917969V-0.908203H-1V0.0917969H0ZM204 0.0917969H205V-0.908203H204V0.0917969ZM204 42.0918L204.707 42.7989L205 42.506V42.0918H204ZM192 54.0918V55.0918H192.414L192.707 54.7989L192 54.0918ZM0 54.0918H-1V55.0918H0V54.0918ZM192 -0.908203H0V1.0918H192V-0.908203ZM204 -0.908203H192V1.0918H204V-0.908203ZM205 42.0918V0.0917969H203V42.0918H205ZM203.293 41.3847L197.293 47.3847L198.707 48.7989L204.707 42.7989L203.293 41.3847ZM197.293 47.3847L191.293 53.3847L192.707 54.7989L198.707 48.7989L197.293 47.3847ZM0 55.0918H192V53.0918H0V55.0918ZM-1 0.0917969V54.0918H1V0.0917969H-1Z" fill="#C8C8C8" mask="url(#path-1-inside-1_357_602)"/>
<path d="M67.4533 33.2838C66.5573 33.2838 65.6986 33.1665 64.8773 32.9318C64.056 32.6865 63.3946 32.3718 62.8933 31.9878L63.7733 30.0358C64.2533 30.3771 64.8186 30.6598 65.4693 30.8838C66.1306 31.0971 66.7973 31.2038 67.4693 31.2038C67.9813 31.2038 68.392 31.1558 68.7013 31.0598C69.0213 30.9531 69.256 30.8091 69.4053 30.6278C69.5546 30.4465 69.6293 30.2385 69.6293 30.0038C69.6293 29.7051 69.512 29.4705 69.2773 29.2998C69.0426 29.1185 68.7333 28.9745 68.3493 28.8678C67.9653 28.7505 67.5386 28.6438 67.0693 28.5478C66.6106 28.4411 66.1466 28.3131 65.6773 28.1638C65.2186 28.0145 64.7973 27.8225 64.4133 27.5878C64.0293 27.3531 63.7146 27.0438 63.4693 26.6598C63.2346 26.2758 63.1173 25.7851 63.1173 25.1878C63.1173 24.5478 63.288 23.9665 63.6293 23.4438C63.9813 22.9105 64.504 22.4891 65.1973 22.1798C65.9013 21.8598 66.7813 21.6998 67.8373 21.6998C68.5413 21.6998 69.2346 21.7851 69.9173 21.9558C70.6 22.1158 71.2026 22.3611 71.7253 22.6918L70.9253 24.6598C70.4026 24.3611 69.88 24.1425 69.3573 24.0038C68.8346 23.8545 68.3226 23.7798 67.8213 23.7798C67.32 23.7798 66.9093 23.8385 66.5893 23.9558C66.2693 24.0731 66.04 24.2278 65.9013 24.4198C65.7626 24.6011 65.6933 24.8145 65.6933 25.0598C65.6933 25.3478 65.8106 25.5825 66.0453 25.7638C66.28 25.9345 66.5893 26.0731 66.9733 26.1798C67.3573 26.2865 67.7786 26.3931 68.2373 26.4998C68.7066 26.6065 69.1706 26.7291 69.6293 26.8678C70.0986 27.0065 70.5253 27.1931 70.9093 27.4278C71.2933 27.6625 71.6026 27.9718 71.8373 28.3558C72.0826 28.7398 72.2053 29.2251 72.2053 29.8118C72.2053 30.4411 72.0293 31.0171 71.6773 31.5398C71.3253 32.0625 70.7973 32.4838 70.0933 32.8038C69.4 33.1238 68.52 33.2838 67.4533 33.2838ZM78.0724 33.2198C77.0911 33.2198 76.2271 33.0278 75.4804 32.6438C74.7444 32.2598 74.1738 31.7371 73.7684 31.0758C73.3631 30.4038 73.1604 29.6411 73.1604 28.7878C73.1604 27.9238 73.3578 27.1611 73.7524 26.4998C74.1578 25.8278 74.7071 25.3051 75.4004 24.9318C76.0938 24.5478 76.8778 24.3558 77.7524 24.3558C78.5951 24.3558 79.3524 24.5371 80.0244 24.8998C80.7071 25.2518 81.2458 25.7638 81.6404 26.4358C82.0351 27.0971 82.2324 27.8918 82.2324 28.8198C82.2324 28.9158 82.2271 29.0278 82.2164 29.1558C82.2058 29.2731 82.1951 29.3851 82.1844 29.4918H75.1924V28.0358H80.8724L79.9124 28.4678C79.9124 28.0198 79.8218 27.6305 79.6404 27.2998C79.4591 26.9691 79.2084 26.7131 78.8884 26.5318C78.5684 26.3398 78.1951 26.2438 77.7684 26.2438C77.3418 26.2438 76.9631 26.3398 76.6324 26.5318C76.3124 26.7131 76.0618 26.9745 75.8804 27.3158C75.6991 27.6465 75.6084 28.0411 75.6084 28.4998V28.8838C75.6084 29.3531 75.7098 29.7691 75.9124 30.1318C76.1258 30.4838 76.4191 30.7558 76.7924 30.9478C77.1764 31.1291 77.6244 31.2198 78.1364 31.2198C78.5951 31.2198 78.9951 31.1505 79.3364 31.0118C79.6884 30.8731 80.0084 30.6651 80.2964 30.3878L81.6244 31.8278C81.2298 32.2758 80.7338 32.6225 80.1364 32.8678C79.5391 33.1025 78.8511 33.2198 78.0724 33.2198ZM88.1662 33.2198C87.1849 33.2198 86.3209 33.0278 85.5742 32.6438C84.8382 32.2598 84.2675 31.7371 83.8622 31.0758C83.4569 30.4038 83.2542 29.6411 83.2542 28.7878C83.2542 27.9238 83.4515 27.1611 83.8462 26.4998C84.2515 25.8278 84.8009 25.3051 85.4942 24.9318C86.1875 24.5478 86.9715 24.3558 87.8462 24.3558C88.6889 24.3558 89.4462 24.5371 90.1182 24.8998C90.8009 25.2518 91.3395 25.7638 91.7342 26.4358C92.1289 27.0971 92.3262 27.8918 92.3262 28.8198C92.3262 28.9158 92.3209 29.0278 92.3102 29.1558C92.2995 29.2731 92.2889 29.3851 92.2782 29.4918H85.2862V28.0358H90.9662L90.0062 28.4678C90.0062 28.0198 89.9155 27.6305 89.7342 27.2998C89.5529 26.9691 89.3022 26.7131 88.9822 26.5318C88.6622 26.3398 88.2889 26.2438 87.8622 26.2438C87.4355 26.2438 87.0569 26.3398 86.7262 26.5318C86.4062 26.7131 86.1555 26.9745 85.9742 27.3158C85.7929 27.6465 85.7022 28.0411 85.7022 28.4998V28.8838C85.7022 29.3531 85.8035 29.7691 86.0062 30.1318C86.2195 30.4838 86.5129 30.7558 86.8862 30.9478C87.2702 31.1291 87.7182 31.2198 88.2302 31.2198C88.6889 31.2198 89.0889 31.1505 89.4302 31.0118C89.7822 30.8731 90.1022 30.6651 90.3902 30.3878L91.7182 31.8278C91.3235 32.2758 90.8275 32.6225 90.2302 32.8678C89.6329 33.1025 88.9449 33.2198 88.1662 33.2198ZM109.543 24.3558C110.226 24.3558 110.829 24.4945 111.351 24.7718C111.885 25.0385 112.301 25.4545 112.599 26.0198C112.909 26.5745 113.063 27.2891 113.063 28.1638V33.0918H110.567V28.5478C110.567 27.8545 110.423 27.3425 110.135 27.0118C109.847 26.6811 109.442 26.5158 108.919 26.5158C108.557 26.5158 108.231 26.6011 107.943 26.7718C107.655 26.9318 107.431 27.1771 107.271 27.5078C107.111 27.8385 107.031 28.2598 107.031 28.7718V33.0918H104.535V28.5478C104.535 27.8545 104.391 27.3425 104.103 27.0118C103.826 26.6811 103.426 26.5158 102.903 26.5158C102.541 26.5158 102.215 26.6011 101.927 26.7718C101.639 26.9318 101.415 27.1771 101.255 27.5078C101.095 27.8385 101.015 28.2598 101.015 28.7718V33.0918H98.5192V24.4838H100.903V26.8358L100.455 26.1478C100.754 25.5611 101.175 25.1185 101.719 24.8198C102.274 24.5105 102.903 24.3558 103.607 24.3558C104.397 24.3558 105.085 24.5585 105.671 24.9638C106.269 25.3585 106.663 25.9665 106.855 26.7878L105.975 26.5478C106.263 25.8758 106.722 25.3425 107.351 24.9478C107.991 24.5531 108.722 24.3558 109.543 24.3558ZM119.459 33.2198C118.542 33.2198 117.726 33.0278 117.011 32.6438C116.307 32.2598 115.747 31.7371 115.331 31.0758C114.926 30.4038 114.723 29.6411 114.723 28.7878C114.723 27.9238 114.926 27.1611 115.331 26.4998C115.747 25.8278 116.307 25.3051 117.011 24.9318C117.726 24.5478 118.542 24.3558 119.459 24.3558C120.366 24.3558 121.176 24.5478 121.891 24.9318C122.606 25.3051 123.166 25.8225 123.571 26.4838C123.976 27.1451 124.179 27.9131 124.179 28.7878C124.179 29.6411 123.976 30.4038 123.571 31.0758C123.166 31.7371 122.606 32.2598 121.891 32.6438C121.176 33.0278 120.366 33.2198 119.459 33.2198ZM119.459 31.1718C119.875 31.1718 120.248 31.0758 120.579 30.8838C120.91 30.6918 121.171 30.4198 121.363 30.0678C121.555 29.7051 121.651 29.2785 121.651 28.7878C121.651 28.2865 121.555 27.8598 121.363 27.5078C121.171 27.1558 120.91 26.8838 120.579 26.6918C120.248 26.4998 119.875 26.4038 119.459 26.4038C119.043 26.4038 118.67 26.4998 118.339 26.6918C118.008 26.8838 117.742 27.1558 117.539 27.5078C117.347 27.8598 117.251 28.2865 117.251 28.7878C117.251 29.2785 117.347 29.7051 117.539 30.0678C117.742 30.4198 118.008 30.6918 118.339 30.8838C118.67 31.0758 119.043 31.1718 119.459 31.1718ZM125.847 33.0918V24.4838H128.231V26.9158L127.895 26.2118C128.151 25.6038 128.562 25.1451 129.127 24.8358C129.693 24.5158 130.381 24.3558 131.191 24.3558V26.6598C131.085 26.6491 130.989 26.6438 130.903 26.6438C130.818 26.6331 130.727 26.6278 130.631 26.6278C129.949 26.6278 129.394 26.8251 128.967 27.2198C128.551 27.6038 128.343 28.2065 128.343 29.0278V33.0918H125.847ZM136.885 33.2198C135.904 33.2198 135.04 33.0278 134.293 32.6438C133.557 32.2598 132.986 31.7371 132.581 31.0758C132.176 30.4038 131.973 29.6411 131.973 28.7878C131.973 27.9238 132.17 27.1611 132.565 26.4998C132.97 25.8278 133.52 25.3051 134.213 24.9318C134.906 24.5478 135.69 24.3558 136.565 24.3558C137.408 24.3558 138.165 24.5371 138.837 24.8998C139.52 25.2518 140.058 25.7638 140.453 26.4358C140.848 27.0971 141.045 27.8918 141.045 28.8198C141.045 28.9158 141.04 29.0278 141.029 29.1558C141.018 29.2731 141.008 29.3851 140.997 29.4918H134.005V28.0358H139.685L138.725 28.4678C138.725 28.0198 138.634 27.6305 138.453 27.2998C138.272 26.9691 138.021 26.7131 137.701 26.5318C137.381 26.3398 137.008 26.2438 136.581 26.2438C136.154 26.2438 135.776 26.3398 135.445 26.5318C135.125 26.7131 134.874 26.9745 134.693 27.3158C134.512 27.6465 134.421 28.0411 134.421 28.4998V28.8838C134.421 29.3531 134.522 29.7691 134.725 30.1318C134.938 30.4838 135.232 30.7558 135.605 30.9478C135.989 31.1291 136.437 31.2198 136.949 31.2198C137.408 31.2198 137.808 31.1505 138.149 31.0118C138.501 30.8731 138.821 30.6651 139.109 30.3878L140.437 31.8278C140.042 32.2758 139.546 32.6225 138.949 32.8678C138.352 33.1025 137.664 33.2198 136.885 33.2198Z" fill="#C8C8C8"/>
</svg>
