<svg width="244" height="129" viewBox="0 0 244 129" fill="none" xmlns="http://www.w3.org/2000/svg">
<g filter="url(#filter0_dddd_357_506)">
<path fill-rule="evenodd" clip-rule="evenodd" d="M20 4.09204H200H212H224V46.092L218 52.092L212 58.092H20V4.09204Z" fill="#11562F"/>
</g>
<path d="M57.4536 37.092L52.6216 25.892H55.4216L59.6456 35.812H57.9976L62.2856 25.892H64.8616L60.0136 37.092H57.4536ZM65.7614 37.092V28.484H68.2574V37.092H65.7614ZM67.0094 27.284C66.5507 27.284 66.1774 27.1507 65.8894 26.884C65.6014 26.6174 65.4574 26.2867 65.4574 25.892C65.4574 25.4974 65.6014 25.1667 65.8894 24.9C66.1774 24.6334 66.5507 24.5 67.0094 24.5C67.468 24.5 67.8414 24.628 68.1294 24.884C68.4174 25.1294 68.5614 25.4494 68.5614 25.844C68.5614 26.26 68.4174 26.6067 68.1294 26.884C67.852 27.1507 67.4787 27.284 67.0094 27.284ZM74.8459 37.22C73.8645 37.22 73.0005 37.028 72.2539 36.644C71.5179 36.26 70.9472 35.7374 70.5419 35.076C70.1365 34.404 69.9339 33.6414 69.9339 32.788C69.9339 31.924 70.1312 31.1614 70.5259 30.5C70.9312 29.828 71.4805 29.3054 72.1739 28.932C72.8672 28.548 73.6512 28.356 74.5259 28.356C75.3685 28.356 76.1259 28.5374 76.7979 28.9C77.4805 29.252 78.0192 29.764 78.4139 30.436C78.8085 31.0974 79.0059 31.892 79.0059 32.82C79.0059 32.916 79.0005 33.028 78.9899 33.156C78.9792 33.2734 78.9685 33.3854 78.9579 33.492H71.9659V32.036H77.6459L76.6859 32.468C76.6859 32.02 76.5952 31.6307 76.4139 31.3C76.2325 30.9694 75.9819 30.7134 75.6619 30.532C75.3419 30.34 74.9685 30.244 74.5419 30.244C74.1152 30.244 73.7365 30.34 73.4059 30.532C73.0859 30.7134 72.8352 30.9747 72.6539 31.316C72.4725 31.6467 72.3819 32.0414 72.3819 32.5V32.884C72.3819 33.3534 72.4832 33.7694 72.6859 34.132C72.8992 34.484 73.1925 34.756 73.5659 34.948C73.9499 35.1294 74.3979 35.22 74.9099 35.22C75.3685 35.22 75.7685 35.1507 76.1099 35.012C76.4619 34.8734 76.7819 34.6654 77.0699 34.388L78.3979 35.828C78.0032 36.276 77.5072 36.6227 76.9099 36.868C76.3125 37.1027 75.6245 37.22 74.8459 37.22ZM82.4794 37.092L79.3754 28.484H81.7274L84.3034 35.892H83.1834L85.8714 28.484H87.9834L90.5914 35.892H89.4714L92.1274 28.484H94.3354L91.2154 37.092H88.7994L86.5114 30.74H87.2474L84.8794 37.092H82.4794ZM105.307 37.092V35.412L105.147 35.044V32.036C105.147 31.5027 104.982 31.0867 104.651 30.788C104.331 30.4894 103.835 30.34 103.163 30.34C102.704 30.34 102.251 30.4147 101.803 30.564C101.366 30.7027 100.992 30.8947 100.683 31.14L99.787 29.396C100.256 29.0654 100.822 28.8094 101.483 28.628C102.144 28.4467 102.816 28.356 103.499 28.356C104.811 28.356 105.83 28.6654 106.555 29.284C107.28 29.9027 107.643 30.868 107.643 32.18V37.092H105.307ZM102.683 37.22C102.011 37.22 101.435 37.108 100.955 36.884C100.475 36.6494 100.107 36.3347 99.851 35.94C99.595 35.5454 99.467 35.1027 99.467 34.612C99.467 34.1 99.5897 33.652 99.835 33.268C100.091 32.884 100.491 32.5854 101.035 32.372C101.579 32.148 102.288 32.036 103.163 32.036H105.451V33.492H103.435C102.848 33.492 102.443 33.588 102.219 33.78C102.006 33.972 101.899 34.212 101.899 34.5C101.899 34.82 102.022 35.076 102.267 35.268C102.523 35.4494 102.87 35.54 103.307 35.54C103.723 35.54 104.096 35.444 104.427 35.252C104.758 35.0494 104.998 34.756 105.147 34.372L105.531 35.524C105.35 36.0787 105.019 36.5 104.539 36.788C104.059 37.076 103.44 37.22 102.683 37.22ZM109.902 37.092V25.22H112.398V37.092H109.902ZM114.715 37.092V25.22H117.211V37.092H114.715ZM129.146 37.22C128.421 37.22 127.786 37.06 127.242 36.74C126.698 36.42 126.272 35.9347 125.962 35.284C125.664 34.6227 125.514 33.7907 125.514 32.788C125.514 31.7747 125.658 30.9427 125.946 30.292C126.234 29.6414 126.65 29.156 127.194 28.836C127.738 28.516 128.389 28.356 129.146 28.356C129.957 28.356 130.682 28.5427 131.322 28.916C131.973 29.2787 132.485 29.7907 132.858 30.452C133.242 31.1134 133.434 31.892 133.434 32.788C133.434 33.6947 133.242 34.4787 132.858 35.14C132.485 35.8014 131.973 36.3134 131.322 36.676C130.682 37.0387 129.957 37.22 129.146 37.22ZM124.058 40.196V28.484H126.442V30.244L126.394 32.804L126.554 35.348V40.196H124.058ZM128.714 35.172C129.13 35.172 129.498 35.076 129.818 34.884C130.149 34.692 130.41 34.42 130.602 34.068C130.805 33.7054 130.906 33.2787 130.906 32.788C130.906 32.2867 130.805 31.86 130.602 31.508C130.41 31.156 130.149 30.884 129.818 30.692C129.498 30.5 129.13 30.404 128.714 30.404C128.298 30.404 127.925 30.5 127.594 30.692C127.264 30.884 127.002 31.156 126.81 31.508C126.618 31.86 126.522 32.2867 126.522 32.788C126.522 33.2787 126.618 33.7054 126.81 34.068C127.002 34.42 127.264 34.692 127.594 34.884C127.925 35.076 128.298 35.172 128.714 35.172ZM135.105 37.092V28.484H137.489V30.916L137.153 30.212C137.409 29.604 137.82 29.1454 138.385 28.836C138.95 28.516 139.638 28.356 140.449 28.356V30.66C140.342 30.6494 140.246 30.644 140.161 30.644C140.076 30.6334 139.985 30.628 139.889 30.628C139.206 30.628 138.652 30.8254 138.225 31.22C137.809 31.604 137.601 32.2067 137.601 33.028V37.092H135.105ZM145.967 37.22C145.049 37.22 144.233 37.028 143.519 36.644C142.815 36.26 142.255 35.7374 141.839 35.076C141.433 34.404 141.231 33.6414 141.231 32.788C141.231 31.924 141.433 31.1614 141.839 30.5C142.255 29.828 142.815 29.3054 143.519 28.932C144.233 28.548 145.049 28.356 145.967 28.356C146.873 28.356 147.684 28.548 148.399 28.932C149.113 29.3054 149.673 29.8227 150.079 30.484C150.484 31.1454 150.687 31.9134 150.687 32.788C150.687 33.6414 150.484 34.404 150.079 35.076C149.673 35.7374 149.113 36.26 148.399 36.644C147.684 37.028 146.873 37.22 145.967 37.22ZM145.967 35.172C146.383 35.172 146.756 35.076 147.087 34.884C147.417 34.692 147.679 34.42 147.871 34.068C148.063 33.7054 148.159 33.2787 148.159 32.788C148.159 32.2867 148.063 31.86 147.871 31.508C147.679 31.156 147.417 30.884 147.087 30.692C146.756 30.5 146.383 30.404 145.967 30.404C145.551 30.404 145.177 30.5 144.847 30.692C144.516 30.884 144.249 31.156 144.047 31.508C143.855 31.86 143.759 32.2867 143.759 32.788C143.759 33.2787 143.855 33.7054 144.047 34.068C144.249 34.42 144.516 34.692 144.847 34.884C145.177 35.076 145.551 35.172 145.967 35.172ZM151.715 40.324C151.331 40.324 150.963 40.2814 150.611 40.196C150.259 40.1214 149.96 40.004 149.715 39.844L150.387 38.036C150.675 38.2387 151.027 38.34 151.443 38.34C151.752 38.34 151.998 38.2334 152.179 38.02C152.371 37.8174 152.467 37.508 152.467 37.092V28.484H154.963V37.076C154.963 38.068 154.68 38.8574 154.115 39.444C153.55 40.0307 152.75 40.324 151.715 40.324ZM153.715 27.284C153.256 27.284 152.883 27.1507 152.595 26.884C152.307 26.6174 152.163 26.2867 152.163 25.892C152.163 25.4974 152.307 25.1667 152.595 24.9C152.883 24.6334 153.256 24.5 153.715 24.5C154.174 24.5 154.547 24.628 154.835 24.884C155.123 25.1294 155.267 25.4494 155.267 25.844C155.267 26.26 155.123 26.6067 154.835 26.884C154.558 27.1507 154.184 27.284 153.715 27.284ZM161.533 37.22C160.552 37.22 159.688 37.028 158.941 36.644C158.205 36.26 157.635 35.7374 157.229 35.076C156.824 34.404 156.621 33.6414 156.621 32.788C156.621 31.924 156.819 31.1614 157.213 30.5C157.619 29.828 158.168 29.3054 158.861 28.932C159.555 28.548 160.339 28.356 161.213 28.356C162.056 28.356 162.813 28.5374 163.485 28.9C164.168 29.252 164.707 29.764 165.101 30.436C165.496 31.0974 165.693 31.892 165.693 32.82C165.693 32.916 165.688 33.028 165.677 33.156C165.667 33.2734 165.656 33.3854 165.645 33.492H158.653V32.036H164.333L163.373 32.468C163.373 32.02 163.283 31.6307 163.101 31.3C162.92 30.9694 162.669 30.7134 162.349 30.532C162.029 30.34 161.656 30.244 161.229 30.244C160.803 30.244 160.424 30.34 160.093 30.532C159.773 30.7134 159.523 30.9747 159.341 31.316C159.16 31.6467 159.069 32.0414 159.069 32.5V32.884C159.069 33.3534 159.171 33.7694 159.373 34.132C159.587 34.484 159.88 34.756 160.253 34.948C160.637 35.1294 161.085 35.22 161.597 35.22C162.056 35.22 162.456 35.1507 162.797 35.012C163.149 34.8734 163.469 34.6654 163.757 34.388L165.085 35.828C164.691 36.276 164.195 36.6227 163.597 36.868C163 37.1027 162.312 37.22 161.533 37.22ZM171.515 37.22C170.587 37.22 169.76 37.0334 169.035 36.66C168.31 36.276 167.739 35.748 167.323 35.076C166.918 34.404 166.715 33.6414 166.715 32.788C166.715 31.924 166.918 31.1614 167.323 30.5C167.739 29.828 168.31 29.3054 169.035 28.932C169.76 28.548 170.587 28.356 171.515 28.356C172.422 28.356 173.211 28.548 173.883 28.932C174.555 29.3054 175.051 29.844 175.371 30.548L173.435 31.588C173.211 31.1827 172.928 30.884 172.587 30.692C172.256 30.5 171.894 30.404 171.499 30.404C171.072 30.404 170.688 30.5 170.347 30.692C170.006 30.884 169.734 31.156 169.531 31.508C169.339 31.86 169.243 32.2867 169.243 32.788C169.243 33.2894 169.339 33.716 169.531 34.068C169.734 34.42 170.006 34.692 170.347 34.884C170.688 35.076 171.072 35.172 171.499 35.172C171.894 35.172 172.256 35.0814 172.587 34.9C172.928 34.708 173.211 34.404 173.435 33.988L175.371 35.044C175.051 35.7374 174.555 36.276 173.883 36.66C173.211 37.0334 172.422 37.22 171.515 37.22ZM180.453 37.22C179.44 37.22 178.651 36.964 178.085 36.452C177.52 35.9294 177.237 35.156 177.237 34.132V26.58H179.733V34.1C179.733 34.4627 179.829 34.7454 180.021 34.948C180.213 35.14 180.475 35.236 180.805 35.236C181.2 35.236 181.536 35.1294 181.813 34.916L182.485 36.676C182.229 36.8574 181.92 36.996 181.557 37.092C181.205 37.1774 180.837 37.22 180.453 37.22ZM175.909 30.596V28.676H181.877V30.596H175.909ZM186.782 37.22C186.046 37.22 185.337 37.1347 184.654 36.964C183.982 36.7827 183.449 36.5587 183.054 36.292L183.886 34.5C184.281 34.7454 184.745 34.948 185.278 35.108C185.822 35.2574 186.356 35.332 186.878 35.332C187.454 35.332 187.86 35.2627 188.094 35.124C188.34 34.9854 188.462 34.7934 188.462 34.548C188.462 34.3454 188.366 34.196 188.174 34.1C187.993 33.9934 187.748 33.9134 187.438 33.86C187.129 33.8067 186.788 33.7534 186.414 33.7C186.052 33.6467 185.684 33.5774 185.31 33.492C184.937 33.396 184.596 33.2574 184.286 33.076C183.977 32.8947 183.726 32.6494 183.534 32.34C183.353 32.0307 183.262 31.6307 183.262 31.14C183.262 30.596 183.417 30.116 183.726 29.7C184.046 29.284 184.505 28.9587 185.102 28.724C185.7 28.4787 186.414 28.356 187.246 28.356C187.833 28.356 188.43 28.42 189.038 28.548C189.646 28.676 190.153 28.8627 190.558 29.108L189.726 30.884C189.31 30.6387 188.889 30.4734 188.462 30.388C188.046 30.292 187.641 30.244 187.246 30.244C186.692 30.244 186.286 30.3187 186.03 30.468C185.774 30.6174 185.646 30.8094 185.646 31.044C185.646 31.2574 185.737 31.4174 185.918 31.524C186.11 31.6307 186.361 31.716 186.67 31.78C186.98 31.844 187.316 31.9027 187.678 31.956C188.052 31.9987 188.425 32.068 188.798 32.164C189.172 32.26 189.508 32.3987 189.806 32.58C190.116 32.7507 190.366 32.9907 190.558 33.3C190.75 33.5987 190.846 33.9934 190.846 34.484C190.846 35.0174 190.686 35.492 190.366 35.908C190.046 36.3134 189.582 36.6334 188.974 36.868C188.377 37.1027 187.646 37.22 186.782 37.22Z" fill="white"/>
<defs>
<filter id="filter0_dddd_357_506" x="0" y="0.092041" width="244" height="128" filterUnits="userSpaceOnUse" color-interpolation-filters="sRGB">
<feFlood flood-opacity="0" result="BackgroundImageFix"/>
<feColorMatrix in="SourceAlpha" type="matrix" values="0 0 0 0 0 0 0 0 0 0 0 0 0 0 0 0 0 0 127 0" result="hardAlpha"/>
<feOffset dy="3"/>
<feGaussianBlur stdDeviation="3.5"/>
<feColorMatrix type="matrix" values="0 0 0 0 0 0 0 0 0 0 0 0 0 0 0 0 0 0 0.1 0"/>
<feBlend mode="normal" in2="BackgroundImageFix" result="effect1_dropShadow_357_506"/>
<feColorMatrix in="SourceAlpha" type="matrix" values="0 0 0 0 0 0 0 0 0 0 0 0 0 0 0 0 0 0 127 0" result="hardAlpha"/>
<feOffset dy="13"/>
<feGaussianBlur stdDeviation="6.5"/>
<feColorMatrix type="matrix" values="0 0 0 0 0 0 0 0 0 0 0 0 0 0 0 0 0 0 0.09 0"/>
<feBlend mode="normal" in2="effect1_dropShadow_357_506" result="effect2_dropShadow_357_506"/>
<feColorMatrix in="SourceAlpha" type="matrix" values="0 0 0 0 0 0 0 0 0 0 0 0 0 0 0 0 0 0 127 0" result="hardAlpha"/>
<feOffset dy="28"/>
<feGaussianBlur stdDeviation="8.5"/>
<feColorMatrix type="matrix" values="0 0 0 0 0 0 0 0 0 0 0 0 0 0 0 0 0 0 0.05 0"/>
<feBlend mode="normal" in2="effect2_dropShadow_357_506" result="effect3_dropShadow_357_506"/>
<feColorMatrix in="SourceAlpha" type="matrix" values="0 0 0 0 0 0 0 0 0 0 0 0 0 0 0 0 0 0 127 0" result="hardAlpha"/>
<feOffset dy="50"/>
<feGaussianBlur stdDeviation="10"/>
<feColorMatrix type="matrix" values="0 0 0 0 0 0 0 0 0 0 0 0 0 0 0 0 0 0 0.01 0"/>
<feBlend mode="normal" in2="effect3_dropShadow_357_506" result="effect4_dropShadow_357_506"/>
<feBlend mode="normal" in="SourceGraphic" in2="effect4_dropShadow_357_506" result="shape"/>
</filter>
</defs>
</svg>
