<svg width="204" height="54" viewBox="0 0 204 54" fill="none" xmlns="http://www.w3.org/2000/svg">
<mask id="path-1-inside-1_357_449" fill="white">
<path fill-rule="evenodd" clip-rule="evenodd" d="M0 0H192H204V42L198 48L192 54H0V0Z"/>
</mask>
<path d="M0 0V-1H-1V0H0ZM204 0H205V-1H204V0ZM204 42L204.707 42.7071L205 42.4142V42H204ZM192 54V55H192.414L192.707 54.7071L192 54ZM0 54H-1V55H0V54ZM192 -1H0V1H192V-1ZM204 -1H192V1H204V-1ZM205 42V0H203V42H205ZM203.293 41.2929L197.293 47.2929L198.707 48.7071L204.707 42.7071L203.293 41.2929ZM197.293 47.2929L191.293 53.2929L192.707 54.7071L198.707 48.7071L197.293 47.2929ZM0 55H192V53H0V55ZM-1 0V54H1V0H-1Z" fill="#C8C8C8" mask="url(#path-1-inside-1_357_449)"/>
<path d="M41.0563 33.192C40.171 33.192 39.355 33.0533 38.6083 32.776C37.8723 32.488 37.227 32.0827 36.6723 31.56C36.1283 31.0373 35.7016 30.424 35.3923 29.72C35.0936 29.016 34.9443 28.2427 34.9443 27.4C34.9443 26.5573 35.0936 25.784 35.3923 25.08C35.7016 24.376 36.1336 23.7627 36.6883 23.24C37.243 22.7173 37.8936 22.3173 38.6403 22.04C39.387 21.752 40.2083 21.608 41.1043 21.608C42.0963 21.608 42.987 21.7733 43.7763 22.104C44.5763 22.4347 45.2483 22.9147 45.7923 23.544L44.1283 25.08C43.723 24.6533 43.2803 24.3387 42.8003 24.136C42.3203 23.9227 41.7976 23.816 41.2323 23.816C40.6883 23.816 40.1923 23.9013 39.7443 24.072C39.2963 24.2427 38.907 24.488 38.5763 24.808C38.2563 25.128 38.0056 25.5067 37.8243 25.944C37.6536 26.3813 37.5683 26.8667 37.5683 27.4C37.5683 27.9227 37.6536 28.4027 37.8243 28.84C38.0056 29.2773 38.2563 29.6613 38.5763 29.992C38.907 30.312 39.291 30.5573 39.7283 30.728C40.1763 30.8987 40.667 30.984 41.2003 30.984C41.7123 30.984 42.2083 30.904 42.6883 30.744C43.179 30.5733 43.6536 30.2907 44.1123 29.896L45.5843 31.768C44.9763 32.2267 44.267 32.5787 43.4563 32.824C42.6563 33.0693 41.8563 33.192 41.0563 33.192ZM43.2163 31.432V27.224H45.5843V31.768L43.2163 31.432ZM52.0881 33.128C51.1067 33.128 50.2427 32.936 49.4961 32.552C48.7601 32.168 48.1894 31.6453 47.7841 30.984C47.3787 30.312 47.1761 29.5493 47.1761 28.696C47.1761 27.832 47.3734 27.0693 47.7681 26.408C48.1734 25.736 48.7227 25.2133 49.4161 24.84C50.1094 24.456 50.8934 24.264 51.7681 24.264C52.6107 24.264 53.3681 24.4453 54.0401 24.808C54.7227 25.16 55.2614 25.672 55.6561 26.344C56.0507 27.0053 56.2481 27.8 56.2481 28.728C56.2481 28.824 56.2427 28.936 56.2321 29.064C56.2214 29.1813 56.2107 29.2933 56.2001 29.4H49.2081V27.944H54.8881L53.9281 28.376C53.9281 27.928 53.8374 27.5387 53.6561 27.208C53.4747 26.8773 53.2241 26.6213 52.9041 26.44C52.5841 26.248 52.2107 26.152 51.7841 26.152C51.3574 26.152 50.9787 26.248 50.6481 26.44C50.3281 26.6213 50.0774 26.8827 49.8961 27.224C49.7147 27.5547 49.6241 27.9493 49.6241 28.408V28.792C49.6241 29.2613 49.7254 29.6773 49.9281 30.04C50.1414 30.392 50.4347 30.664 50.8081 30.856C51.1921 31.0373 51.6401 31.128 52.1521 31.128C52.6107 31.128 53.0107 31.0587 53.3521 30.92C53.7041 30.7813 54.0241 30.5733 54.3121 30.296L55.6401 31.736C55.2454 32.184 54.7494 32.5307 54.1521 32.776C53.5547 33.0107 52.8667 33.128 52.0881 33.128ZM61.4298 33.128C60.4165 33.128 59.6271 32.872 59.0618 32.36C58.4965 31.8373 58.2138 31.064 58.2138 30.04V22.488H60.7098V30.008C60.7098 30.3707 60.8058 30.6533 60.9978 30.856C61.1898 31.048 61.4511 31.144 61.7818 31.144C62.1765 31.144 62.5125 31.0373 62.7898 30.824L63.4618 32.584C63.2058 32.7653 62.8965 32.904 62.5338 33C62.1818 33.0853 61.8138 33.128 61.4298 33.128ZM56.8858 26.504V24.584H62.8538V26.504H56.8858ZM74.6742 33V31.32L74.5142 30.952V27.944C74.5142 27.4107 74.3489 26.9947 74.0182 26.696C73.6982 26.3973 73.2022 26.248 72.5302 26.248C72.0715 26.248 71.6182 26.3227 71.1702 26.472C70.7329 26.6107 70.3595 26.8027 70.0502 27.048L69.1542 25.304C69.6235 24.9733 70.1889 24.7173 70.8502 24.536C71.5115 24.3547 72.1835 24.264 72.8662 24.264C74.1782 24.264 75.1969 24.5733 75.9222 25.192C76.6475 25.8107 77.0102 26.776 77.0102 28.088V33H74.6742ZM72.0502 33.128C71.3782 33.128 70.8022 33.016 70.3222 32.792C69.8422 32.5573 69.4742 32.2427 69.2182 31.848C68.9622 31.4533 68.8342 31.0107 68.8342 30.52C68.8342 30.008 68.9569 29.56 69.2022 29.176C69.4582 28.792 69.8582 28.4933 70.4022 28.28C70.9462 28.056 71.6555 27.944 72.5302 27.944H74.8182V29.4H72.8022C72.2155 29.4 71.8102 29.496 71.5862 29.688C71.3729 29.88 71.2662 30.12 71.2662 30.408C71.2662 30.728 71.3889 30.984 71.6342 31.176C71.8902 31.3573 72.2369 31.448 72.6742 31.448C73.0902 31.448 73.4635 31.352 73.7942 31.16C74.1249 30.9573 74.3649 30.664 74.5142 30.28L74.8982 31.432C74.7169 31.9867 74.3862 32.408 73.9062 32.696C73.4262 32.984 72.8075 33.128 72.0502 33.128ZM84.1044 33V24.2C84.1044 23.2293 84.3924 22.456 84.9684 21.88C85.5444 21.2933 86.3658 21 87.4324 21C87.7951 21 88.1418 21.0373 88.4724 21.112C88.8138 21.1867 89.1018 21.304 89.3364 21.464L88.6804 23.272C88.5418 23.176 88.3871 23.1013 88.2164 23.048C88.0458 22.9947 87.8644 22.968 87.6724 22.968C87.3098 22.968 87.0271 23.0747 86.8244 23.288C86.6324 23.4907 86.5364 23.8 86.5364 24.216V25.016L86.6004 26.088V33H84.1044ZM82.7764 26.504V24.584H88.7444V26.504H82.7764ZM90.0504 33V24.392H92.4344V26.824L92.0984 26.12C92.3544 25.512 92.7651 25.0533 93.3304 24.744C93.8958 24.424 94.5838 24.264 95.3944 24.264V26.568C95.2878 26.5573 95.1918 26.552 95.1064 26.552C95.0211 26.5413 94.9304 26.536 94.8344 26.536C94.1518 26.536 93.5971 26.7333 93.1704 27.128C92.7544 27.512 92.5464 28.1147 92.5464 28.936V33H90.0504ZM101.088 33.128C100.107 33.128 99.2427 32.936 98.4961 32.552C97.7601 32.168 97.1894 31.6453 96.7841 30.984C96.3787 30.312 96.1761 29.5493 96.1761 28.696C96.1761 27.832 96.3734 27.0693 96.7681 26.408C97.1734 25.736 97.7227 25.2133 98.4161 24.84C99.1094 24.456 99.8934 24.264 100.768 24.264C101.611 24.264 102.368 24.4453 103.04 24.808C103.723 25.16 104.261 25.672 104.656 26.344C105.051 27.0053 105.248 27.8 105.248 28.728C105.248 28.824 105.243 28.936 105.232 29.064C105.221 29.1813 105.211 29.2933 105.2 29.4H98.2081V27.944H103.888L102.928 28.376C102.928 27.928 102.837 27.5387 102.656 27.208C102.475 26.8773 102.224 26.6213 101.904 26.44C101.584 26.248 101.211 26.152 100.784 26.152C100.357 26.152 99.9787 26.248 99.6481 26.44C99.3281 26.6213 99.0774 26.8827 98.8961 27.224C98.7147 27.5547 98.6241 27.9493 98.6241 28.408V28.792C98.6241 29.2613 98.7254 29.6773 98.9281 30.04C99.1414 30.392 99.4347 30.664 99.8081 30.856C100.192 31.0373 100.64 31.128 101.152 31.128C101.611 31.128 102.011 31.0587 102.352 30.92C102.704 30.7813 103.024 30.5733 103.312 30.296L104.64 31.736C104.245 32.184 103.749 32.5307 103.152 32.776C102.555 33.0107 101.867 33.128 101.088 33.128ZM111.182 33.128C110.2 33.128 109.336 32.936 108.59 32.552C107.854 32.168 107.283 31.6453 106.878 30.984C106.472 30.312 106.27 29.5493 106.27 28.696C106.27 27.832 106.467 27.0693 106.862 26.408C107.267 25.736 107.816 25.2133 108.51 24.84C109.203 24.456 109.987 24.264 110.862 24.264C111.704 24.264 112.462 24.4453 113.134 24.808C113.816 25.16 114.355 25.672 114.75 26.344C115.144 27.0053 115.342 27.8 115.342 28.728C115.342 28.824 115.336 28.936 115.326 29.064C115.315 29.1813 115.304 29.2933 115.294 29.4H108.302V27.944H113.982L113.022 28.376C113.022 27.928 112.931 27.5387 112.75 27.208C112.568 26.8773 112.318 26.6213 111.998 26.44C111.678 26.248 111.304 26.152 110.878 26.152C110.451 26.152 110.072 26.248 109.742 26.44C109.422 26.6213 109.171 26.8827 108.99 27.224C108.808 27.5547 108.718 27.9493 108.718 28.408V28.792C108.718 29.2613 108.819 29.6773 109.022 30.04C109.235 30.392 109.528 30.664 109.902 30.856C110.286 31.0373 110.734 31.128 111.246 31.128C111.704 31.128 112.104 31.0587 112.446 30.92C112.798 30.7813 113.118 30.5733 113.406 30.296L114.734 31.736C114.339 32.184 113.843 32.5307 113.246 32.776C112.648 33.0107 111.96 33.128 111.182 33.128ZM125.199 33.128C124.388 33.128 123.657 32.9467 123.007 32.584C122.356 32.2213 121.839 31.7093 121.455 31.048C121.081 30.3867 120.895 29.6027 120.895 28.696C120.895 27.8 121.081 27.0213 121.455 26.36C121.839 25.6987 122.356 25.1867 123.007 24.824C123.657 24.4507 124.388 24.264 125.199 24.264C125.956 24.264 126.601 24.424 127.135 24.744C127.679 25.064 128.095 25.5493 128.383 26.2C128.671 26.8507 128.815 27.6827 128.815 28.696C128.815 29.6987 128.665 30.5307 128.367 31.192C128.068 31.8427 127.647 32.328 127.103 32.648C126.559 32.968 125.924 33.128 125.199 33.128ZM125.631 31.08C126.036 31.08 126.404 30.984 126.735 30.792C127.065 30.6 127.327 30.328 127.519 29.976C127.721 29.6133 127.823 29.1867 127.823 28.696C127.823 28.1947 127.721 27.768 127.519 27.416C127.327 27.064 127.065 26.792 126.735 26.6C126.404 26.408 126.036 26.312 125.631 26.312C125.215 26.312 124.841 26.408 124.511 26.6C124.18 26.792 123.913 27.064 123.711 27.416C123.519 27.768 123.423 28.1947 123.423 28.696C123.423 29.1867 123.519 29.6133 123.711 29.976C123.913 30.328 124.18 30.6 124.511 30.792C124.841 30.984 125.215 31.08 125.631 31.08ZM127.775 36.104V31.256L127.935 28.712L127.887 26.152V24.392H130.271V36.104H127.775ZM136.214 33.128C135.499 33.128 134.859 32.9893 134.294 32.712C133.739 32.4347 133.307 32.0133 132.998 31.448C132.688 30.872 132.534 30.1413 132.534 29.256V24.392H135.03V28.888C135.03 29.6027 135.179 30.1307 135.478 30.472C135.787 30.8027 136.219 30.968 136.774 30.968C137.158 30.968 137.499 30.888 137.798 30.728C138.096 30.5573 138.331 30.3013 138.502 29.96C138.672 29.608 138.758 29.1707 138.758 28.648V24.392H141.254V33H138.886V30.632L139.318 31.32C139.03 31.9173 138.603 32.3707 138.038 32.68C137.483 32.9787 136.875 33.128 136.214 33.128ZM147.662 33.128C146.745 33.128 145.929 32.936 145.214 32.552C144.51 32.168 143.95 31.6453 143.534 30.984C143.129 30.312 142.926 29.5493 142.926 28.696C142.926 27.832 143.129 27.0693 143.534 26.408C143.95 25.736 144.51 25.2133 145.214 24.84C145.929 24.456 146.745 24.264 147.662 24.264C148.569 24.264 149.379 24.456 150.094 24.84C150.809 25.2133 151.369 25.7307 151.774 26.392C152.179 27.0533 152.382 27.8213 152.382 28.696C152.382 29.5493 152.179 30.312 151.774 30.984C151.369 31.6453 150.809 32.168 150.094 32.552C149.379 32.936 148.569 33.128 147.662 33.128ZM147.662 31.08C148.078 31.08 148.451 30.984 148.782 30.792C149.113 30.6 149.374 30.328 149.566 29.976C149.758 29.6133 149.854 29.1867 149.854 28.696C149.854 28.1947 149.758 27.768 149.566 27.416C149.374 27.064 149.113 26.792 148.782 26.6C148.451 26.408 148.078 26.312 147.662 26.312C147.246 26.312 146.873 26.408 146.542 26.6C146.211 26.792 145.945 27.064 145.742 27.416C145.55 27.768 145.454 28.1947 145.454 28.696C145.454 29.1867 145.55 29.6133 145.742 29.976C145.945 30.328 146.211 30.6 146.542 30.792C146.873 30.984 147.246 31.08 147.662 31.08ZM157.57 33.128C156.557 33.128 155.768 32.872 155.202 32.36C154.637 31.8373 154.354 31.064 154.354 30.04V22.488H156.85V30.008C156.85 30.3707 156.946 30.6533 157.138 30.856C157.33 31.048 157.592 31.144 157.922 31.144C158.317 31.144 158.653 31.0373 158.93 30.824L159.602 32.584C159.346 32.7653 159.037 32.904 158.674 33C158.322 33.0853 157.954 33.128 157.57 33.128ZM153.026 26.504V24.584H158.994V26.504H153.026ZM165.01 33.128C164.029 33.128 163.165 32.936 162.418 32.552C161.682 32.168 161.111 31.6453 160.706 30.984C160.301 30.312 160.098 29.5493 160.098 28.696C160.098 27.832 160.295 27.0693 160.69 26.408C161.095 25.736 161.645 25.2133 162.338 24.84C163.031 24.456 163.815 24.264 164.69 24.264C165.533 24.264 166.29 24.4453 166.962 24.808C167.645 25.16 168.183 25.672 168.578 26.344C168.973 27.0053 169.17 27.8 169.17 28.728C169.17 28.824 169.165 28.936 169.154 29.064C169.143 29.1813 169.133 29.2933 169.122 29.4H162.13V27.944H167.81L166.85 28.376C166.85 27.928 166.759 27.5387 166.578 27.208C166.397 26.8773 166.146 26.6213 165.826 26.44C165.506 26.248 165.133 26.152 164.706 26.152C164.279 26.152 163.901 26.248 163.57 26.44C163.25 26.6213 162.999 26.8827 162.818 27.224C162.637 27.5547 162.546 27.9493 162.546 28.408V28.792C162.546 29.2613 162.647 29.6773 162.85 30.04C163.063 30.392 163.357 30.664 163.73 30.856C164.114 31.0373 164.562 31.128 165.074 31.128C165.533 31.128 165.933 31.0587 166.274 30.92C166.626 30.7813 166.946 30.5733 167.234 30.296L168.562 31.736C168.167 32.184 167.671 32.5307 167.074 32.776C166.477 33.0107 165.789 33.128 165.01 33.128Z" fill="#C8C8C8"/>
</svg>
