<svg width="244" height="128" viewBox="0 0 244 128" fill="none" xmlns="http://www.w3.org/2000/svg">
<g filter="url(#filter0_dddd_357_1580)">
<path fill-rule="evenodd" clip-rule="evenodd" d="M20 4H200H212H224V46L218 52L212 58H20V4Z" fill="#11562F"/>
</g>
<path d="M66.6877 37.192C65.7917 37.192 64.933 37.0747 64.1117 36.84C63.2904 36.5947 62.629 36.28 62.1277 35.896L63.0077 33.944C63.4877 34.2853 64.053 34.568 64.7037 34.792C65.365 35.0053 66.0317 35.112 66.7037 35.112C67.2157 35.112 67.6264 35.064 67.9357 34.968C68.2557 34.8613 68.4904 34.7173 68.6397 34.536C68.789 34.3547 68.8637 34.1467 68.8637 33.912C68.8637 33.6133 68.7464 33.3787 68.5117 33.208C68.277 33.0267 67.9677 32.8827 67.5837 32.776C67.1997 32.6587 66.773 32.552 66.3037 32.456C65.845 32.3493 65.381 32.2213 64.9117 32.072C64.453 31.9227 64.0317 31.7307 63.6477 31.496C63.2637 31.2613 62.949 30.952 62.7037 30.568C62.469 30.184 62.3517 29.6933 62.3517 29.096C62.3517 28.456 62.5224 27.8747 62.8637 27.352C63.2157 26.8187 63.7384 26.3973 64.4317 26.088C65.1357 25.768 66.0157 25.608 67.0717 25.608C67.7757 25.608 68.469 25.6933 69.1517 25.864C69.8344 26.024 70.437 26.2693 70.9597 26.6L70.1597 28.568C69.637 28.2693 69.1144 28.0507 68.5917 27.912C68.069 27.7627 67.557 27.688 67.0557 27.688C66.5544 27.688 66.1437 27.7467 65.8237 27.864C65.5037 27.9813 65.2744 28.136 65.1357 28.328C64.997 28.5093 64.9277 28.7227 64.9277 28.968C64.9277 29.256 65.045 29.4907 65.2797 29.672C65.5144 29.8427 65.8237 29.9813 66.2077 30.088C66.5917 30.1947 67.013 30.3013 67.4717 30.408C67.941 30.5147 68.405 30.6373 68.8637 30.776C69.333 30.9147 69.7597 31.1013 70.1437 31.336C70.5277 31.5707 70.837 31.88 71.0717 32.264C71.317 32.648 71.4397 33.1333 71.4397 33.72C71.4397 34.3493 71.2637 34.9253 70.9117 35.448C70.5597 35.9707 70.0317 36.392 69.3277 36.712C68.6344 37.032 67.7544 37.192 66.6877 37.192ZM77.3068 37.128C76.3255 37.128 75.4615 36.936 74.7148 36.552C73.9788 36.168 73.4081 35.6453 73.0028 34.984C72.5975 34.312 72.3948 33.5493 72.3948 32.696C72.3948 31.832 72.5921 31.0693 72.9868 30.408C73.3921 29.736 73.9415 29.2133 74.6348 28.84C75.3281 28.456 76.1121 28.264 76.9868 28.264C77.8295 28.264 78.5868 28.4453 79.2588 28.808C79.9415 29.16 80.4801 29.672 80.8748 30.344C81.2695 31.0053 81.4668 31.8 81.4668 32.728C81.4668 32.824 81.4615 32.936 81.4508 33.064C81.4401 33.1813 81.4295 33.2933 81.4188 33.4H74.4268V31.944H80.1068L79.1468 32.376C79.1468 31.928 79.0561 31.5387 78.8748 31.208C78.6935 30.8773 78.4428 30.6213 78.1228 30.44C77.8028 30.248 77.4295 30.152 77.0028 30.152C76.5761 30.152 76.1975 30.248 75.8668 30.44C75.5468 30.6213 75.2961 30.8827 75.1148 31.224C74.9335 31.5547 74.8428 31.9493 74.8428 32.408V32.792C74.8428 33.2613 74.9441 33.6773 75.1468 34.04C75.3601 34.392 75.6535 34.664 76.0268 34.856C76.4108 35.0373 76.8588 35.128 77.3708 35.128C77.8295 35.128 78.2295 35.0587 78.5708 34.92C78.9228 34.7813 79.2428 34.5733 79.5308 34.296L80.8588 35.736C80.4641 36.184 79.9681 36.5307 79.3708 36.776C78.7735 37.0107 78.0855 37.128 77.3068 37.128ZM88.3606 28.264C89.0432 28.264 89.6512 28.4027 90.1846 28.68C90.7286 28.9467 91.1552 29.3627 91.4646 29.928C91.7739 30.4827 91.9286 31.1973 91.9286 32.072V37H89.4326V32.456C89.4326 31.7627 89.2779 31.2507 88.9686 30.92C88.6699 30.5893 88.2432 30.424 87.6886 30.424C87.2939 30.424 86.9366 30.5093 86.6166 30.68C86.3072 30.84 86.0619 31.0907 85.8806 31.432C85.7099 31.7733 85.6246 32.2107 85.6246 32.744V37H83.1286V28.392H85.5126V30.776L85.0646 30.056C85.3739 29.48 85.8166 29.0373 86.3926 28.728C86.9686 28.4187 87.6246 28.264 88.3606 28.264ZM97.9496 37.128C97.1389 37.128 96.4082 36.9467 95.7576 36.584C95.1069 36.2107 94.5896 35.6933 94.2056 35.032C93.8322 34.3707 93.6456 33.592 93.6456 32.696C93.6456 31.7893 93.8322 31.0053 94.2056 30.344C94.5896 29.6827 95.1069 29.1707 95.7576 28.808C96.4082 28.4453 97.1389 28.264 97.9496 28.264C98.6749 28.264 99.3096 28.424 99.8536 28.744C100.398 29.064 100.819 29.5493 101.118 30.2C101.416 30.8507 101.566 31.6827 101.566 32.696C101.566 33.6987 101.422 34.5307 101.134 35.192C100.846 35.8427 100.43 36.328 99.8856 36.648C99.3522 36.968 98.7069 37.128 97.9496 37.128ZM98.3816 35.08C98.7869 35.08 99.1549 34.984 99.4856 34.792C99.8162 34.6 100.078 34.328 100.27 33.976C100.472 33.6133 100.574 33.1867 100.574 32.696C100.574 32.1947 100.472 31.768 100.27 31.416C100.078 31.064 99.8162 30.792 99.4856 30.6C99.1549 30.408 98.7869 30.312 98.3816 30.312C97.9656 30.312 97.5922 30.408 97.2616 30.6C96.9309 30.792 96.6642 31.064 96.4616 31.416C96.2696 31.768 96.1736 32.1947 96.1736 32.696C96.1736 33.1867 96.2696 33.6133 96.4616 33.976C96.6642 34.328 96.9309 34.6 97.2616 34.792C97.5922 34.984 97.9656 35.08 98.3816 35.08ZM100.638 37V35.24L100.686 32.68L100.526 30.136V25.128H103.022V37H100.638ZM110.039 37V25.8H112.183L116.951 33.704H115.815L120.503 25.8H122.631L122.663 37H120.231L120.215 29.528H120.663L116.919 35.816H115.751L111.927 29.528H112.471V37H110.039ZM129.416 37.128C128.435 37.128 127.571 36.936 126.824 36.552C126.088 36.168 125.518 35.6453 125.112 34.984C124.707 34.312 124.504 33.5493 124.504 32.696C124.504 31.832 124.702 31.0693 125.096 30.408C125.502 29.736 126.051 29.2133 126.744 28.84C127.438 28.456 128.222 28.264 129.096 28.264C129.939 28.264 130.696 28.4453 131.368 28.808C132.051 29.16 132.59 29.672 132.984 30.344C133.379 31.0053 133.576 31.8 133.576 32.728C133.576 32.824 133.571 32.936 133.56 33.064C133.55 33.1813 133.539 33.2933 133.528 33.4H126.536V31.944H132.216L131.256 32.376C131.256 31.928 131.166 31.5387 130.984 31.208C130.803 30.8773 130.552 30.6213 130.232 30.44C129.912 30.248 129.539 30.152 129.112 30.152C128.686 30.152 128.307 30.248 127.976 30.44C127.656 30.6213 127.406 30.8827 127.224 31.224C127.043 31.5547 126.952 31.9493 126.952 32.408V32.792C126.952 33.2613 127.054 33.6773 127.256 34.04C127.47 34.392 127.763 34.664 128.136 34.856C128.52 35.0373 128.968 35.128 129.48 35.128C129.939 35.128 130.339 35.0587 130.68 34.92C131.032 34.7813 131.352 34.5733 131.64 34.296L132.968 35.736C132.574 36.184 132.078 36.5307 131.48 36.776C130.883 37.0107 130.195 37.128 129.416 37.128ZM138.134 37.128C137.398 37.128 136.689 37.0427 136.006 36.872C135.334 36.6907 134.801 36.4667 134.406 36.2L135.238 34.408C135.633 34.6533 136.097 34.856 136.63 35.016C137.174 35.1653 137.707 35.24 138.23 35.24C138.806 35.24 139.211 35.1707 139.446 35.032C139.691 34.8933 139.814 34.7013 139.814 34.456C139.814 34.2533 139.718 34.104 139.526 34.008C139.345 33.9013 139.099 33.8213 138.79 33.768C138.481 33.7147 138.139 33.6613 137.766 33.608C137.403 33.5547 137.035 33.4853 136.662 33.4C136.289 33.304 135.947 33.1653 135.638 32.984C135.329 32.8027 135.078 32.5573 134.886 32.248C134.705 31.9387 134.614 31.5387 134.614 31.048C134.614 30.504 134.769 30.024 135.078 29.608C135.398 29.192 135.857 28.8667 136.454 28.632C137.051 28.3867 137.766 28.264 138.598 28.264C139.185 28.264 139.782 28.328 140.39 28.456C140.998 28.584 141.505 28.7707 141.91 29.016L141.078 30.792C140.662 30.5467 140.241 30.3813 139.814 30.296C139.398 30.2 138.993 30.152 138.598 30.152C138.043 30.152 137.638 30.2267 137.382 30.376C137.126 30.5253 136.998 30.7173 136.998 30.952C136.998 31.1653 137.089 31.3253 137.27 31.432C137.462 31.5387 137.713 31.624 138.022 31.688C138.331 31.752 138.667 31.8107 139.03 31.864C139.403 31.9067 139.777 31.976 140.15 32.072C140.523 32.168 140.859 32.3067 141.158 32.488C141.467 32.6587 141.718 32.8987 141.91 33.208C142.102 33.5067 142.198 33.9013 142.198 34.392C142.198 34.9253 142.038 35.4 141.718 35.816C141.398 36.2213 140.934 36.5413 140.326 36.776C139.729 37.0107 138.998 37.128 138.134 37.128ZM146.634 37.128C145.898 37.128 145.189 37.0427 144.506 36.872C143.834 36.6907 143.301 36.4667 142.906 36.2L143.738 34.408C144.133 34.6533 144.597 34.856 145.13 35.016C145.674 35.1653 146.207 35.24 146.73 35.24C147.306 35.24 147.711 35.1707 147.946 35.032C148.191 34.8933 148.314 34.7013 148.314 34.456C148.314 34.2533 148.218 34.104 148.026 34.008C147.845 33.9013 147.599 33.8213 147.29 33.768C146.981 33.7147 146.639 33.6613 146.266 33.608C145.903 33.5547 145.535 33.4853 145.162 33.4C144.789 33.304 144.447 33.1653 144.138 32.984C143.829 32.8027 143.578 32.5573 143.386 32.248C143.205 31.9387 143.114 31.5387 143.114 31.048C143.114 30.504 143.269 30.024 143.578 29.608C143.898 29.192 144.357 28.8667 144.954 28.632C145.551 28.3867 146.266 28.264 147.098 28.264C147.685 28.264 148.282 28.328 148.89 28.456C149.498 28.584 150.005 28.7707 150.41 29.016L149.578 30.792C149.162 30.5467 148.741 30.3813 148.314 30.296C147.898 30.2 147.493 30.152 147.098 30.152C146.543 30.152 146.138 30.2267 145.882 30.376C145.626 30.5253 145.498 30.7173 145.498 30.952C145.498 31.1653 145.589 31.3253 145.77 31.432C145.962 31.5387 146.213 31.624 146.522 31.688C146.831 31.752 147.167 31.8107 147.53 31.864C147.903 31.9067 148.277 31.976 148.65 32.072C149.023 32.168 149.359 32.3067 149.658 32.488C149.967 32.6587 150.218 32.8987 150.41 33.208C150.602 33.5067 150.698 33.9013 150.698 34.392C150.698 34.9253 150.538 35.4 150.218 35.816C149.898 36.2213 149.434 36.5413 148.826 36.776C148.229 37.0107 147.498 37.128 146.634 37.128ZM157.518 37V35.32L157.358 34.952V31.944C157.358 31.4107 157.193 30.9947 156.862 30.696C156.542 30.3973 156.046 30.248 155.374 30.248C154.915 30.248 154.462 30.3227 154.014 30.472C153.577 30.6107 153.203 30.8027 152.894 31.048L151.998 29.304C152.467 28.9733 153.033 28.7173 153.694 28.536C154.355 28.3547 155.027 28.264 155.71 28.264C157.022 28.264 158.041 28.5733 158.766 29.192C159.491 29.8107 159.854 30.776 159.854 32.088V37H157.518ZM154.894 37.128C154.222 37.128 153.646 37.016 153.166 36.792C152.686 36.5573 152.318 36.2427 152.062 35.848C151.806 35.4533 151.678 35.0107 151.678 34.52C151.678 34.008 151.801 33.56 152.046 33.176C152.302 32.792 152.702 32.4933 153.246 32.28C153.79 32.056 154.499 31.944 155.374 31.944H157.662V33.4H155.646C155.059 33.4 154.654 33.496 154.43 33.688C154.217 33.88 154.11 34.12 154.11 34.408C154.11 34.728 154.233 34.984 154.478 35.176C154.734 35.3573 155.081 35.448 155.518 35.448C155.934 35.448 156.307 35.352 156.638 35.16C156.969 34.9573 157.209 34.664 157.358 34.28L157.742 35.432C157.561 35.9867 157.23 36.408 156.75 36.696C156.27 36.984 155.651 37.128 154.894 37.128ZM166.223 40.232C165.413 40.232 164.629 40.1307 163.871 39.928C163.125 39.736 162.501 39.4427 161.999 39.048L162.991 37.256C163.354 37.5547 163.813 37.7893 164.367 37.96C164.933 38.1413 165.487 38.232 166.031 38.232C166.917 38.232 167.557 38.0347 167.951 37.64C168.357 37.2453 168.559 36.6587 168.559 35.88V34.584L168.719 32.424L168.687 30.248V28.392H171.055V35.56C171.055 37.16 170.639 38.3387 169.807 39.096C168.975 39.8533 167.781 40.232 166.223 40.232ZM165.839 36.584C165.039 36.584 164.314 36.4133 163.663 36.072C163.023 35.72 162.506 35.2347 162.111 34.616C161.727 33.9867 161.535 33.256 161.535 32.424C161.535 31.5813 161.727 30.8507 162.111 30.232C162.506 29.6027 163.023 29.1173 163.663 28.776C164.314 28.4347 165.039 28.264 165.839 28.264C166.565 28.264 167.205 28.4133 167.759 28.712C168.314 29 168.746 29.4533 169.055 30.072C169.365 30.68 169.519 31.464 169.519 32.424C169.519 33.3733 169.365 34.1573 169.055 34.776C168.746 35.384 168.314 35.8373 167.759 36.136C167.205 36.4347 166.565 36.584 165.839 36.584ZM166.335 34.536C166.773 34.536 167.162 34.4507 167.503 34.28C167.845 34.0987 168.111 33.848 168.303 33.528C168.495 33.208 168.591 32.84 168.591 32.424C168.591 31.9973 168.495 31.6293 168.303 31.32C168.111 31 167.845 30.7547 167.503 30.584C167.162 30.4027 166.773 30.312 166.335 30.312C165.898 30.312 165.509 30.4027 165.167 30.584C164.826 30.7547 164.554 31 164.351 31.32C164.159 31.6293 164.063 31.9973 164.063 32.424C164.063 32.84 164.159 33.208 164.351 33.528C164.554 33.848 164.826 34.0987 165.167 34.28C165.509 34.4507 165.898 34.536 166.335 34.536ZM177.651 37.128C176.669 37.128 175.805 36.936 175.059 36.552C174.323 36.168 173.752 35.6453 173.347 34.984C172.941 34.312 172.739 33.5493 172.739 32.696C172.739 31.832 172.936 31.0693 173.331 30.408C173.736 29.736 174.285 29.2133 174.979 28.84C175.672 28.456 176.456 28.264 177.331 28.264C178.173 28.264 178.931 28.4453 179.603 28.808C180.285 29.16 180.824 29.672 181.219 30.344C181.613 31.0053 181.811 31.8 181.811 32.728C181.811 32.824 181.805 32.936 181.795 33.064C181.784 33.1813 181.773 33.2933 181.763 33.4H174.771V31.944H180.451L179.491 32.376C179.491 31.928 179.4 31.5387 179.219 31.208C179.037 30.8773 178.787 30.6213 178.467 30.44C178.147 30.248 177.773 30.152 177.347 30.152C176.92 30.152 176.541 30.248 176.211 30.44C175.891 30.6213 175.64 30.8827 175.459 31.224C175.277 31.5547 175.187 31.9493 175.187 32.408V32.792C175.187 33.2613 175.288 33.6773 175.491 34.04C175.704 34.392 175.997 34.664 176.371 34.856C176.755 35.0373 177.203 35.128 177.715 35.128C178.173 35.128 178.573 35.0587 178.915 34.92C179.267 34.7813 179.587 34.5733 179.875 34.296L181.203 35.736C180.808 36.184 180.312 36.5307 179.715 36.776C179.117 37.0107 178.429 37.128 177.651 37.128Z" fill="white"/>
<defs>
<filter id="filter0_dddd_357_1580" x="0" y="0" width="244" height="128" filterUnits="userSpaceOnUse" color-interpolation-filters="sRGB">
<feFlood flood-opacity="0" result="BackgroundImageFix"/>
<feColorMatrix in="SourceAlpha" type="matrix" values="0 0 0 0 0 0 0 0 0 0 0 0 0 0 0 0 0 0 127 0" result="hardAlpha"/>
<feOffset dy="3"/>
<feGaussianBlur stdDeviation="3.5"/>
<feColorMatrix type="matrix" values="0 0 0 0 0 0 0 0 0 0 0 0 0 0 0 0 0 0 0.1 0"/>
<feBlend mode="normal" in2="BackgroundImageFix" result="effect1_dropShadow_357_1580"/>
<feColorMatrix in="SourceAlpha" type="matrix" values="0 0 0 0 0 0 0 0 0 0 0 0 0 0 0 0 0 0 127 0" result="hardAlpha"/>
<feOffset dy="13"/>
<feGaussianBlur stdDeviation="6.5"/>
<feColorMatrix type="matrix" values="0 0 0 0 0 0 0 0 0 0 0 0 0 0 0 0 0 0 0.09 0"/>
<feBlend mode="normal" in2="effect1_dropShadow_357_1580" result="effect2_dropShadow_357_1580"/>
<feColorMatrix in="SourceAlpha" type="matrix" values="0 0 0 0 0 0 0 0 0 0 0 0 0 0 0 0 0 0 127 0" result="hardAlpha"/>
<feOffset dy="28"/>
<feGaussianBlur stdDeviation="8.5"/>
<feColorMatrix type="matrix" values="0 0 0 0 0 0 0 0 0 0 0 0 0 0 0 0 0 0 0.05 0"/>
<feBlend mode="normal" in2="effect2_dropShadow_357_1580" result="effect3_dropShadow_357_1580"/>
<feColorMatrix in="SourceAlpha" type="matrix" values="0 0 0 0 0 0 0 0 0 0 0 0 0 0 0 0 0 0 127 0" result="hardAlpha"/>
<feOffset dy="50"/>
<feGaussianBlur stdDeviation="10"/>
<feColorMatrix type="matrix" values="0 0 0 0 0 0 0 0 0 0 0 0 0 0 0 0 0 0 0.01 0"/>
<feBlend mode="normal" in2="effect3_dropShadow_357_1580" result="effect4_dropShadow_357_1580"/>
<feBlend mode="normal" in="SourceGraphic" in2="effect4_dropShadow_357_1580" result="shape"/>
</filter>
</defs>
</svg>
