<svg width="244" height="128" viewBox="0 0 244 128" fill="none" xmlns="http://www.w3.org/2000/svg">
<g filter="url(#filter0_dddd_357_1690)">
<path fill-rule="evenodd" clip-rule="evenodd" d="M20 4H200H212H224V46L218 52L212 58H20V4Z" fill="#11562F"/>
</g>
<path d="M61.0563 37.192C60.171 37.192 59.355 37.0533 58.6083 36.776C57.8723 36.488 57.227 36.0827 56.6723 35.56C56.1283 35.0373 55.7016 34.424 55.3923 33.72C55.0936 33.016 54.9443 32.2427 54.9443 31.4C54.9443 30.5573 55.0936 29.784 55.3923 29.08C55.7016 28.376 56.1336 27.7627 56.6883 27.24C57.243 26.7173 57.8936 26.3173 58.6403 26.04C59.387 25.752 60.2083 25.608 61.1043 25.608C62.0963 25.608 62.987 25.7733 63.7763 26.104C64.5763 26.4347 65.2483 26.9147 65.7923 27.544L64.1283 29.08C63.723 28.6533 63.2803 28.3387 62.8003 28.136C62.3203 27.9227 61.7976 27.816 61.2323 27.816C60.6883 27.816 60.1923 27.9013 59.7443 28.072C59.2963 28.2427 58.907 28.488 58.5763 28.808C58.2563 29.128 58.0056 29.5067 57.8243 29.944C57.6536 30.3813 57.5683 30.8667 57.5683 31.4C57.5683 31.9227 57.6536 32.4027 57.8243 32.84C58.0056 33.2773 58.2563 33.6613 58.5763 33.992C58.907 34.312 59.291 34.5573 59.7283 34.728C60.1763 34.8987 60.667 34.984 61.2003 34.984C61.7123 34.984 62.2083 34.904 62.6883 34.744C63.179 34.5733 63.6536 34.2907 64.1123 33.896L65.5843 35.768C64.9763 36.2267 64.267 36.5787 63.4563 36.824C62.6563 37.0693 61.8563 37.192 61.0563 37.192ZM63.2163 35.432V31.224H65.5843V35.768L63.2163 35.432ZM72.0881 37.128C71.1067 37.128 70.2427 36.936 69.4961 36.552C68.7601 36.168 68.1894 35.6453 67.7841 34.984C67.3787 34.312 67.1761 33.5493 67.1761 32.696C67.1761 31.832 67.3734 31.0693 67.7681 30.408C68.1734 29.736 68.7227 29.2133 69.4161 28.84C70.1094 28.456 70.8934 28.264 71.7681 28.264C72.6107 28.264 73.3681 28.4453 74.0401 28.808C74.7227 29.16 75.2614 29.672 75.6561 30.344C76.0507 31.0053 76.2481 31.8 76.2481 32.728C76.2481 32.824 76.2427 32.936 76.2321 33.064C76.2214 33.1813 76.2107 33.2933 76.2001 33.4H69.2081V31.944H74.8881L73.9281 32.376C73.9281 31.928 73.8374 31.5387 73.6561 31.208C73.4747 30.8773 73.2241 30.6213 72.9041 30.44C72.5841 30.248 72.2107 30.152 71.7841 30.152C71.3574 30.152 70.9787 30.248 70.6481 30.44C70.3281 30.6213 70.0774 30.8827 69.8961 31.224C69.7147 31.5547 69.6241 31.9493 69.6241 32.408V32.792C69.6241 33.2613 69.7254 33.6773 69.9281 34.04C70.1414 34.392 70.4347 34.664 70.8081 34.856C71.1921 35.0373 71.6401 35.128 72.1521 35.128C72.6107 35.128 73.0107 35.0587 73.3521 34.92C73.7041 34.7813 74.0241 34.5733 74.3121 34.296L75.6401 35.736C75.2454 36.184 74.7494 36.5307 74.1521 36.776C73.5547 37.0107 72.8667 37.128 72.0881 37.128ZM81.4298 37.128C80.4165 37.128 79.6271 36.872 79.0618 36.36C78.4965 35.8373 78.2138 35.064 78.2138 34.04V26.488H80.7098V34.008C80.7098 34.3707 80.8058 34.6533 80.9978 34.856C81.1898 35.048 81.4511 35.144 81.7818 35.144C82.1765 35.144 82.5125 35.0373 82.7898 34.824L83.4618 36.584C83.2058 36.7653 82.8965 36.904 82.5338 37C82.1818 37.0853 81.8138 37.128 81.4298 37.128ZM76.8858 30.504V28.584H82.8538V30.504H76.8858ZM94.6742 37V35.32L94.5142 34.952V31.944C94.5142 31.4107 94.3489 30.9947 94.0182 30.696C93.6982 30.3973 93.2022 30.248 92.5302 30.248C92.0715 30.248 91.6182 30.3227 91.1702 30.472C90.7329 30.6107 90.3595 30.8027 90.0502 31.048L89.1542 29.304C89.6235 28.9733 90.1889 28.7173 90.8502 28.536C91.5115 28.3547 92.1835 28.264 92.8662 28.264C94.1782 28.264 95.1969 28.5733 95.9222 29.192C96.6475 29.8107 97.0102 30.776 97.0102 32.088V37H94.6742ZM92.0502 37.128C91.3782 37.128 90.8022 37.016 90.3222 36.792C89.8422 36.5573 89.4742 36.2427 89.2182 35.848C88.9622 35.4533 88.8342 35.0107 88.8342 34.52C88.8342 34.008 88.9569 33.56 89.2022 33.176C89.4582 32.792 89.8582 32.4933 90.4022 32.28C90.9462 32.056 91.6555 31.944 92.5302 31.944H94.8182V33.4H92.8022C92.2155 33.4 91.8102 33.496 91.5862 33.688C91.3729 33.88 91.2662 34.12 91.2662 34.408C91.2662 34.728 91.3889 34.984 91.6342 35.176C91.8902 35.3573 92.2369 35.448 92.6742 35.448C93.0902 35.448 93.4635 35.352 93.7942 35.16C94.1249 34.9573 94.3649 34.664 94.5142 34.28L94.8982 35.432C94.7169 35.9867 94.3862 36.408 93.9062 36.696C93.4262 36.984 92.8075 37.128 92.0502 37.128ZM104.104 37V28.2C104.104 27.2293 104.392 26.456 104.968 25.88C105.544 25.2933 106.366 25 107.432 25C107.795 25 108.142 25.0373 108.472 25.112C108.814 25.1867 109.102 25.304 109.336 25.464L108.68 27.272C108.542 27.176 108.387 27.1013 108.216 27.048C108.046 26.9947 107.864 26.968 107.672 26.968C107.31 26.968 107.027 27.0747 106.824 27.288C106.632 27.4907 106.536 27.8 106.536 28.216V29.016L106.6 30.088V37H104.104ZM102.776 30.504V28.584H108.744V30.504H102.776ZM110.05 37V28.392H112.434V30.824L112.098 30.12C112.354 29.512 112.765 29.0533 113.33 28.744C113.896 28.424 114.584 28.264 115.394 28.264V30.568C115.288 30.5573 115.192 30.552 115.106 30.552C115.021 30.5413 114.93 30.536 114.834 30.536C114.152 30.536 113.597 30.7333 113.17 31.128C112.754 31.512 112.546 32.1147 112.546 32.936V37H110.05ZM121.088 37.128C120.107 37.128 119.243 36.936 118.496 36.552C117.76 36.168 117.189 35.6453 116.784 34.984C116.379 34.312 116.176 33.5493 116.176 32.696C116.176 31.832 116.373 31.0693 116.768 30.408C117.173 29.736 117.723 29.2133 118.416 28.84C119.109 28.456 119.893 28.264 120.768 28.264C121.611 28.264 122.368 28.4453 123.04 28.808C123.723 29.16 124.261 29.672 124.656 30.344C125.051 31.0053 125.248 31.8 125.248 32.728C125.248 32.824 125.243 32.936 125.232 33.064C125.221 33.1813 125.211 33.2933 125.2 33.4H118.208V31.944H123.888L122.928 32.376C122.928 31.928 122.837 31.5387 122.656 31.208C122.475 30.8773 122.224 30.6213 121.904 30.44C121.584 30.248 121.211 30.152 120.784 30.152C120.357 30.152 119.979 30.248 119.648 30.44C119.328 30.6213 119.077 30.8827 118.896 31.224C118.715 31.5547 118.624 31.9493 118.624 32.408V32.792C118.624 33.2613 118.725 33.6773 118.928 34.04C119.141 34.392 119.435 34.664 119.808 34.856C120.192 35.0373 120.64 35.128 121.152 35.128C121.611 35.128 122.011 35.0587 122.352 34.92C122.704 34.7813 123.024 34.5733 123.312 34.296L124.64 35.736C124.245 36.184 123.749 36.5307 123.152 36.776C122.555 37.0107 121.867 37.128 121.088 37.128ZM131.182 37.128C130.2 37.128 129.336 36.936 128.59 36.552C127.854 36.168 127.283 35.6453 126.878 34.984C126.472 34.312 126.27 33.5493 126.27 32.696C126.27 31.832 126.467 31.0693 126.862 30.408C127.267 29.736 127.816 29.2133 128.51 28.84C129.203 28.456 129.987 28.264 130.862 28.264C131.704 28.264 132.462 28.4453 133.134 28.808C133.816 29.16 134.355 29.672 134.75 30.344C135.144 31.0053 135.342 31.8 135.342 32.728C135.342 32.824 135.336 32.936 135.326 33.064C135.315 33.1813 135.304 33.2933 135.294 33.4H128.302V31.944H133.982L133.022 32.376C133.022 31.928 132.931 31.5387 132.75 31.208C132.568 30.8773 132.318 30.6213 131.998 30.44C131.678 30.248 131.304 30.152 130.878 30.152C130.451 30.152 130.072 30.248 129.742 30.44C129.422 30.6213 129.171 30.8827 128.99 31.224C128.808 31.5547 128.718 31.9493 128.718 32.408V32.792C128.718 33.2613 128.819 33.6773 129.022 34.04C129.235 34.392 129.528 34.664 129.902 34.856C130.286 35.0373 130.734 35.128 131.246 35.128C131.704 35.128 132.104 35.0587 132.446 34.92C132.798 34.7813 133.118 34.5733 133.406 34.296L134.734 35.736C134.339 36.184 133.843 36.5307 133.246 36.776C132.648 37.0107 131.96 37.128 131.182 37.128ZM145.199 37.128C144.388 37.128 143.657 36.9467 143.007 36.584C142.356 36.2213 141.839 35.7093 141.455 35.048C141.081 34.3867 140.895 33.6027 140.895 32.696C140.895 31.8 141.081 31.0213 141.455 30.36C141.839 29.6987 142.356 29.1867 143.007 28.824C143.657 28.4507 144.388 28.264 145.199 28.264C145.956 28.264 146.601 28.424 147.135 28.744C147.679 29.064 148.095 29.5493 148.383 30.2C148.671 30.8507 148.815 31.6827 148.815 32.696C148.815 33.6987 148.665 34.5307 148.367 35.192C148.068 35.8427 147.647 36.328 147.103 36.648C146.559 36.968 145.924 37.128 145.199 37.128ZM145.631 35.08C146.036 35.08 146.404 34.984 146.735 34.792C147.065 34.6 147.327 34.328 147.519 33.976C147.721 33.6133 147.823 33.1867 147.823 32.696C147.823 32.1947 147.721 31.768 147.519 31.416C147.327 31.064 147.065 30.792 146.735 30.6C146.404 30.408 146.036 30.312 145.631 30.312C145.215 30.312 144.841 30.408 144.511 30.6C144.18 30.792 143.913 31.064 143.711 31.416C143.519 31.768 143.423 32.1947 143.423 32.696C143.423 33.1867 143.519 33.6133 143.711 33.976C143.913 34.328 144.18 34.6 144.511 34.792C144.841 34.984 145.215 35.08 145.631 35.08ZM147.775 40.104V35.256L147.935 32.712L147.887 30.152V28.392H150.271V40.104H147.775ZM156.214 37.128C155.499 37.128 154.859 36.9893 154.294 36.712C153.739 36.4347 153.307 36.0133 152.998 35.448C152.688 34.872 152.534 34.1413 152.534 33.256V28.392H155.03V32.888C155.03 33.6027 155.179 34.1307 155.478 34.472C155.787 34.8027 156.219 34.968 156.774 34.968C157.158 34.968 157.499 34.888 157.798 34.728C158.096 34.5573 158.331 34.3013 158.502 33.96C158.672 33.608 158.758 33.1707 158.758 32.648V28.392H161.254V37H158.886V34.632L159.318 35.32C159.03 35.9173 158.603 36.3707 158.038 36.68C157.483 36.9787 156.875 37.128 156.214 37.128ZM167.662 37.128C166.745 37.128 165.929 36.936 165.214 36.552C164.51 36.168 163.95 35.6453 163.534 34.984C163.129 34.312 162.926 33.5493 162.926 32.696C162.926 31.832 163.129 31.0693 163.534 30.408C163.95 29.736 164.51 29.2133 165.214 28.84C165.929 28.456 166.745 28.264 167.662 28.264C168.569 28.264 169.379 28.456 170.094 28.84C170.809 29.2133 171.369 29.7307 171.774 30.392C172.179 31.0533 172.382 31.8213 172.382 32.696C172.382 33.5493 172.179 34.312 171.774 34.984C171.369 35.6453 170.809 36.168 170.094 36.552C169.379 36.936 168.569 37.128 167.662 37.128ZM167.662 35.08C168.078 35.08 168.451 34.984 168.782 34.792C169.113 34.6 169.374 34.328 169.566 33.976C169.758 33.6133 169.854 33.1867 169.854 32.696C169.854 32.1947 169.758 31.768 169.566 31.416C169.374 31.064 169.113 30.792 168.782 30.6C168.451 30.408 168.078 30.312 167.662 30.312C167.246 30.312 166.873 30.408 166.542 30.6C166.211 30.792 165.945 31.064 165.742 31.416C165.55 31.768 165.454 32.1947 165.454 32.696C165.454 33.1867 165.55 33.6133 165.742 33.976C165.945 34.328 166.211 34.6 166.542 34.792C166.873 34.984 167.246 35.08 167.662 35.08ZM177.57 37.128C176.557 37.128 175.768 36.872 175.202 36.36C174.637 35.8373 174.354 35.064 174.354 34.04V26.488H176.85V34.008C176.85 34.3707 176.946 34.6533 177.138 34.856C177.33 35.048 177.592 35.144 177.922 35.144C178.317 35.144 178.653 35.0373 178.93 34.824L179.602 36.584C179.346 36.7653 179.037 36.904 178.674 37C178.322 37.0853 177.954 37.128 177.57 37.128ZM173.026 30.504V28.584H178.994V30.504H173.026ZM185.01 37.128C184.029 37.128 183.165 36.936 182.418 36.552C181.682 36.168 181.111 35.6453 180.706 34.984C180.301 34.312 180.098 33.5493 180.098 32.696C180.098 31.832 180.295 31.0693 180.69 30.408C181.095 29.736 181.645 29.2133 182.338 28.84C183.031 28.456 183.815 28.264 184.69 28.264C185.533 28.264 186.29 28.4453 186.962 28.808C187.645 29.16 188.183 29.672 188.578 30.344C188.973 31.0053 189.17 31.8 189.17 32.728C189.17 32.824 189.165 32.936 189.154 33.064C189.143 33.1813 189.133 33.2933 189.122 33.4H182.13V31.944H187.81L186.85 32.376C186.85 31.928 186.759 31.5387 186.578 31.208C186.397 30.8773 186.146 30.6213 185.826 30.44C185.506 30.248 185.133 30.152 184.706 30.152C184.279 30.152 183.901 30.248 183.57 30.44C183.25 30.6213 182.999 30.8827 182.818 31.224C182.637 31.5547 182.546 31.9493 182.546 32.408V32.792C182.546 33.2613 182.647 33.6773 182.85 34.04C183.063 34.392 183.357 34.664 183.73 34.856C184.114 35.0373 184.562 35.128 185.074 35.128C185.533 35.128 185.933 35.0587 186.274 34.92C186.626 34.7813 186.946 34.5733 187.234 34.296L188.562 35.736C188.167 36.184 187.671 36.5307 187.074 36.776C186.477 37.0107 185.789 37.128 185.01 37.128Z" fill="white"/>
<defs>
<filter id="filter0_dddd_357_1690" x="0" y="0" width="244" height="128" filterUnits="userSpaceOnUse" color-interpolation-filters="sRGB">
<feFlood flood-opacity="0" result="BackgroundImageFix"/>
<feColorMatrix in="SourceAlpha" type="matrix" values="0 0 0 0 0 0 0 0 0 0 0 0 0 0 0 0 0 0 127 0" result="hardAlpha"/>
<feOffset dy="3"/>
<feGaussianBlur stdDeviation="3.5"/>
<feColorMatrix type="matrix" values="0 0 0 0 0 0 0 0 0 0 0 0 0 0 0 0 0 0 0.1 0"/>
<feBlend mode="normal" in2="BackgroundImageFix" result="effect1_dropShadow_357_1690"/>
<feColorMatrix in="SourceAlpha" type="matrix" values="0 0 0 0 0 0 0 0 0 0 0 0 0 0 0 0 0 0 127 0" result="hardAlpha"/>
<feOffset dy="13"/>
<feGaussianBlur stdDeviation="6.5"/>
<feColorMatrix type="matrix" values="0 0 0 0 0 0 0 0 0 0 0 0 0 0 0 0 0 0 0.09 0"/>
<feBlend mode="normal" in2="effect1_dropShadow_357_1690" result="effect2_dropShadow_357_1690"/>
<feColorMatrix in="SourceAlpha" type="matrix" values="0 0 0 0 0 0 0 0 0 0 0 0 0 0 0 0 0 0 127 0" result="hardAlpha"/>
<feOffset dy="28"/>
<feGaussianBlur stdDeviation="8.5"/>
<feColorMatrix type="matrix" values="0 0 0 0 0 0 0 0 0 0 0 0 0 0 0 0 0 0 0.05 0"/>
<feBlend mode="normal" in2="effect2_dropShadow_357_1690" result="effect3_dropShadow_357_1690"/>
<feColorMatrix in="SourceAlpha" type="matrix" values="0 0 0 0 0 0 0 0 0 0 0 0 0 0 0 0 0 0 127 0" result="hardAlpha"/>
<feOffset dy="50"/>
<feGaussianBlur stdDeviation="10"/>
<feColorMatrix type="matrix" values="0 0 0 0 0 0 0 0 0 0 0 0 0 0 0 0 0 0 0.01 0"/>
<feBlend mode="normal" in2="effect3_dropShadow_357_1690" result="effect4_dropShadow_357_1690"/>
<feBlend mode="normal" in="SourceGraphic" in2="effect4_dropShadow_357_1690" result="shape"/>
</filter>
</defs>
</svg>
